<svg viewBox="0 0 78 32" version="1.1" xmlns="http://www.w3.org/2000/svg" xmlns:xlink="http://www.w3.org/1999/xlink">
  <g id="Page-1" stroke="none" stroke-width="1" fill="none" fill-rule="evenodd">
      <g id="Group" transform="translate(-0.500000, 0.000000)" fill="#000000" fill-rule="nonzero">
          <path d="M7.20947353,0.992 C7.20947353,0.9386664 7.22814001,0.89333352 7.26547353,0.856 C7.30280705,0.81866648 7.34813993,0.8 7.40147353,0.8 L7.86547353,0.8 C7.91880713,0.8 7.96414001,0.81866648 8.00147353,0.856 C8.03880705,0.89333352 8.05747353,0.9386664 8.05747353,0.992 L8.05747353,11.808 C8.05747353,11.8613336 8.03880705,11.9066665 8.00147353,11.944 C7.96414001,11.9813335 7.91880713,12 7.86547353,12 L7.40147353,12 C7.34813993,12 7.30280705,11.9813335 7.26547353,11.944 C7.22814001,11.9066665 7.20947353,11.8613336 7.20947353,11.808 L7.20947353,6.816 C7.20947353,6.77333312 7.18814041,6.752 7.14547353,6.752 L1.64147353,6.752 C1.59880665,6.752 1.57747353,6.77333312 1.57747353,6.816 L1.57747353,11.808 C1.57747353,11.8613336 1.55880705,11.9066665 1.52147353,11.944 C1.48414001,11.9813335 1.43880713,12 1.38547353,12 L0.921473534,12 C0.868139934,12 0.822807054,11.9813335 0.785473534,11.944 C0.748140014,11.9066665 0.729473534,11.8613336 0.729473534,11.808 L0.729473534,0.992 C0.729473534,0.9386664 0.748140014,0.89333352 0.785473534,0.856 C0.822807054,0.81866648 0.868139934,0.8 0.921473534,0.8 L1.38547353,0.8 C1.43880713,0.8 1.48414001,0.81866648 1.52147353,0.856 C1.55880705,0.89333352 1.57747353,0.9386664 1.57747353,0.992 L1.57747353,5.936 C1.57747353,5.97866688 1.59880665,6 1.64147353,6 L7.14547353,6 C7.18814041,6 7.20947353,5.97866688 7.20947353,5.936 L7.20947353,0.992 Z M14.2287016,3.808 C15.167373,3.808 15.8820325,4.05066424 16.3727016,4.536 C16.8633708,5.02133576 17.1087016,5.67466256 17.1087016,6.496 L17.1087016,11.808 C17.1087016,11.8613336 17.0900352,11.9066665 17.0527016,11.944 C17.0153681,11.9813335 16.9700352,12 16.9167016,12 L16.4527016,12 C16.399368,12 16.3540352,11.9813335 16.3167016,11.944 C16.2793681,11.9066665 16.2607016,11.8613336 16.2607016,11.808 L16.2607016,11.12 C16.2607016,11.0986666 16.2527017,11.0826667 16.2367016,11.072 C16.2207016,11.0613333 16.2020351,11.0666666 16.1807016,11.088 C15.9033669,11.429335 15.5353706,11.6879991 15.0767016,11.864 C14.6180327,12.0400009 14.1273709,12.128 13.6047016,12.128 C12.8580312,12.128 12.2340375,11.9440018 11.7327016,11.576 C11.2313658,11.2079982 10.9807016,10.6346706 10.9807016,9.856 C10.9807016,9.06666272 11.274032,8.44266896 11.8607016,7.984 C12.4473712,7.52533104 13.2526965,7.296 14.2767016,7.296 L16.1967016,7.296 C16.2393685,7.296 16.2607016,7.27466688 16.2607016,7.232 L16.2607016,6.512 C16.2607016,5.90399696 16.09537,5.4266684 15.7647016,5.08 C15.4340333,4.7333316 14.9167052,4.56 14.2127016,4.56 C13.6686989,4.56 13.2207034,4.66933224 12.8687016,4.888 C12.5166999,5.10666776 12.2980354,5.4026648 12.2127016,5.776 C12.1807015,5.90400064 12.1060356,5.95733344 11.9887016,5.936 L11.4927016,5.872 C11.3540343,5.85066656 11.2953682,5.79200048 11.3167016,5.696 C11.4233688,5.13066384 11.7380324,4.6746684 12.2607016,4.328 C12.7833709,3.9813316 13.4393644,3.808 14.2287016,3.808 Z M13.7647016,11.392 C14.436705,11.392 15.0206992,11.2266683 15.5167016,10.896 C16.0127041,10.5653317 16.2607016,10.1066696 16.2607016,9.52 L16.2607016,8.064 C16.2607016,8.02133312 16.2393685,8 16.1967016,8 L14.3727016,8 C13.6046978,8 12.988704,8.1599984 12.5247016,8.48 C12.0606993,8.8000016 11.8287016,9.24266384 11.8287016,9.808 C11.8287016,10.3306693 12.0100332,10.725332 12.3727016,10.992 C12.7353701,11.258668 13.1993655,11.392 13.7647016,11.392 Z M23.3279297,3.824 C24.1492672,3.824 24.8105939,4.07466416 25.3119297,4.576 C25.8132656,5.07733584 26.0639297,5.73866256 26.0639297,6.56 L26.0639297,11.808 C26.0639297,11.8613336 26.0452633,11.9066665 26.0079297,11.944 C25.9705962,11.9813335 25.9252633,12 25.8719297,12 L25.4079297,12 C25.3545961,12 25.3092633,11.9813335 25.2719297,11.944 C25.2345962,11.9066665 25.2159297,11.8613336 25.2159297,11.808 L25.2159297,6.72 C25.2159297,6.09066352 25.0239317,5.576002 24.6399297,5.176 C24.2559278,4.775998 23.7599328,4.576 23.1519297,4.576 C22.5012598,4.576 21.9785984,4.77066472 21.5839297,5.16 C21.1892611,5.54933528 20.9919297,6.05866352 20.9919297,6.688 L20.9919297,11.808 C20.9919297,11.8613336 20.9732633,11.9066665 20.9359297,11.944 C20.8985962,11.9813335 20.8532633,12 20.7999297,12 L20.3359297,12 C20.2825961,12 20.2372633,11.9813335 20.1999297,11.944 C20.1625962,11.9066665 20.1439297,11.8613336 20.1439297,11.808 L20.1439297,4.128 C20.1439297,4.0746664 20.1625962,4.02933352 20.1999297,3.992 C20.2372633,3.95466648 20.2825961,3.936 20.3359297,3.936 L20.7999297,3.936 C20.8532633,3.936 20.8985962,3.95466648 20.9359297,3.992 C20.9732633,4.02933352 20.9919297,4.0746664 20.9919297,4.128 L20.9919297,4.88 C20.9919297,4.91200016 20.9999297,4.93066664 21.0159297,4.936 C21.0319298,4.94133336 21.045263,4.93333344 21.0559297,4.912 C21.2905976,4.55999824 21.6025945,4.2906676 21.9919297,4.104 C22.381265,3.9173324 22.8265939,3.824 23.3279297,3.824 Z M34.2031578,0.992 C34.2031578,0.9386664 34.2218243,0.89333352 34.2591578,0.856 C34.2964914,0.81866648 34.3418242,0.8 34.3951578,0.8 L34.8591578,0.8 C34.9124914,0.8 34.9578243,0.81866648 34.9951578,0.856 C35.0324914,0.89333352 35.0511578,0.9386664 35.0511578,0.992 L35.0511578,11.808 C35.0511578,11.8613336 35.0324914,11.9066665 34.9951578,11.944 C34.9578243,11.9813335 34.9124914,12 34.8591578,12 L34.3951578,12 C34.3418242,12 34.2964914,11.9813335 34.2591578,11.944 C34.2218243,11.9066665 34.2031578,11.8613336 34.2031578,11.808 L34.2031578,11.056 C34.2031578,11.0239998 34.1951579,11.0053334 34.1791578,11 C34.1631578,10.9946666 34.1444913,11.0026666 34.1231578,11.024 C33.88849,11.3760018 33.5871597,11.647999 33.2191578,11.84 C32.851156,12.032001 32.4324935,12.128 31.9631578,12.128 C31.2378209,12.128 30.6244937,11.9360019 30.1231578,11.552 C29.621822,11.1679981 29.2804921,10.6506699 29.0991578,10 C28.9818239,9.55199776 28.9231578,8.88000448 28.9231578,7.984 C28.9231578,7.5039976 28.9338244,7.10933488 28.9551578,6.8 C28.9764913,6.49066512 29.0191575,6.21333456 29.0831578,5.968 C29.2538254,5.30666336 29.5924886,4.78133528 30.0991578,4.392 C30.605827,4.00266472 31.2271542,3.808 31.9631578,3.808 C32.4324935,3.808 32.851156,3.9013324 33.2191578,4.088 C33.5871597,4.2746676 33.88849,4.54399824 34.1231578,4.896 C34.1338246,4.91733344 34.1498244,4.92266672 34.1711578,4.912 C34.1924913,4.90133328 34.2031578,4.88533344 34.2031578,4.864 L34.2031578,0.992 Z M33.9951578,9.872 C34.0698249,9.66933232 34.120491,9.44000128 34.1471578,9.184 C34.1738246,8.92799872 34.1871578,8.52800272 34.1871578,7.984 C34.1871578,7.41866384 34.171158,7.00533464 34.1391578,6.744 C34.1071577,6.48266536 34.0538249,6.2453344 33.9791578,6.032 C33.8724906,5.59466448 33.6484929,5.24000136 33.3071578,4.968 C32.9658228,4.69599864 32.549827,4.56 32.0591578,4.56 C31.557822,4.56 31.1258263,4.69599864 30.7631578,4.968 C30.4004894,5.24000136 30.1551585,5.5893312 30.0271578,6.016 C29.9311574,6.24000112 29.8644914,6.47999872 29.8271578,6.736 C29.7898243,6.99200128 29.7711578,7.40266384 29.7711578,7.968 C29.7711578,8.501336 29.7871577,8.89333208 29.8191578,9.144 C29.851158,9.39466792 29.9044908,9.63733216 29.9791578,9.872 C30.0964918,10.3200022 30.3418226,10.6826653 30.7151578,10.96 C31.088493,11.2373347 31.5364886,11.376 32.0591578,11.376 C32.5604937,11.376 32.9791562,11.2373347 33.3151578,10.96 C33.6511595,10.6826653 33.8778239,10.3200022 33.9951578,9.872 Z M40.8383859,12.08 C40.2623831,12.08 39.7530548,11.9866676 39.3103859,11.8 C38.8677171,11.6133324 38.5237205,11.3600016 38.2783859,11.04 C38.0330514,10.7199984 37.9103859,10.3680019 37.9103859,9.984 L37.9103859,9.808 C37.9103859,9.7546664 37.9290524,9.70933352 37.9663859,9.672 C38.0037195,9.63466648 38.0490523,9.616 38.1023859,9.616 L38.5503859,9.616 C38.6037195,9.616 38.6490524,9.63199984 38.6863859,9.664 C38.7237195,9.69600016 38.7423859,9.73333312 38.7423859,9.776 L38.7423859,9.952 C38.7423859,10.3360019 38.9370507,10.6719986 39.3263859,10.96 C39.7157212,11.2480014 40.2143829,11.392 40.8223859,11.392 C41.4197223,11.392 41.9077174,11.2480014 42.2863859,10.96 C42.6650545,10.6719986 42.8543859,10.3146688 42.8543859,9.888 C42.8543859,9.58933184 42.7583869,9.34400096 42.5663859,9.152 C42.374385,8.95999904 42.1450539,8.81333384 41.8783859,8.712 C41.6117179,8.61066616 41.2170552,8.4800008 40.6943859,8.32 C40.0970496,8.13866576 39.6170544,7.9680008 39.2543859,7.808 C38.8917175,7.6479992 38.5850539,7.4213348 38.3343859,7.128 C38.083718,6.8346652 37.9583859,6.46400224 37.9583859,6.016 C37.9583859,5.36533008 38.21705,4.84533528 38.7343859,4.456 C39.2517219,4.06666472 39.9317151,3.872 40.7743859,3.872 C41.3397221,3.872 41.8383838,3.9653324 42.2703859,4.152 C42.7023881,4.3386676 43.0383847,4.5919984 43.2783859,4.912 C43.5183871,5.2320016 43.6383859,5.59466464 43.6383859,6 L43.6383859,6.016 C43.6383859,6.0693336 43.6197195,6.11466648 43.5823859,6.152 C43.5450524,6.18933352 43.4997195,6.208 43.4463859,6.208 L43.0143859,6.208 C42.9610523,6.208 42.9157195,6.19733344 42.8783859,6.176 C42.8410524,6.15466656 42.8223859,6.12800016 42.8223859,6.096 L42.8223859,6 C42.8223859,5.59466464 42.6330545,5.25600136 42.2543859,4.984 C41.8757174,4.71199864 41.3770557,4.576 40.7583859,4.576 C40.1610496,4.576 39.6810544,4.70133208 39.3183859,4.952 C38.9557175,5.20266792 38.7743859,5.5413312 38.7743859,5.968 C38.7743859,6.37333536 38.9423843,6.67733232 39.2783859,6.88 C39.6143876,7.08266768 40.1397157,7.2906656 40.8543859,7.504 C41.4837224,7.68533424 41.9823841,7.85333256 42.3503859,8.008 C42.7183878,8.16266744 43.0357179,8.38933184 43.3023859,8.688 C43.5690539,8.98666816 43.7023859,9.37066432 43.7023859,9.84 C43.7023859,10.5120034 43.4410552,11.0533313 42.9183859,11.464 C42.3957167,11.8746687 41.7023903,12.08 40.8383859,12.08 Z M49.6496141,3.824 C50.4709515,3.824 51.1322782,4.07466416 51.6336141,4.576 C52.1349499,5.07733584 52.3856141,5.73866256 52.3856141,6.56 L52.3856141,11.808 C52.3856141,11.8613336 52.3669476,11.9066665 52.3296141,11.944 C52.2922805,11.9813335 52.2469477,12 52.1936141,12 L51.7296141,12 C51.6762805,12 51.6309476,11.9813335 51.5936141,11.944 C51.5562805,11.9066665 51.5376141,11.8613336 51.5376141,11.808 L51.5376141,6.72 C51.5376141,6.09066352 51.345616,5.576002 50.9616141,5.176 C50.5776121,4.775998 50.0816171,4.576 49.4736141,4.576 C48.8229441,4.576 48.3002827,4.77066472 47.9056141,5.16 C47.5109454,5.54933528 47.3136141,6.05866352 47.3136141,6.688 L47.3136141,11.808 C47.3136141,11.8613336 47.2949476,11.9066665 47.2576141,11.944 C47.2202805,11.9813335 47.1749477,12 47.1216141,12 L46.6576141,12 C46.6042805,12 46.5589476,11.9813335 46.5216141,11.944 C46.4842805,11.9066665 46.4656141,11.8613336 46.4656141,11.808 L46.4656141,0.992 C46.4656141,0.9386664 46.4842805,0.89333352 46.5216141,0.856 C46.5589476,0.81866648 46.6042805,0.8 46.6576141,0.8 L47.1216141,0.8 C47.1749477,0.8 47.2202805,0.81866648 47.2576141,0.856 C47.2949476,0.89333352 47.3136141,0.9386664 47.3136141,0.992 L47.3136141,4.88 C47.3136141,4.91200016 47.321614,4.93066664 47.3376141,4.936 C47.3536141,4.94133336 47.3669473,4.93333344 47.3776141,4.912 C47.6122819,4.55999824 47.9242788,4.2906676 48.3136141,4.104 C48.7029493,3.9173324 49.1482782,3.824 49.6496141,3.824 Z M58.2208422,3.808 C59.1595135,3.808 59.874173,4.05066424 60.3648422,4.536 C60.8555113,5.02133576 61.1008422,5.67466256 61.1008422,6.496 L61.1008422,11.808 C61.1008422,11.8613336 61.0821757,11.9066665 61.0448422,11.944 C61.0075086,11.9813335 60.9621758,12 60.9088422,12 L60.4448422,12 C60.3915086,12 60.3461757,11.9813335 60.3088422,11.944 C60.2715086,11.9066665 60.2528422,11.8613336 60.2528422,11.808 L60.2528422,11.12 C60.2528422,11.0986666 60.2448422,11.0826667 60.2288422,11.072 C60.2128421,11.0613333 60.1941756,11.0666666 60.1728422,11.088 C59.8955074,11.429335 59.5275111,11.6879991 59.0688422,11.864 C58.6101732,12.0400009 58.1195114,12.128 57.5968422,12.128 C56.8501718,12.128 56.226178,11.9440018 55.7248422,11.576 C55.2235063,11.2079982 54.9728422,10.6346706 54.9728422,9.856 C54.9728422,9.06666272 55.2661726,8.44266896 55.8528422,7.984 C56.4395118,7.52533104 57.244837,7.296 58.2688422,7.296 L60.1888422,7.296 C60.231509,7.296 60.2528422,7.27466688 60.2528422,7.232 L60.2528422,6.512 C60.2528422,5.90399696 60.0875105,5.4266684 59.7568422,5.08 C59.4261738,4.7333316 58.9088457,4.56 58.2048422,4.56 C57.6608394,4.56 57.2128439,4.66933224 56.8608422,4.888 C56.5088404,5.10666776 56.2901759,5.4026648 56.2048422,5.776 C56.172842,5.90400064 56.0981761,5.95733344 55.9808422,5.936 L55.4848422,5.872 C55.3461748,5.85066656 55.2875087,5.79200048 55.3088422,5.696 C55.4155094,5.13066384 55.7301729,4.6746684 56.2528422,4.328 C56.7755114,3.9813316 57.4315049,3.808 58.2208422,3.808 Z M57.7568422,11.392 C58.4288455,11.392 59.0128397,11.2266683 59.5088422,10.896 C60.0048446,10.5653317 60.2528422,10.1066696 60.2528422,9.52 L60.2528422,8.064 C60.2528422,8.02133312 60.231509,8 60.1888422,8 L58.3648422,8 C57.5968383,8 56.9808445,8.1599984 56.5168422,8.48 C56.0528398,8.8000016 55.8208422,9.24266384 55.8208422,9.808 C55.8208422,10.3306693 56.0021737,10.725332 56.3648422,10.992 C56.7275106,11.258668 57.191506,11.392 57.7568422,11.392 Z M64.3280703,12 C64.2747367,12 64.2294038,11.9813335 64.1920703,11.944 C64.1547367,11.9066665 64.1360703,11.8613336 64.1360703,11.808 L64.1360703,0.992 C64.1360703,0.9386664 64.1547367,0.89333352 64.1920703,0.856 C64.2294038,0.81866648 64.2747367,0.8 64.3280703,0.8 L64.7920703,0.8 C64.8454039,0.8 64.8907367,0.81866648 64.9280703,0.856 C64.9654038,0.89333352 64.9840703,0.9386664 64.9840703,0.992 L64.9840703,7.792 C64.9840703,7.81333344 64.9920702,7.82933328 65.0080703,7.84 C65.0240703,7.85066672 65.0427368,7.84533344 65.0640703,7.824 L68.7440703,4.032 C68.8080706,3.96799968 68.8880698,3.936 68.9840703,3.936 L69.5440703,3.936 C69.6507375,3.936 69.7040703,3.97333296 69.7040703,4.048 C69.7040703,4.09066688 69.6827371,4.13333312 69.6400703,4.176 L67.6400703,6.304 C67.6187368,6.32533344 67.6134035,6.35199984 67.6240703,6.384 L70.0720703,11.776 C70.0934037,11.8186669 70.1040703,11.8506666 70.1040703,11.872 C70.1040703,11.9573338 70.0454042,12 69.9280703,12 L69.4320703,12 C69.3254031,12 69.2507371,11.9520005 69.2080703,11.856 L67.0480703,6.96 C67.0267368,6.91733312 67.0000704,6.91199984 66.9680703,6.944 L65.0160703,8.96 C64.9947368,8.98133344 64.9840703,9.00799984 64.9840703,9.04 L64.9840703,11.808 C64.9840703,11.8613336 64.9654038,11.9066665 64.9280703,11.944 C64.8907367,11.9813335 64.8454039,12 64.7920703,12 L64.3280703,12 Z M75.2672984,11.392 C75.7899676,11.3813333 76.2379632,11.2613345 76.6112984,11.032 C76.9846336,10.8026655 77.2619641,10.4853354 77.4432984,10.08 C77.5072987,9.9733328 77.5926312,9.94133312 77.6992984,9.984 L77.9872984,10.096 C78.115299,10.1493336 78.152632,10.2346661 78.0992984,10.352 C77.8646305,10.8960027 77.4966342,11.3279984 76.9952984,11.648 C76.4939625,11.9680016 75.8966352,12.128 75.2032984,12.128 C74.4672947,12.128 73.8459676,11.9466685 73.3392984,11.584 C72.8326292,11.2213315 72.477966,10.7253365 72.2752984,10.096 C72.1259643,9.60533088 72.0512984,8.89067136 72.0512984,7.952 C72.0512984,7.42933072 72.0592983,7.034668 72.0752984,6.768 C72.0912984,6.501332 72.1259648,6.25600112 72.1792984,6.032 C72.3499659,5.35999664 72.6992957,4.82133536 73.2272984,4.416 C73.755301,4.01066464 74.4032945,3.808 75.1712984,3.808 C76.024636,3.808 76.7126291,4.03199776 77.2352984,4.48 C77.7579676,4.92800224 78.088631,5.54132944 78.2272984,6.32 C78.2699652,6.5333344 78.2992983,6.75466552 78.3152984,6.984 C78.3312984,7.21333448 78.3392984,7.56266432 78.3392984,8.032 C78.3392984,8.17066736 78.275299,8.24 78.1472984,8.24 L72.9472984,8.24 C72.9046315,8.24 72.8832984,8.26133312 72.8832984,8.304 C72.8832984,8.97600336 72.9099648,9.43466544 72.9632984,9.68 C73.0806323,10.1920026 73.341963,10.6053318 73.7472984,10.92 C74.1526337,11.2346682 74.6592953,11.392 75.2672984,11.392 Z M72.9952984,6.224 C72.9419648,6.42666768 72.9046318,6.8479968 72.8832984,7.488 C72.8832984,7.53066688 72.9046315,7.552 72.9472984,7.552 L77.4112984,7.552 C77.4539652,7.552 77.4752984,7.53066688 77.4752984,7.488 C77.4752984,6.94399728 77.448632,6.538668 77.3952984,6.272 C77.2779644,5.75999744 77.021967,5.34666824 76.6272984,5.032 C76.2326297,4.71733176 75.7473012,4.56 75.1712984,4.56 C74.5952955,4.56 74.1153003,4.71199848 73.7312984,5.016 C73.3472964,5.32000152 73.1019656,5.72266416 72.9952984,6.224 Z" id="Handshake"></path>
          <path d="M12.6887016,28 C12.5393676,28 12.4433685,27.9306674 12.4007016,27.792 L11.9047016,26.144 C11.8940349,26.0906664 11.856702,26.064 11.7927016,26.064 L7.60070164,26.064 C7.53670132,26.064 7.49936836,26.0906664 7.48870164,26.144 L6.99270164,27.792 C6.95003476,27.9306674 6.85403572,28 6.70470164,28 L5.24870164,28 C5.16336788,28 5.10203516,27.9733336 5.06470164,27.92 C5.02736812,27.8666664 5.0193682,27.7973338 5.04070164,27.712 L8.46470164,17.008 C8.50736852,16.8693326 8.60336756,16.8 8.75270164,16.8 L10.6247016,16.8 C10.7740357,16.8 10.8700348,16.8693326 10.9127016,17.008 L14.3527016,27.712 C14.3633684,27.7333334 14.3687016,27.7653331 14.3687016,27.808 C14.3687016,27.9360006 14.2940357,28 14.1447016,28 L12.6887016,28 Z M7.98470164,24.496 C7.97403492,24.570667 8.00070132,24.608 8.06470164,24.608 L11.3287016,24.608 C11.392702,24.608 11.4193684,24.570667 11.4087016,24.496 L9.76070164,19.056 C9.75003492,19.0133331 9.73136844,18.992 9.70470164,18.992 C9.67803484,18.992 9.65403508,19.0133331 9.63270164,19.056 L7.98470164,24.496 Z M19.5159297,28.128 C18.6945923,28.128 17.9852661,27.9173354 17.3879297,27.496 C16.7905934,27.0746646 16.3745976,26.5066702 16.1399297,25.792 C15.9692622,25.3119976 15.8839297,24.672004 15.8839297,23.872 C15.8839297,23.1039962 15.9692622,22.4746691 16.1399297,21.984 C16.3639309,21.2799965 16.7772601,20.7226687 17.3799297,20.312 C17.9825994,19.9013313 18.6945923,19.696 19.5159297,19.696 C20.3479339,19.696 21.07326,19.9039979 21.6919297,20.32 C22.3105995,20.7360021 22.7212621,21.2586635 22.9239297,21.888 C22.9559299,21.9840005 22.9879296,22.1333323 23.0199297,22.336 L23.0199297,22.4 C23.0199297,22.5173339 22.9505971,22.5919998 22.8119297,22.624 L21.4839297,22.832 L21.4199297,22.832 C21.3025958,22.832 21.2279299,22.7680006 21.1959297,22.64 L21.1479297,22.432 C21.0732627,22.1119984 20.8865979,21.8426678 20.5879297,21.624 C20.2892616,21.4053322 19.9319318,21.296 19.5159297,21.296 C19.1105944,21.296 18.7665978,21.399999 18.4839297,21.608 C18.2012617,21.816001 18.0119302,22.1013315 17.9159297,22.464 C17.8092625,22.805335 17.7559297,23.279997 17.7559297,23.888 C17.7559297,24.4746696 17.8039293,24.9493315 17.8999297,25.312 C18.0065969,25.6853352 18.198595,25.9813322 18.4759297,26.2 C18.7532645,26.4186678 19.0999277,26.528 19.5159297,26.528 C19.9212651,26.528 20.2705949,26.424001 20.5639297,26.216 C20.8572645,26.007999 21.046596,25.733335 21.1319297,25.392 L21.1479297,25.312 C21.1585965,25.2586664 21.1932628,25.2053336 21.2519297,25.152 C21.3105967,25.0986664 21.3772627,25.0773333 21.4519297,25.088 L22.7799297,25.296 C22.9185971,25.3280002 22.9879297,25.4026661 22.9879297,25.52 C22.9879297,25.5840003 22.9665966,25.711999 22.9239297,25.904 C22.7212621,26.5866701 22.3105995,27.127998 21.6919297,27.528 C21.07326,27.928002 20.3479339,28.128 19.5159297,28.128 Z M28.2151578,19.696 C28.8871612,19.696 29.4818219,19.8133322 29.9991578,20.048 C30.5164938,20.2826678 30.9138231,20.6053313 31.1911578,21.016 C31.4684926,21.4266687 31.6071578,21.8933307 31.6071578,22.416 L31.6071578,27.744 C31.6071578,27.9146675 31.5218254,28 31.3511578,28 L30.0071578,28 C29.8364903,28 29.7511578,27.9146675 29.7511578,27.744 L29.7511578,27.344 C29.7511578,27.3013331 29.7404913,27.2773334 29.7191578,27.272 C29.6978244,27.2666666 29.671158,27.2746666 29.6391578,27.296 C29.063155,27.8506694 28.2951626,28.128 27.3351578,28.128 C26.5458206,28.128 25.897827,27.9253354 25.3911578,27.52 C24.8844886,27.1146646 24.6311578,26.512004 24.6311578,25.712 C24.6311578,24.8799958 24.9218216,24.2320023 25.5031578,23.768 C26.0844941,23.3039977 26.9031526,23.072 27.9591578,23.072 L29.6551578,23.072 C29.7191582,23.072 29.7511578,23.0400003 29.7511578,22.976 L29.7511578,22.608 C29.7511578,22.1919979 29.6258258,21.8693345 29.3751578,21.64 C29.1244899,21.4106655 28.753827,21.296 28.2631578,21.296 C27.8898226,21.296 27.5804924,21.362666 27.3351578,21.496 C27.0898233,21.629334 26.9244916,21.8133322 26.8391578,22.048 C26.796491,22.1973341 26.7004919,22.2666667 26.5511578,22.256 L25.1111578,22.08 C25.0258241,22.0693333 24.9618247,22.0453335 24.9191578,22.008 C24.876491,21.9706665 24.8604911,21.9253336 24.8711578,21.872 C24.9671583,21.2319968 25.3218214,20.7093354 25.9351578,20.304 C26.5484942,19.8986646 27.3084866,19.696 28.2151578,19.696 Z M27.8471578,26.656 C28.3698271,26.656 28.8178226,26.5173347 29.1911578,26.24 C29.564493,25.9626653 29.7511578,25.6106688 29.7511578,25.184 L29.7511578,24.448 C29.7511578,24.3839997 29.7191582,24.352 29.6551578,24.352 L28.3271578,24.352 C27.7618217,24.352 27.3138262,24.4586656 26.9831578,24.672 C26.6524895,24.8853344 26.4871578,25.1893314 26.4871578,25.584 C26.4871578,25.925335 26.6151566,26.1893324 26.8711578,26.376 C27.1271591,26.5626676 27.4524892,26.656 27.8471578,26.656 Z M38.8983859,17.056 C38.8983859,16.8853325 38.9837184,16.8 39.1543859,16.8 L40.4983859,16.8 C40.6690535,16.8 40.7543859,16.8853325 40.7543859,17.056 L40.7543859,27.744 C40.7543859,27.9146675 40.6690535,28 40.4983859,28 L39.1543859,28 C38.9837184,28 38.8983859,27.9146675 38.8983859,27.744 L38.8983859,27.328 C38.8983859,27.2853331 38.8850527,27.2586667 38.8583859,27.248 C38.8317191,27.2373333 38.8077194,27.2533331 38.7863859,27.296 C38.327717,27.8506694 37.7197231,28.128 36.9623859,28.128 C36.2157155,28.128 35.5757219,27.928002 35.0423859,27.528 C34.5090499,27.127998 34.1250538,26.5813368 33.8903859,25.888 C33.698385,25.2906637 33.6023859,24.6240037 33.6023859,23.888 C33.6023859,23.1306629 33.6930517,22.4800027 33.8743859,21.936 C34.1090538,21.2319965 34.4877167,20.6826686 35.0103859,20.288 C35.5330552,19.8933314 36.1837154,19.696 36.9623859,19.696 C37.7090563,19.696 38.3170503,19.9573307 38.7863859,20.48 C38.8077194,20.5120002 38.8317191,20.5253334 38.8583859,20.52 C38.8850527,20.5146666 38.8983859,20.4906669 38.8983859,20.448 L38.8983859,17.056 Z M38.4983859,25.76 C38.7437205,25.3439979 38.8663859,24.7253374 38.8663859,23.904 C38.8663859,23.0719958 38.7330539,22.4373355 38.4663859,22 C38.1783845,21.5306643 37.7783885,21.296 37.2663859,21.296 C36.7117165,21.296 36.2850541,21.5199978 35.9863859,21.968 C35.6770511,22.4373357 35.5223859,23.0879958 35.5223859,23.92 C35.5223859,24.6880038 35.6503847,25.2959978 35.9063859,25.744 C36.1837207,26.2560026 36.6317162,26.512 37.2503859,26.512 C37.7837219,26.512 38.1997178,26.2613358 38.4983859,25.76 Z M46.9096141,26.56 C47.3042827,26.5493333 47.6482793,26.4666674 47.9416141,26.312 C48.2349489,26.1573326 48.4722798,25.946668 48.6536141,25.68 C48.7069477,25.5946662 48.7762803,25.552 48.8616141,25.552 C48.9149477,25.552 48.9629472,25.5679998 49.0056141,25.6 L49.7736141,26.208 C49.8482811,26.282667 49.8856141,26.3519997 49.8856141,26.416 C49.8856141,26.4586669 49.8696142,26.5066664 49.8376141,26.56 C49.5282792,27.0506691 49.1069501,27.4346653 48.5736141,27.712 C48.0402781,27.9893347 47.4269509,28.128 46.7336141,28.128 C45.8909432,28.128 45.1842836,27.928002 44.6136141,27.528 C44.0429445,27.127998 43.6296153,26.5706702 43.3736141,25.856 C43.1602797,25.2693304 43.0536141,24.6080037 43.0536141,23.872 C43.0536141,23.1359963 43.1122801,22.5706686 43.2296141,22.176 C43.4322817,21.4186629 43.8322777,20.8160022 44.4296141,20.368 C45.0269504,19.9199978 45.7522765,19.696 46.6056141,19.696 C48.6002907,19.696 49.768279,20.7893224 50.1096141,22.976 C50.1629477,23.3280018 50.2002806,23.7653307 50.2216141,24.288 C50.2216141,24.4586675 50.1362816,24.544 49.9656141,24.544 L45.0056141,24.544 C44.9416137,24.544 44.9096141,24.5759997 44.9096141,24.64 C44.9096141,24.9280014 44.9416137,25.1626658 45.0056141,25.344 C45.122948,25.7280019 45.3469457,26.0266656 45.6776141,26.24 C46.0082824,26.4533344 46.4189449,26.56 46.9096141,26.56 Z M46.5896141,21.296 C46.1842787,21.296 45.8509487,21.3946657 45.5896141,21.592 C45.3282794,21.7893343 45.1496145,22.0639982 45.0536141,22.416 C44.978947,22.6293344 44.9362808,22.8533322 44.9256141,23.088 C44.9149473,23.1520003 44.9416137,23.184 45.0056141,23.184 L48.2216141,23.184 C48.2856144,23.184 48.3176141,23.1520003 48.3176141,23.088 C48.2749472,22.7679984 48.2429475,22.5760003 48.2216141,22.512 C48.1256136,22.1386648 47.9362821,21.8426678 47.6536141,21.624 C47.370946,21.4053322 47.0162829,21.296 46.5896141,21.296 Z M61.1608422,19.696 C61.9821796,19.696 62.6248398,19.9439975 63.0888422,20.44 C63.5528445,20.9360025 63.7848422,21.6266622 63.7848422,22.512 L63.7848422,27.744 C63.7848422,27.9146675 63.6995097,28 63.5288422,28 L62.2008422,28 C62.0301746,28 61.9448422,27.9146675 61.9448422,27.744 L61.9448422,22.896 C61.9448422,22.4053309 61.8141768,22.0160014 61.5528422,21.728 C61.2915075,21.4399986 60.9421777,21.296 60.5048422,21.296 C60.0675066,21.296 59.7101769,21.4399986 59.4328422,21.728 C59.1555074,22.0160014 59.0168422,22.3999976 59.0168422,22.88 L59.0168422,27.744 C59.0168422,27.9146675 58.9315097,28 58.7608422,28 L57.4328422,28 C57.2621746,28 57.1768422,27.9146675 57.1768422,27.744 L57.1768422,22.896 C57.1768422,22.4053309 57.0435102,22.0160014 56.7768422,21.728 C56.5101742,21.4399986 56.1581777,21.296 55.7208422,21.296 C55.3155068,21.296 54.9821768,21.4133322 54.7208422,21.648 C54.4595075,21.8826678 54.307509,22.2026646 54.2648422,22.608 L54.2648422,27.744 C54.2648422,27.9146675 54.1795097,28 54.0088422,28 L52.6648422,28 C52.4941746,28 52.4088422,27.9146675 52.4088422,27.744 L52.4088422,20.08 C52.4088422,19.9093325 52.4941746,19.824 52.6648422,19.824 L54.0088422,19.824 C54.1795097,19.824 54.2648422,19.9093325 54.2648422,20.08 L54.2648422,20.512 C54.2648422,20.5546669 54.2781754,20.5813333 54.3048422,20.592 C54.331509,20.6026667 54.3555087,20.5866669 54.3768422,20.544 C54.8355111,19.9786638 55.5075044,19.696 56.3928422,19.696 C56.9155114,19.696 57.3715069,19.799999 57.7608422,20.008 C58.1501774,20.216001 58.4515078,20.5226646 58.6648422,20.928 C58.6861756,20.9600002 58.7101754,20.976 58.7368422,20.976 C58.763509,20.976 58.7821754,20.9546669 58.7928422,20.912 C59.0381767,20.5066646 59.3688401,20.2026677 59.7848422,20 C60.2008442,19.7973323 60.6595063,19.696 61.1608422,19.696 Z M66.0040703,31.184 C65.9294032,31.184 65.8920703,31.0986675 65.8920703,30.928 L65.8920703,29.904 C65.8920703,29.7333325 65.9294032,29.648 66.0040703,29.648 L66.1000703,29.648 C66.5374058,29.648 66.8787357,29.6080004 67.1240703,29.528 C67.3694048,29.4479996 67.5694028,29.2960011 67.7240703,29.072 C67.8787377,28.8479989 68.0200696,28.5120022 68.1480703,28.064 C68.1694037,28.0106664 68.1694037,27.9680002 68.1480703,27.936 L65.5400703,20.112 C65.5294035,20.0799998 65.5240703,20.0426669 65.5240703,20 C65.5240703,19.8826661 65.5987362,19.824 65.7480703,19.824 L67.1880703,19.824 C67.3374043,19.824 67.4334034,19.8933326 67.4760703,20.032 L69.0440703,25.328 C69.0654037,25.3706669 69.0894035,25.392 69.1160703,25.392 C69.1427371,25.392 69.1614035,25.3706669 69.1720703,25.328 L70.6920703,20.032 C70.7347371,19.8933326 70.8307362,19.824 70.9800703,19.824 L72.4200703,19.824 C72.5160707,19.824 72.5827367,19.8479998 72.6200703,19.896 C72.6574038,19.9440002 72.6600704,20.0159995 72.6280703,20.112 L69.8280703,28.448 C69.5614023,29.2053371 69.3000715,29.7706648 69.0440703,30.144 C68.788069,30.5173352 68.4387391,30.7839992 67.9960703,30.944 C67.5534014,31.1040008 66.926741,31.184 66.1160703,31.184 L66.0040703,31.184 Z" id="Academy"></path>
      </g>
    </g>
</svg>
