<svg width="100%" height="3.04688rem" viewBox="0 0 50 44" version="1.1" xmlns="http://www.w3.org/2000/svg" xmlns:xlink="http://www.w3.org/1999/xlink">
  <g id="Page-1" stroke="none" stroke-width="1" fill="none" fill-rule="evenodd">
    <g id="haLogo" fill="#000" fill-rule="nonzero">
      <path d="M40.5862574,30.5299837 L28.997622,30.5299837 L31.1099478,26.743203 L38.8773348,26.5762582 L38.8828884,26.5762582 C38.8798604,26.5692298 38.8768324,26.5622014 38.8738045,26.5551731 C38.1218736,24.8098505 37.0111759,22.193278 35.5417112,18.7054553 L37.8202643,14.6571705 L50,40.5872437 L44.9168184,40.5817399 C43.4789584,37.2442929 42.0354382,33.8937074 40.5862574,30.5299837 Z M23.3428916,37.9426631 C23.2302403,38.1419067 23.0839307,38.1419067 23.0365346,38.1419067 L21.1351981,38.1419067 C20.1288909,38.1412266 18.9680314,38.1405467 18.2770109,38.1405467 L25.6714796,25.0414639 C25.7944345,24.82386 25.7916868,24.5586549 25.6639236,24.343771 C25.5361604,24.128887 25.3039885,23.9969647 25.0525834,23.9969647 L25.0518966,23.9969647 L12.449359,24.0132849 L9.94355116,19.7319256 L28.2995555,19.7319256 C28.3009292,19.7319256 28.3023031,19.7312457 28.3043637,19.7312457 C28.3064245,19.7312457 28.3077982,19.7319256 28.3091721,19.7319256 C28.3194756,19.7319256 28.329092,19.7285256 28.3393955,19.7278454 C28.3806095,19.7251255 28.4218234,19.7210454 28.4609768,19.7115252 C28.4912002,19.7047251 28.520737,19.695205 28.5502737,19.6843247 C28.5660723,19.6782046 28.581184,19.6720845 28.5962959,19.6652844 C28.7336757,19.6047631 28.8552568,19.5054813 28.9328763,19.3647189 L31.958667,13.8450565 L36.9537971,13.8450565 L23.3428916,37.9426631 Z M17.0454008,37.4448937 C16.8846664,37.183769 16.6758491,36.8444427 16.4484855,36.4751958 C15.6839668,35.2300927 14.7044488,33.6361431 14.593858,33.46138 C14.5567654,33.4022188 14.5395929,33.2580562 14.6172126,33.1206936 C14.7944325,32.8065278 18.1410049,26.8584576 18.956354,25.4086708 L23.8429542,25.4025506 L17.0454008,37.4448937 Z M8.7119411,29.2473418 L6.28306598,24.989103 L8.73117427,20.4608991 L11.1868385,24.6558968 C10.4236937,26.0737231 9.23261061,28.2851241 8.7119411,29.2473418 Z M5.45191804,29.9103541 C4.21549968,29.9103541 2.98595034,29.9096742 2.80529586,29.9096742 L2.80460896,29.9096742 C2.68371473,29.9096742 2.53740522,29.8260326 2.47077602,29.7185906 L1.68015516,28.4326869 C1.11689791,27.5160299 0.39840147,26.3470881 0,25.7003962 L5.05969867,25.7003962 L7.46109787,29.9110342 C6.93699384,29.9110342 6.19514287,29.9103541 5.45191804,29.9103541 Z M13.6672312,0.199923704 C13.7798826,0 13.9255052,0 13.9729012,0 L18.7530319,0.00068001246 L11.3386432,13.0997627 C11.3324611,13.1106429 11.3290266,13.1222031 11.3235315,13.1337634 C11.312541,13.1555237 11.3029245,13.1779641 11.2939948,13.2010846 C11.2864388,13.223525 11.2795699,13.2452855 11.2733877,13.2677258 C11.2678926,13.2888062 11.2630843,13.3098866 11.2596499,13.330967 C11.2555284,13.3574875 11.2527809,13.383328 11.252094,13.4091685 C11.2514071,13.4207287 11.2486594,13.4316089 11.2486594,13.4438491 C11.2486594,13.4526893 11.2507201,13.4608494 11.2514071,13.4696895 C11.252094,13.49553 11.2548415,13.5206905 11.2589629,13.545851 C11.2617105,13.5669314 11.2651451,13.5880117 11.2706402,13.6090921 C11.2761354,13.6315325 11.2836913,13.6526129 11.2912472,13.6743733 C11.2988031,13.6954537 11.306359,13.7172141 11.3159755,13.7376145 C11.3255921,13.7580149 11.3365826,13.7770552 11.3482598,13.7967756 C11.3599371,13.815816 11.3709274,13.8348564 11.3846654,13.8532166 C11.3977165,13.871577 11.4128284,13.8885773 11.428627,13.9062576 C11.4437388,13.9225779 11.4588506,13.9395783 11.4753362,13.9552185 C11.4918216,13.9701788 11.5089942,13.983099 11.5268535,13.9966993 C11.5467737,14.0123396 11.5666937,14.0266199 11.5879876,14.0395401 C11.5962304,14.0443002 11.6024124,14.0504203 11.6106552,14.0551804 C11.618898,14.0599405 11.6278277,14.0613005 11.6367574,14.0653806 C11.673163,14.083741 11.7116294,14.0993812 11.7521565,14.1116215 C11.7665814,14.1157015 11.7803194,14.1211416 11.7954311,14.1245417 C11.8469485,14.1367819 11.8998398,14.1442621 11.9554785,14.1442621 C11.9561655,14.1442621 11.9561655,14.1449421 11.9568524,14.1449421 L11.9575393,14.1449421 L11.9582262,14.1449421 L12.2721391,14.1442621 C12.2735129,14.1442621 12.2748867,14.1449421 12.2762604,14.1449421 L12.2769474,14.1449421 L24.5628243,14.1286218 C24.8877278,14.6862321 25.4949464,15.7354916 26.0121815,16.6290281 C26.4092091,17.3158408 26.7375469,17.8822913 26.995821,18.3276995 L8.71331494,18.3276995 C8.70507207,18.3276995 8.69751622,18.3304196 8.68996037,18.3310995 C8.44130287,18.3351797 8.20157512,18.465062 8.07518567,18.6983064 L5.04870828,24.2961701 L0.057012625,24.2961701 C2.23585653,20.4377786 13.5216085,0.456968466 13.6672312,0.199923704 Z M31.950424,12.4415105 L29.5483379,8.23087254 L34.2020794,8.23223256 C34.3264081,8.23223256 34.4713438,8.31383399 34.5393469,8.42399613 C34.6135319,8.54435831 34.9913263,9.15908967 35.4453667,9.89758338 C35.9887038,10.7815998 36.6385105,11.8383393 37.0101227,12.4415105 L31.950424,12.4415105 Z M19.9750254,0.713333214 L20.4187623,1.43414658 C21.1983927,2.70305008 22.299492,4.49420326 22.4162647,4.68052671 C22.4533574,4.73968781 22.4705298,4.88317047 22.3922234,5.02121302 L18.0530818,12.7332359 L13.1685424,12.739356 L19.9750254,0.713333214 Z M28.296121,8.88980472 L30.7263699,13.1500836 L28.2487249,17.6687674 C27.9533584,17.1601179 27.5865541,16.5263462 27.2424179,15.9313351 C26.5623877,14.7555934 26.0664465,13.8994575 25.7868786,13.4207287 C26.315104,12.466671 27.7115698,9.94246422 28.296121,8.88980472 Z M45.1056371,41.3025649 L49.8454248,41.3102431 L48.3066082,44 L43.6338979,43.9924307 L45.1056371,41.3025649 Z M28.544291,31.3778248 L38.7270871,31.3778248 L37.2981504,33.8204098 L27.0898837,33.8204098 L28.544291,31.3778248 Z M35.1892551,19.7320954 L37.9819337,25.9151247 L35.9786188,25.9253686 L33.9399242,21.8227096 L35.1892551,19.7320954 Z M38.250009,34.2368328 L39.681806,31.7824683 L43.8564838,40.9735191 L42.3231812,43.637877 L38.250009,34.2368328 Z" id="Shape"></path>
    </g>
  </g>
</svg>
