<?xml version="1.0" encoding="UTF-8"?>
<svg height="100%" width="auto" viewBox="0 0 835 638" version="1.1" xmlns="http://www.w3.org/2000/svg" xmlns:xlink="http://www.w3.org/1999/xlink">
    <defs>
        <linearGradient x1="50%" y1="100.007716%" x2="50%" y2="0%" id="linearGradient-1">
            <stop stop-color="#808080" stop-opacity="0.25" offset="0%"></stop>
            <stop stop-color="#808080" stop-opacity="0.12" offset="54%"></stop>
            <stop stop-color="#808080" stop-opacity="0.1" offset="100%"></stop>
        </linearGradient>
        <linearGradient x1="50.0014285%" y1="100%" x2="50.0014285%" y2="0%" id="linearGradient-2">
            <stop stop-color="#808080" stop-opacity="0.25" offset="0%"></stop>
            <stop stop-color="#808080" stop-opacity="0.12" offset="54%"></stop>
            <stop stop-color="#808080" stop-opacity="0.1" offset="100%"></stop>
        </linearGradient>
        <linearGradient x1="50%" y1="100%" x2="50%" y2="-0.00666311301%" id="linearGradient-3">
            <stop stop-color="#808080" stop-opacity="0.25" offset="0%"></stop>
            <stop stop-color="#808080" stop-opacity="0.12" offset="54%"></stop>
            <stop stop-color="#808080" stop-opacity="0.1" offset="100%"></stop>
        </linearGradient>
        <linearGradient x1="49.9978666%" y1="100%" x2="49.9978666%" y2="0%" id="linearGradient-4">
            <stop stop-color="#808080" stop-opacity="0.25" offset="0%"></stop>
            <stop stop-color="#808080" stop-opacity="0.12" offset="54%"></stop>
            <stop stop-color="#808080" stop-opacity="0.1" offset="100%"></stop>
        </linearGradient>
        <linearGradient x1="49.9971492%" y1="100%" x2="49.9971492%" y2="0%" id="linearGradient-5">
            <stop stop-color="#808080" stop-opacity="0.25" offset="0%"></stop>
            <stop stop-color="#808080" stop-opacity="0.12" offset="54%"></stop>
            <stop stop-color="#808080" stop-opacity="0.1" offset="100%"></stop>
        </linearGradient>
        <linearGradient x1="50%" y1="100%" x2="50%" y2="0%" id="linearGradient-6">
            <stop stop-color="#808080" stop-opacity="0.25" offset="0%"></stop>
            <stop stop-color="#808080" stop-opacity="0.12" offset="54%"></stop>
            <stop stop-color="#808080" stop-opacity="0.1" offset="100%"></stop>
        </linearGradient>
        <linearGradient x1="50%" y1="100%" x2="50%" y2="0%" id="linearGradient-7">
            <stop stop-color="#808080" stop-opacity="0.25" offset="0%"></stop>
            <stop stop-color="#808080" stop-opacity="0.12" offset="54%"></stop>
            <stop stop-color="#808080" stop-opacity="0.1" offset="100%"></stop>
        </linearGradient>
        <linearGradient x1="50.0021334%" y1="100%" x2="50.0021334%" y2="0%" id="linearGradient-8">
            <stop stop-color="#808080" stop-opacity="0.25" offset="0%"></stop>
            <stop stop-color="#808080" stop-opacity="0.12" offset="54%"></stop>
            <stop stop-color="#808080" stop-opacity="0.1" offset="100%"></stop>
        </linearGradient>
        <linearGradient x1="50.0028508%" y1="100%" x2="50.0028508%" y2="0%" id="linearGradient-9">
            <stop stop-color="#808080" stop-opacity="0.25" offset="0%"></stop>
            <stop stop-color="#808080" stop-opacity="0.12" offset="54%"></stop>
            <stop stop-color="#808080" stop-opacity="0.1" offset="100%"></stop>
        </linearGradient>
        <linearGradient x1="-0.0711785603%" y1="50.0602536%" x2="99.9639201%" y2="50.0602536%" id="linearGradient-10">
            <stop stop-color="#808080" stop-opacity="0.25" offset="0%"></stop>
            <stop stop-color="#808080" stop-opacity="0.12" offset="54%"></stop>
            <stop stop-color="#808080" stop-opacity="0.1" offset="100%"></stop>
        </linearGradient>
        <linearGradient x1="50%" y1="100%" x2="50%" y2="0%" id="linearGradient-11">
            <stop stop-color="#808080" stop-opacity="0.25" offset="0%"></stop>
            <stop stop-color="#808080" stop-opacity="0.12" offset="54%"></stop>
            <stop stop-color="#808080" stop-opacity="0.1" offset="100%"></stop>
        </linearGradient>
        <linearGradient x1="49.9985715%" y1="100%" x2="49.9985715%" y2="0%" id="linearGradient-12">
            <stop stop-color="#808080" stop-opacity="0.25" offset="0%"></stop>
            <stop stop-color="#808080" stop-opacity="0.12" offset="54%"></stop>
            <stop stop-color="#808080" stop-opacity="0.1" offset="100%"></stop>
        </linearGradient>
        <linearGradient x1="49.9983564%" y1="100%" x2="49.9983564%" y2="0%" id="linearGradient-13">
            <stop stop-color="#808080" stop-opacity="0.25" offset="0%"></stop>
            <stop stop-color="#808080" stop-opacity="0.12" offset="54%"></stop>
            <stop stop-color="#808080" stop-opacity="0.1" offset="100%"></stop>
        </linearGradient>
        <linearGradient x1="49.9958667%" y1="100%" x2="49.9958667%" y2="0%" id="linearGradient-14">
            <stop stop-color="#808080" stop-opacity="0.25" offset="0%"></stop>
            <stop stop-color="#808080" stop-opacity="0.12" offset="54%"></stop>
            <stop stop-color="#808080" stop-opacity="0.1" offset="100%"></stop>
        </linearGradient>
        <linearGradient x1="0.0360799011%" y1="49.9397464%" x2="100.071179%" y2="49.9397464%" id="linearGradient-15">
            <stop stop-color="#808080" stop-opacity="0.25" offset="0%"></stop>
            <stop stop-color="#808080" stop-opacity="0.12" offset="54%"></stop>
            <stop stop-color="#808080" stop-opacity="0.1" offset="100%"></stop>
        </linearGradient>
        <linearGradient x1="50%" y1="100%" x2="50%" y2="0%" id="linearGradient-16">
            <stop stop-color="#808080" stop-opacity="0.25" offset="0%"></stop>
            <stop stop-color="#808080" stop-opacity="0.12" offset="54%"></stop>
            <stop stop-color="#808080" stop-opacity="0.1" offset="100%"></stop>
        </linearGradient>
        <linearGradient x1="50%" y1="100%" x2="50%" y2="0%" id="linearGradient-17">
            <stop stop-color="#808080" stop-opacity="0.25" offset="0%"></stop>
            <stop stop-color="#808080" stop-opacity="0.12" offset="54%"></stop>
            <stop stop-color="#808080" stop-opacity="0.1" offset="100%"></stop>
        </linearGradient>
        <linearGradient x1="-0.0711785603%" y1="49.9397464%" x2="99.9639201%" y2="49.9397464%" id="linearGradient-18">
            <stop stop-color="#808080" stop-opacity="0.25" offset="0%"></stop>
            <stop stop-color="#808080" stop-opacity="0.12" offset="54%"></stop>
            <stop stop-color="#808080" stop-opacity="0.1" offset="100%"></stop>
        </linearGradient>
        <linearGradient x1="0%" y1="50%" x2="100%" y2="50%" id="linearGradient-19">
            <stop stop-color="#808080" stop-opacity="0.25" offset="0%"></stop>
            <stop stop-color="#808080" stop-opacity="0.12" offset="54%"></stop>
            <stop stop-color="#808080" stop-opacity="0.1" offset="100%"></stop>
        </linearGradient>
        <linearGradient x1="50.0568828%" y1="99.9159664%" x2="50.0568828%" y2="0%" id="linearGradient-20">
            <stop stop-color="#808080" stop-opacity="0.25" offset="0%"></stop>
            <stop stop-color="#808080" stop-opacity="0.12" offset="54%"></stop>
            <stop stop-color="#808080" stop-opacity="0.1" offset="100%"></stop>
        </linearGradient>
        <linearGradient x1="50%" y1="100%" x2="50%" y2="0%" id="linearGradient-21">
            <stop stop-color="#808080" stop-opacity="0.25" offset="0%"></stop>
            <stop stop-color="#808080" stop-opacity="0.12" offset="54%"></stop>
            <stop stop-color="#808080" stop-opacity="0.1" offset="100%"></stop>
        </linearGradient>
        <linearGradient x1="50%" y1="100%" x2="50%" y2="0%" id="linearGradient-22">
            <stop stop-color="#808080" stop-opacity="0.25" offset="0%"></stop>
            <stop stop-color="#808080" stop-opacity="0.12" offset="54%"></stop>
            <stop stop-color="#808080" stop-opacity="0.1" offset="100%"></stop>
        </linearGradient>
        <linearGradient x1="50.0176118%" y1="100.074516%" x2="50.0176118%" y2="0.0745156483%" id="linearGradient-23">
            <stop stop-color="#808080" stop-opacity="0.25" offset="0%"></stop>
            <stop stop-color="#808080" stop-opacity="0.12" offset="54%"></stop>
            <stop stop-color="#808080" stop-opacity="0.1" offset="100%"></stop>
        </linearGradient>
        <linearGradient x1="49.790795%" y1="100%" x2="49.790795%" y2="0%" id="linearGradient-24">
            <stop stop-color="#808080" stop-opacity="0.25" offset="0%"></stop>
            <stop stop-color="#808080" stop-opacity="0.12" offset="54%"></stop>
            <stop stop-color="#808080" stop-opacity="0.1" offset="100%"></stop>
        </linearGradient>
        <linearGradient x1="49.8557692%" y1="100%" x2="49.8557692%" y2="0%" id="linearGradient-25">
            <stop stop-color="#808080" stop-opacity="0.25" offset="0%"></stop>
            <stop stop-color="#808080" stop-opacity="0.12" offset="54%"></stop>
            <stop stop-color="#808080" stop-opacity="0.1" offset="100%"></stop>
        </linearGradient>
    </defs>
    <g id="Page-1" stroke="none" stroke-width="1" fill="none" fill-rule="evenodd">
        <g id="undraw_Camping_2g8w">
            <rect id="Rectangle" fill="url(#linearGradient-1)" fill-rule="nonzero" x="152.28" y="378.95" width="43.46" height="129.6"></rect>
            <rect id="Rectangle" fill="#795548" fill-rule="nonzero" x="155.39" y="378.95" width="37.25" height="127.28"></rect>
            <polygon id="Path" fill="url(#linearGradient-2)" fill-rule="nonzero" points="175.18 275.03 0.17 435.61 350.18 435.61"></polygon>
            <polygon id="Path" fill="#4C4981" fill-rule="nonzero" points="175.18 279.25 7.16 431.31 343.2 431.31"></polygon>
            <polygon id="Path" fill="url(#linearGradient-3)" fill-rule="nonzero" points="174.79 214.9 22.68 364.98 326.9 364.98"></polygon>
            <polygon id="Path" fill="#4C4981" fill-rule="nonzero" points="174.79 218.98 28.89 362.94 320.69 362.94"></polygon>
            <polygon id="Path" fill="url(#linearGradient-4)" fill-rule="nonzero" points="174.01 160.36 56.83 294.36 291.2 294.36"></polygon>
            <polygon id="Path" fill="#4C4981" fill-rule="nonzero" points="174.01 166.48 62.26 291.3 285.77 291.3"></polygon>
            <polygon id="Path" fill="url(#linearGradient-5)" fill-rule="nonzero" points="174.01 112 86.32 229.17 261.71 229.17"></polygon>
            <polygon id="Path" fill="#4C4981" fill-rule="nonzero" points="174.01 115.46 90.2 227.44 257.83 227.44"></polygon>
            <polygon id="Path" fill="url(#linearGradient-6)" fill-rule="nonzero" points="174.79 61.54 114.3 166.31 235.28 166.31"></polygon>
            <polygon id="Path" fill="#4C4981" fill-rule="nonzero" points="174.79 64.65 116.99 164.76 232.59 164.76"></polygon>
            <rect id="Rectangle" fill="url(#linearGradient-1)" fill-rule="nonzero" x="633.08" y="378.95" width="43.46" height="129.6"></rect>
            <rect id="Rectangle" fill="#795548" fill-rule="nonzero" x="636.18" y="378.95" width="37.25" height="127.28"></rect>
            <polygon id="Path" fill="url(#linearGradient-7)" fill-rule="nonzero" points="655.97 275.03 480.97 435.61 830.97 435.61"></polygon>
            <polygon id="Path" fill="#4C4981" fill-rule="nonzero" points="655.97 279.25 487.95 431.31 823.99 431.31"></polygon>
            <polygon id="Path" fill="url(#linearGradient-3)" fill-rule="nonzero" points="655.58 214.9 503.47 364.98 807.69 364.98"></polygon>
            <polygon id="Path" fill="#4C4981" fill-rule="nonzero" points="655.58 218.98 509.68 362.94 801.48 362.94"></polygon>
            <polygon id="Path" fill="url(#linearGradient-8)" fill-rule="nonzero" points="654.81 160.36 537.62 294.36 771.99 294.36"></polygon>
            <polygon id="Path" fill="#4C4981" fill-rule="nonzero" points="654.81 166.48 543.05 291.3 766.56 291.3"></polygon>
            <polygon id="Path" fill="url(#linearGradient-9)" fill-rule="nonzero" points="654.81 112 567.11 229.17 742.5 229.17"></polygon>
            <polygon id="Path" fill="#4C4981" fill-rule="nonzero" points="654.81 115.46 570.99 227.44 738.62 227.44"></polygon>
            <polygon id="Path" fill="url(#linearGradient-6)" fill-rule="nonzero" points="655.58 61.54 595.09 166.31 716.07 166.31"></polygon>
            <polygon id="Path" fill="#4C4981" fill-rule="nonzero" points="655.58 64.65 597.78 164.76 713.38 164.76"></polygon>
            <path d="M501.8,372.65 C501.33,370.4 499.67,368.81 498.13,369.1 C496.59,369.39 495.76,371.53 496.24,373.78 C496.72,376.03 498.37,377.62 499.91,377.33 C501.45,377.04 502.27,374.99 501.8,372.65 Z" id="Path" fill="url(#linearGradient-10)" fill-rule="nonzero"></path>
            <path d="M502.98,370.88 C502.51,368.63 500.85,367.03 499.31,367.33 C497.77,367.63 496.95,369.75 497.42,372 C497.89,374.25 499.55,375.85 501.09,375.55 C502.63,375.25 503.48,373.19 502.98,370.88 Z" id="Path" fill="#FFFFFF" fill-rule="nonzero"></path>
            <rect id="Rectangle" fill="url(#linearGradient-11)" fill-rule="nonzero" x="488.84" y="323.18" width="43.46" height="129.6"></rect>
            <rect id="Rectangle" fill="#795548" fill-rule="nonzero" x="491.94" y="323.18" width="37.25" height="127.28"></rect>
            <polygon id="Path" fill="url(#linearGradient-12)" fill-rule="nonzero" points="511.73 219.26 336.73 379.83 686.74 379.83"></polygon>
            <polygon id="Path" fill="#4C4981" fill-rule="nonzero" points="511.73 223.48 343.71 375.54 679.75 375.54"></polygon>
            <polygon id="Path" fill="url(#linearGradient-13)" fill-rule="nonzero" points="511.34 159.12 359.24 309.21 663.45 309.21"></polygon>
            <polygon id="Path" fill="#4C4981" fill-rule="nonzero" points="511.34 163.21 365.44 307.17 657.25 307.17"></polygon>
            <polygon id="Path" fill="url(#linearGradient-8)" fill-rule="nonzero" points="510.57 104.59 393.38 238.59 627.75 238.59"></polygon>
            <polygon id="Path" fill="#4C4981" fill-rule="nonzero" points="510.57 110.71 398.81 235.53 622.32 235.53"></polygon>
            <polygon id="Path" fill="url(#linearGradient-9)" fill-rule="nonzero" points="510.57 56.23 422.87 173.4 598.26 173.4"></polygon>
            <polygon id="Path" fill="#4C4981" fill-rule="nonzero" points="510.57 59.69 426.75 171.67 594.38 171.67"></polygon>
            <polygon id="Path" fill="url(#linearGradient-14)" fill-rule="nonzero" points="511.34 5.77 450.86 110.54 571.83 110.54"></polygon>
            <polygon id="Path" fill="#4C4981" fill-rule="nonzero" points="511.34 8.87 453.54 108.99 569.14 108.99"></polygon>
            <path d="M357.56,316.88 C357.09,314.63 355.43,313.04 353.89,313.33 C352.35,313.62 351.53,315.76 352,318.01 C352.47,320.26 354.13,321.85 355.67,321.56 C357.21,321.27 358.04,319.19 357.56,316.88 Z" id="Path" fill="url(#linearGradient-15)" fill-rule="nonzero"></path>
            <path d="M358.75,315.11 C358.27,312.86 356.62,311.26 355.08,311.56 C353.54,311.86 352.71,313.98 353.18,316.23 C353.65,318.48 355.31,320.08 356.85,319.78 C358.39,319.48 359.22,317.41 358.75,315.11 Z" id="Path" fill="#FFFFFF" fill-rule="nonzero"></path>
            <rect id="Rectangle" fill="url(#linearGradient-1)" fill-rule="nonzero" x="334.98" y="317.41" width="43.46" height="129.6"></rect>
            <rect id="Rectangle" fill="#795548" fill-rule="nonzero" x="338.09" y="317.41" width="37.25" height="127.28"></rect>
            <polygon id="Path" fill="url(#linearGradient-16)" fill-rule="nonzero" points="357.88 213.49 182.88 374.06 532.88 374.06"></polygon>
            <polygon id="Path" fill="#4C4981" fill-rule="nonzero" points="357.88 217.71 189.86 369.77 525.9 369.77"></polygon>
            <polygon id="Path" fill="url(#linearGradient-17)" fill-rule="nonzero" points="357.49 153.35 205.38 303.44 509.6 303.44"></polygon>
            <polygon id="Path" fill="#4C4981" fill-rule="nonzero" points="357.49 157.44 211.59 301.4 503.39 301.4"></polygon>
            <polygon id="Path" fill="url(#linearGradient-4)" fill-rule="nonzero" points="356.72 98.82 239.53 232.82 473.9 232.82"></polygon>
            <polygon id="Path" fill="#4C4981" fill-rule="nonzero" points="356.72 104.94 244.96 229.76 468.47 229.76"></polygon>
            <polygon id="Path" fill="url(#linearGradient-5)" fill-rule="nonzero" points="356.72 50.46 269.02 167.63 444.41 167.63"></polygon>
            <polygon id="Path" fill="#4C4981" fill-rule="nonzero" points="356.72 53.91 272.9 165.9 440.53 165.9"></polygon>
            <polygon id="Path" fill="url(#linearGradient-6)" fill-rule="nonzero" points="357.49 0 297 104.77 417.98 104.77"></polygon>
            <polygon id="Path" fill="#4C4981" fill-rule="nonzero" points="357.49 3.1 299.69 103.22 415.29 103.22"></polygon>
            <path d="M203.71,311.11 C203.24,308.86 201.58,307.27 200.04,307.56 C198.5,307.85 197.67,309.99 198.15,312.24 C198.63,314.49 200.28,316.08 201.82,315.79 C203.36,315.5 204.18,313.42 203.71,311.11 Z" id="Path" fill="url(#linearGradient-18)" fill-rule="nonzero"></path>
            <rect id="Rectangle" fill="#71412D" fill-rule="nonzero" transform="translate(713.550000, 573.685000) rotate(-180.000000) translate(-713.550000, -573.685000) " x="706.78" y="568.39" width="13.54" height="10.59"></rect>
            <rect id="Rectangle" fill="#71412D" fill-rule="nonzero" transform="translate(712.965000, 587.220000) rotate(-180.000000) translate(-712.965000, -587.220000) " x="709.73" y="578.98" width="6.47" height="16.48"></rect>
            <path d="M614.28,435.85 L709.73,578.98" id="Path" stroke="#71412D" stroke-width="1.84"></path>
            <rect id="Rectangle" fill="#71412D" fill-rule="nonzero" x="120.32" y="568.38" width="13.54" height="10.59"></rect>
            <rect id="Rectangle" fill="#71412D" fill-rule="nonzero" x="124.44" y="578.98" width="6.47" height="16.48"></rect>
            <path d="M226.35,435.85 L130.91,578.98" id="Path" stroke="#71412D" stroke-width="1.84"></path>
            <polygon id="Path" fill="#A9B2C2" fill-rule="nonzero" points="419.98 96.07 556.5 332.53 693.02 568.98 419.98 568.98 146.95 568.98 283.47 332.53"></polygon>
            <path d="M281.27,534.34 L418.99,534.34 L419.87,315.4 C419.87,315.4 284.8,355.49 281.27,534.34 Z" id="Path" fill="#FFFFFF" fill-rule="nonzero" opacity="0.2"></path>
            <path d="M420.1,315.4 L420.99,534.34 L558.71,534.34 C555.18,355.49 420.1,315.4 420.1,315.4 Z" id="Path" fill="#FFFFFF" fill-rule="nonzero" opacity="0.2"></path>
            <rect id="Rectangle" fill="#A9B2C2" fill-rule="nonzero" x="282.28" y="539.46" width="276.32" height="39.43"></rect>
            <rect id="Rectangle" fill="url(#linearGradient-19)" fill-rule="nonzero" x="277.73" y="534.36" width="285" height="48"></rect>
            <rect id="Rectangle" fill="#000000" fill-rule="nonzero" opacity="0.2" x="282.28" y="539.46" width="276.32" height="39.43"></rect>
            <rect id="Rectangle" fill="url(#linearGradient-20)" fill-rule="nonzero" x="52.73" y="589.5" width="8.79" height="11.9"></rect>
            <path d="M57.13,575.8 C46.56,575.8 37.99,583.37 37.99,593.9 L76.27,593.9 C76.27,583.37 67.7,575.8 57.13,575.8 Z" id="Path" fill="url(#linearGradient-21)" fill-rule="nonzero"></path>
            <rect id="Rectangle" fill="url(#linearGradient-22)" fill-rule="nonzero" x="88.28" y="600.99" width="6.52" height="8.82"></rect>
            <path d="M91.55,590.99 C83.71,590.99 77.35,595.99 77.35,604.41 L105.74,604.41 C105.74,595.99 99.38,590.99 91.55,590.99 Z" id="Path" fill="url(#linearGradient-23)" fill-rule="nonzero"></path>
            <rect id="Rectangle" fill="url(#linearGradient-24)" fill-rule="nonzero" x="55.06" y="630.72" width="4.78" height="6.46"></rect>
            <path d="M57.48,624.06 C51.74,624.06 47.08,627.58 47.08,633.89 L67.88,633.89 C67.85,627.58 63.19,624.06 57.48,624.06 Z" id="Path" fill="url(#linearGradient-25)" fill-rule="nonzero"></path>
            <rect id="Rectangle" fill="#D5B7AC" fill-rule="nonzero" x="54.38" y="590.97" width="8.03" height="10.87"></rect>
            <path d="M58.4,578.45 C48.75,578.45 40.92,585.37 40.92,594.99 L75.92,594.99 C75.89,585.37 68.06,578.45 58.4,578.45 Z" id="Path" fill="#FF6E40" fill-rule="nonzero"></path>
            <rect id="Rectangle" fill="#D5B7AC" fill-rule="nonzero" x="86.86" y="601.47" width="5.96" height="8.06"></rect>
            <path d="M89.84,592.34 C82.68,592.34 76.84,596.91 76.84,604.6 L102.770206,604.6 C102.81,596.91 97.01,592.34 89.84,592.34 Z" id="Path" fill="#FF6E40" fill-rule="nonzero"></path>
            <rect id="Rectangle" fill="#D5B7AC" fill-rule="nonzero" x="56.51" y="628.62" width="4.36" height="5.9"></rect>
            <path d="M58.69,622.54 C53.45,622.54 49.2,625.76 49.2,631.54 L68.2,631.54 C68.19,625.76 63.94,622.54 58.69,622.54 Z" id="Path" fill="#FF6E40" fill-rule="nonzero"></path>
            <path d="M834.19,633.13 L833.5,632.93 C833.29,632.38 833.1,631.84 832.89,631.34 C833.35368,631.914027 833.787584,632.51148 834.19,633.13 Z" id="Path" fill="#000000" fill-rule="nonzero" opacity="0.1"></path>
            <ellipse id="Oval" fill="#A9B2C2" fill-rule="nonzero" opacity="0.1" cx="134.67" cy="623.54" rx="18.68" ry="3.16"></ellipse>
            <path d="M122.13,608.86 C122.13,608.86 132.78,608.53 135.99,606.25 C139.2,603.97 152.38,601.25 153.18,604.9 C153.98,608.55 169.18,623.14 157.18,623.23 C145.18,623.32 129.23,621.36 126.03,619.41 C122.83,617.46 122.13,608.86 122.13,608.86 Z" id="Path" fill="#A8A8A8" fill-rule="nonzero"></path>
            <path d="M157.37,621.99 C145.37,622.08 129.43,620.11 126.22,618.16 C123.78,616.67 122.81,611.34 122.48,608.88 L122.13,608.88 C122.13,608.88 122.8,617.48 126.01,619.43 C129.22,621.38 145.13,623.35 157.16,623.25 C160.63,623.25 161.83,621.99 161.76,620.16 C161.28,621.25 159.96,621.99 157.37,621.99 Z" id="Path" fill="#000000" fill-rule="nonzero" opacity="0.2"></path>
            <ellipse id="Oval" fill="#A9B2C2" fill-rule="nonzero" opacity="0.1" cx="243" cy="586.75" rx="14.37" ry="2.43"></ellipse>
            <path d="M233.35,575.46 C233.35,575.46 241.54,575.2 244.02,573.46 C246.5,571.72 256.63,569.6 257.24,572.46 C257.85,575.32 269.56,586.46 260.3,586.56 C251.04,586.66 238.8,585.12 236.3,583.62 C233.8,582.12 233.35,575.46 233.35,575.46 Z" id="Path" fill="#A8A8A8" fill-rule="nonzero"></path>
            <path d="M260.48,585.53 C251.22,585.61 238.97,584.09 236.48,582.59 C234.6,581.44 233.85,577.34 233.6,575.45 L233.33,575.45 C233.33,575.45 233.85,582.06 236.33,583.56 C238.81,585.06 251.05,586.56 260.33,586.5 C263.01,586.5 263.93,585.5 263.88,584.12 C263.48,584.99 262.48,585.52 260.48,585.53 Z" id="Path" fill="#000000" fill-rule="nonzero" opacity="0.2"></path>
            <ellipse id="Oval" fill="#A9B2C2" fill-rule="nonzero" opacity="0.1" cx="554.79" cy="620.34" rx="34.31" ry="5.8"></ellipse>
            <path d="M531.75,593.39 C531.75,593.39 551.32,592.79 557.22,588.59 C563.12,584.39 587.32,579.37 588.79,586.11 C590.26,592.85 618.2,619.61 596.1,619.79 C574,619.97 544.76,616.34 538.88,612.79 C533,609.24 531.75,593.39 531.75,593.39 Z" id="Path" fill="#A8A8A8" fill-rule="nonzero"></path>
            <path d="M596.48,617.44 C574.38,617.62 545.14,614 539.25,610.44 C534.77,607.71 532.98,597.91 532.38,593.44 L531.73,593.44 C531.73,593.44 532.97,609.22 538.86,612.81 C544.75,616.4 573.99,620.01 596.08,619.81 C602.46,619.75 604.66,617.49 604.54,614.12 C603.68,616.14 601.24,617.4 596.48,617.44 Z" id="Path" fill="#000000" fill-rule="nonzero" opacity="0.2"></path>
        </g>
    </g>
</svg>
