<?xml version="1.0" encoding="UTF-8"?>
<svg width="409px" height="81px" viewBox="0 0 409 81" version="1.1" xmlns="http://www.w3.org/2000/svg" xmlns:xlink="http://www.w3.org/1999/xlink">
    <!-- Generator: Sketch 53.2 (72643) - https://sketchapp.com -->
    <title>Group</title>
    <desc>Created with Sketch.</desc>
    <g id="Page-1" stroke="none" stroke-width="1" fill="none" fill-rule="evenodd">
        <g id="Honeycomb" transform="translate(-616.000000, -404.000000)">
            <g id="Group" transform="translate(616.650000, 404.900000)">
                <polygon id="Path-Copy-3" fill="#F7B733" points="51.3500001 75.1 357.35 75.1 357.35 80.1 51.3500001 80.1"></polygon>
                <g id="CONTACTME" fill-rule="nonzero">
                    <path d="M18.825,53.7 C15.0749813,53.7 11.7750143,52.9625074 8.925,51.4875 C6.07498575,50.0124926 3.87500775,47.9500133 2.325,45.3 C0.77499225,42.6499868 0,39.5750175 0,36.075 L0,17.55 C0,14.0499825 0.77499225,10.9750133 2.325,8.325 C3.87500775,5.67498675 6.07498575,3.62500725 8.925,2.175 C11.7750143,0.72499275 15.0749813,0 18.825,0 C22.5250185,0 25.7999858,0.699993 28.65,2.1 C31.5000143,3.500007 33.6999923,5.47498725 35.25,8.025 C36.8000078,10.5750128 37.575,13.5249832 37.575,16.875 C37.575,17.3750025 37.2000038,17.6749995 36.45,17.775 L30.075,18.15 L29.775,18.15 C29.174997,18.15 28.875,18.0250013 28.875,17.775 L28.875,17.325 C28.875,14.3749853 27.9625091,12.000009 26.1375,10.2 C24.3124909,8.399991 21.8750153,7.5 18.825,7.5 C15.7749848,7.5 13.3250092,8.399991 11.475,10.2 C9.62499075,12.000009 8.7,14.3749853 8.7,17.325 L8.7,36.45 C8.7,39.3500145 9.62499075,41.699991 11.475,43.5 C13.3250092,45.300009 15.7749848,46.2 18.825,46.2 C21.8750153,46.2 24.3124909,45.3125089 26.1375,43.5375 C27.9625091,41.7624911 28.875,39.4000148 28.875,36.45 C28.875,36.1999988 28.9874989,35.9875009 29.2125,35.8125 C29.4375011,35.6374991 29.7249983,35.5749998 30.075,35.625 L36.375,35.925 C37.175004,36.0250005 37.575,36.1499993 37.575,36.3 L37.575,36.675 C37.575,40.075017 36.8000078,43.0624871 35.25,45.6375 C33.6999923,48.2125129 31.5000143,50.199993 28.65,51.6 C25.7999858,53.000007 22.5250185,53.7 18.825,53.7 Z M64.95,53.85 C61.1999813,53.85 57.8750145,53.0875076 54.975,51.5625 C52.0749855,50.0374924 49.8375079,47.875014 48.2625,45.075 C46.6874921,42.274986 45.9,39.0500182 45.9,35.4 L45.9,18.3 C45.9,14.699982 46.699992,11.5125139 48.3,8.7375 C49.900008,5.96248613 52.1374856,3.81250763 55.0125,2.2875 C57.8875144,0.762492375 61.1999813,0 64.95,0 C68.750019,0 72.0874856,0.762492375 74.9625,2.2875 C77.8375144,3.81250763 80.074992,5.96248613 81.675,8.7375 C83.275008,11.5125139 84.075,14.699982 84.075,18.3 L84.075,35.4 C84.075,39.0500182 83.275008,42.274986 81.675,45.075 C80.074992,47.875014 77.8375144,50.0374924 74.9625,51.5625 C72.0874856,53.0875076 68.750019,53.85 64.95,53.85 Z M64.95,46.35 C68.1000158,46.35 70.6249905,45.3750098 72.525,43.425 C74.4250095,41.4749903 75.375,38.900016 75.375,35.7 L75.375,18.225 C75.375,14.9749838 74.4250095,12.3750098 72.525,10.425 C70.6249905,8.47499025 68.1000158,7.5 64.95,7.5 C61.8499845,7.5 59.3500095,8.47499025 57.45,10.425 C55.5499905,12.3750098 54.6,14.9749838 54.6,18.225 L54.6,35.7 C54.6,38.900016 55.5499905,41.4749903 57.45,43.425 C59.3500095,45.3750098 61.8499845,46.35 64.95,46.35 Z M95.25,53.1 C94.449996,53.1 94.05,52.700004 94.05,51.9 L94.05,1.8 C94.05,0.999996 94.449996,0.6 95.25,0.6 L101.25,0.6 C101.950004,0.6 102.449999,0.87499725 102.75,1.425 L123.75,35.775 C123.850001,35.975001 123.962499,36.0500003 124.0875,36 C124.212501,35.9499998 124.275,35.825001 124.275,35.625 L124.275,1.8 C124.275,0.999996 124.674996,0.6 125.475,0.6 L131.775,0.6 C132.575004,0.6 132.975,0.999996 132.975,1.8 L132.975,51.9 C132.975,52.700004 132.575004,53.1 131.775,53.1 L125.625,53.1 C124.924997,53.1 124.425002,52.8250028 124.125,52.275 L103.125,17.7 C103.025,17.499999 102.912501,17.4249998 102.7875,17.475 C102.662499,17.5250003 102.6,17.649999 102.6,17.85 L102.675,51.9 C102.675,52.700004 102.275004,53.1 101.475,53.1 L95.25,53.1 Z M178.35,0.6 C179.150004,0.6 179.55,0.999996 179.55,1.8 L179.55,6.975 C179.55,7.775004 179.150004,8.175 178.35,8.175 L164.925,8.175 C164.624999,8.175 164.475,8.3249985 164.475,8.625 L164.475,51.9 C164.475,52.700004 164.075004,53.1 163.275,53.1 L156.975,53.1 C156.174996,53.1 155.775,52.700004 155.775,51.9 L155.775,8.625 C155.775,8.3249985 155.625002,8.175 155.325,8.175 L142.425,8.175 C141.624996,8.175 141.225,7.775004 141.225,6.975 L141.225,1.8 C141.225,0.999996 141.624996,0.6 142.425,0.6 L178.35,0.6 Z M216.15,53.1 C215.449997,53.1 215.000001,52.7750033 214.8,52.125 L212.475,44.4 C212.425,44.1499988 212.250002,44.025 211.95,44.025 L192.3,44.025 C191.999999,44.025 191.825,44.1499988 191.775,44.4 L189.45,52.125 C189.249999,52.7750033 188.800004,53.1 188.1,53.1 L181.275,53.1 C180.874998,53.1 180.587501,52.9750012 180.4125,52.725 C180.237499,52.4749988 180.2,52.150002 180.3,51.75 L196.35,1.575 C196.550001,0.92499675 196.999997,0.6 197.7,0.6 L206.475,0.6 C207.175004,0.6 207.624999,0.92499675 207.825,1.575 L223.95,51.75 C224,51.8500005 224.025,51.999999 224.025,52.2 C224.025,52.800003 223.675004,53.1 222.975,53.1 L216.15,53.1 Z M194.1,36.675 C194.05,37.0250018 194.174999,37.2 194.475,37.2 L209.775,37.2 C210.075002,37.2 210.2,37.0250018 210.15,36.675 L202.425,11.175 C202.375,10.974999 202.287501,10.875 202.1625,10.875 C202.037499,10.875 201.925001,10.974999 201.825,11.175 L194.1,36.675 Z M248.4,53.7 C244.649981,53.7 241.350014,52.9625074 238.5,51.4875 C235.649986,50.0124926 233.450008,47.9500133 231.9,45.3 C230.349992,42.6499868 229.575,39.5750175 229.575,36.075 L229.575,17.55 C229.575,14.0499825 230.349992,10.9750133 231.9,8.325 C233.450008,5.67498675 235.649986,3.62500725 238.5,2.175 C241.350014,0.72499275 244.649981,0 248.4,0 C252.100019,0 255.374986,0.699993 258.225,2.1 C261.075014,3.500007 263.274992,5.47498725 264.825,8.025 C266.375008,10.5750128 267.15,13.5249832 267.15,16.875 C267.15,17.3750025 266.775004,17.6749995 266.025,17.775 L259.65,18.15 L259.35,18.15 C258.749997,18.15 258.45,18.0250013 258.45,17.775 L258.45,17.325 C258.45,14.3749853 257.537509,12.000009 255.7125,10.2 C253.887491,8.399991 251.450015,7.5 248.4,7.5 C245.349985,7.5 242.900009,8.399991 241.05,10.2 C239.199991,12.000009 238.275,14.3749853 238.275,17.325 L238.275,36.45 C238.275,39.3500145 239.199991,41.699991 241.05,43.5 C242.900009,45.300009 245.349985,46.2 248.4,46.2 C251.450015,46.2 253.887491,45.3125089 255.7125,43.5375 C257.537509,41.7624911 258.45,39.4000148 258.45,36.45 C258.45,36.1999988 258.562499,35.9875009 258.7875,35.8125 C259.012501,35.6374991 259.299998,35.5749998 259.65,35.625 L265.95,35.925 C266.750004,36.0250005 267.15,36.1499993 267.15,36.3 L267.15,36.675 C267.15,40.075017 266.375008,43.0624871 264.825,45.6375 C263.274992,48.2125129 261.075014,50.199993 258.225,51.6 C255.374986,53.000007 252.100019,53.7 248.4,53.7 Z M310.35,0.6 C311.150004,0.6 311.55,0.999996 311.55,1.8 L311.55,6.975 C311.55,7.775004 311.150004,8.175 310.35,8.175 L296.925,8.175 C296.624999,8.175 296.475,8.3249985 296.475,8.625 L296.475,51.9 C296.475,52.700004 296.075004,53.1 295.275,53.1 L288.975,53.1 C288.174996,53.1 287.775,52.700004 287.775,51.9 L287.775,8.625 C287.775,8.3249985 287.625002,8.175 287.325,8.175 L274.425,8.175 C273.624996,8.175 273.225,7.775004 273.225,6.975 L273.225,1.8 C273.225,0.999996 273.624996,0.6 274.425,0.6 L310.35,0.6 Z" id="CONTACT" fill="#979797"></path>
                    <path d="M321.075,53.1 C320.274996,53.1 319.875,52.700004 319.875,51.9 L319.875,1.8 C319.875,0.999996 320.274996,0.6 321.075,0.6 L327.45,0.6 C328.150004,0.6 328.649999,0.87499725 328.95,1.425 L340.65,20.325 C340.750001,20.4750008 340.862499,20.55 340.9875,20.55 C341.112501,20.55 341.2,20.4750008 341.25,20.325 L353.1,1.425 C353.400002,0.87499725 353.899997,0.6 354.6,0.6 L360.9,0.6 C361.700004,0.6 362.1,0.999996 362.1,1.8 L362.1,51.9 C362.1,52.700004 361.700004,53.1 360.9,53.1 L354.6,53.1 C353.799996,53.1 353.4,52.700004 353.4,51.9 L353.4,16.425 C353.4,16.224999 353.337501,16.1000002 353.2125,16.05 C353.087499,15.9999998 352.975001,16.074999 352.875,16.275 L343.95,30.9 C343.649999,31.4500028 343.150004,31.725 342.45,31.725 L339.525,31.725 C338.824997,31.725 338.325002,31.4500028 338.025,30.9 L329.1,16.275 C329,16.074999 328.887501,15.9999998 328.7625,16.05 C328.637499,16.1000002 328.575,16.224999 328.575,16.425 L328.575,51.9 C328.575,52.700004 328.175004,53.1 327.375,53.1 L321.075,53.1 Z M408.225,6.9 C408.225,7.700004 407.825004,8.1 407.025,8.1 L381.825,8.1 C381.524999,8.1 381.375,8.2499985 381.375,8.55 L381.375,22.425 C381.375,22.7250015 381.524999,22.875 381.825,22.875 L398.625,22.875 C399.425004,22.875 399.825,23.274996 399.825,24.075 L399.825,29.175 C399.825,29.975004 399.425004,30.375 398.625,30.375 L381.825,30.375 C381.524999,30.375 381.375,30.5249985 381.375,30.825 L381.375,45.15 C381.375,45.4500015 381.524999,45.6 381.825,45.6 L407.025,45.6 C407.825004,45.6 408.225,45.999996 408.225,46.8 L408.225,51.9 C408.225,52.700004 407.825004,53.1 407.025,53.1 L373.875,53.1 C373.074996,53.1 372.675,52.700004 372.675,51.9 L372.675,1.8 C372.675,0.999996 373.074996,0.6 373.875,0.6 L407.025,0.6 C407.825004,0.6 408.225,0.999996 408.225,1.8 L408.225,6.9 Z" id="ME" fill="#DDDDDD"></path>
                </g>
            </g>
        </g>
    </g>
</svg>