<?xml version="1.0" encoding="UTF-8"?>
<svg width="1364px" height="687px" viewBox="0 0 1364 687" version="1.1" xmlns="http://www.w3.org/2000/svg" xmlns:xlink="http://www.w3.org/1999/xlink">
    <!-- Generator: Sketch 53.2 (72643) - https://sketchapp.com -->
    <title>Group 3</title>
    <desc>Created with Sketch.</desc>
    <g id="Page-1" stroke="none" stroke-width="1" fill="none" fill-rule="evenodd">
        <g id="Group-3" transform="translate(-0.000000, 13.000000)">
            <g id="Group-2" transform="translate(236.000000, 0.000000)">
                <g id="Group">
                    <g id="Chip" transform="translate(97.587703, 369.240310)" stroke="#000000" stroke-width="25">
                        <rect id="Rectangle" x="0" y="-1.70530257e-13" width="247.598553" height="46.7596899"></rect>
                        <path d="M34.8062172,24.3860661 L34.8062172,46.7031909" id="Line-12" stroke-linecap="square"></path>
                        <path d="M88.6216136,24.3860661 L88.6216136,46.7031909" id="Line-12-Copy" stroke-linecap="square"></path>
                        <path d="M144.942827,24.3860661 L144.942827,46.7031909" id="Line-12-Copy-3" stroke-linecap="square"></path>
                        <path d="M204.843778,23.4390344 L204.843778,45.7561592" id="Line-12-Copy-2" stroke-linecap="square"></path>
                    </g>
                    <rect id="Case" stroke="#000000" stroke-width="25" x="0" y="0" width="892" height="369.24031" rx="37"></rect>
                    <g id="Bolts-Left" transform="translate(67.746835, 33.860465)" fill="#000000">
                        <ellipse id="Oval" cx="12.0976492" cy="11.9970469" rx="12.0976492" ry="11.9970469"></ellipse>
                        <ellipse id="Oval-Copy-2" cx="12.0976492" cy="290.328535" rx="12.0976492" ry="11.9970469"></ellipse>
                    </g>
                    <g id="Bolts-Left-Copy" transform="translate(798.444846, 33.860465)" fill="#000000">
                        <ellipse id="Oval" cx="12.0976492" cy="11.9970469" rx="12.0976492" ry="11.9970469"></ellipse>
                        <ellipse id="Oval-Copy-2" cx="12.0976492" cy="290.328535" rx="12.0976492" ry="11.9970469"></ellipse>
                    </g>
                    <g id="Fan-Right" transform="translate(493.584087, 43.534884)" stroke="#000000" stroke-width="25">
                        <ellipse id="Oval" cx="141.506619" cy="140.718033" rx="140.659709" ry="140.605923"></ellipse>
                        <g id="Line" transform="translate(62.334562, 24.826975)">
                            <g id="path-29-link">
                                <path d="M0.0509708346,0.0462840455 L44.8063328,95.8407775" id="path-29"></path>
                            </g>
                        </g>
                        <g id="Line-Copy" transform="translate(116.680359, 0.860056)" fill="#000000" fill-rule="nonzero">
                            <g id="path-31-link">
                                <path d="M6.44459397,0.0467346813 L0.0509708346,107.032856" id="path-31"></path>
                            </g>
                        </g>
                        <g id="Line-Copy-2" transform="translate(160.803230, 55.498292) rotate(31.000000) translate(-160.803230, -55.498292) translate(158.303230, 0.998292)" fill="#000000" fill-rule="nonzero">
                            <g id="path-33-link" transform="translate(0.000000, 0.000000)">
                                <path d="M4.80914645,0.0245432939 L0.0139291009,108.619478" id="path-33"></path>
                            </g>
                        </g>
                        <g id="Line-2" transform="translate(154.294044, 47.196099)" fill="#000000" fill-rule="nonzero">
                            <g id="path-35-link" transform="translate(0.555866, 0.369793)">
                                <path d="M91.1038907,0.0495360291 L0.0476008621,55.9723464" id="path-35"></path>
                            </g>
                        </g>
                        <g id="Line-3" transform="translate(171.186911, 105.566552)" fill="#000000" fill-rule="nonzero">
                            <g id="path-37-link" transform="translate(0.599708, 0.045851)">
                                <path d="M108.632864,0 L0.0443939527,6.40600218" id="path-37"></path>
                            </g>
                        </g>
                        <g id="Line-4" transform="translate(180.733503, 127.994111)" fill="#000000" fill-rule="nonzero">
                            <g id="path-39-link" transform="translate(0.731235, 0.191936)">
                                <path d="M97.4489921,43.939351 L0.0446918187,0" id="path-39"></path>
                            </g>
                        </g>
                        <g id="Line-5" transform="translate(183.886472, 147.167824)" fill="#000000" fill-rule="nonzero">
                            <g id="path-41-link" transform="translate(0.804305, 0.367060)">
                                <path d="M62.3824966,85.4276083 L0.0446710685,0.0446350619" id="path-41"></path>
                            </g>
                        </g>
                        <g id="Line-6" transform="translate(175.044091, 169.653816)" fill="#000000" fill-rule="nonzero">
                            <g id="path-43-link" transform="translate(0.775077, 0.454711)">
                                <path d="M17.1782976,100.538792 L0.0431291677,0.0405663569" id="path-43"></path>
                            </g>
                        </g>
                        <g id="Line-7" transform="translate(126.270793, 179.973743)" fill="#000000" fill-rule="nonzero">
                            <g id="path-45-link" transform="translate(0.351268, 0.615405)">
                                <path d="M0.0429754096,99.7801432 L34.4086998,0.0429793652" id="path-45"></path>
                            </g>
                        </g>
                        <g id="Line-8" transform="translate(60.779820, 183.140115)" fill="#000000" fill-rule="nonzero">
                            <g id="path-47-link" transform="translate(0.514936, 0.673839)">
                                <path d="M0,72.7418041 L79.0149974,0.0421506575" id="path-47"></path>
                            </g>
                        </g>
                        <g id="Line-9" transform="translate(17.579200, 180.735940)" fill="#000000" fill-rule="nonzero">
                            <g id="path-49-link" transform="translate(0.164019, 0.659409)">
                                <path d="M0.0432373287,23.9669187 L99.0231376,0" id="path-49"></path>
                            </g>
                        </g>
                        <g id="Line-10" transform="translate(0.040400, 140.718033)" fill="#000000" fill-rule="nonzero">
                            <g id="path-51-link" transform="translate(0.766110, 0.367238)">
                                <path d="M0,0 L99.7941737,17.5757404" id="path-51"></path>
                            </g>
                        </g>
                        <g id="Line-11" transform="translate(16.830968, 75.150200)" fill="#000000" fill-rule="nonzero">
                            <g id="path-53-link" transform="translate(0.105741, 0.632746)">
                                <path d="M0,0.040428784 L78.2087219,58.359931" id="path-53"></path>
                            </g>
                        </g>
                        <g id="Oval" transform="translate(95.152851, 95.979785)">
                            <g id="path-55-link">
                                <ellipse id="path-55" cx="45.5545648" cy="45.5371456" rx="45.5545648" ry="45.5371456"></ellipse>
                            </g>
                        </g>
                    </g>
                    <g id="Fan-Right-Copy" transform="translate(114.524412, 43.534884)" stroke="#000000" stroke-width="25">
                        <ellipse id="Oval" cx="141.506619" cy="140.718033" rx="140.659709" ry="140.605923"></ellipse>
                        <g id="Line" transform="translate(62.334562, 24.826975)">
                            <g id="path-29-link">
                                <path d="M0.0509708346,0.0462840455 L44.8063328,95.8407775" id="path-29"></path>
                            </g>
                        </g>
                        <g id="Line-Copy" transform="translate(116.680359, 0.860056)" fill="#000000" fill-rule="nonzero">
                            <g id="path-31-link">
                                <path d="M6.44459397,0.0467346813 L0.0509708346,107.032856" id="path-31"></path>
                            </g>
                        </g>
                        <g id="Line-Copy-2" transform="translate(160.803230, 55.498292) rotate(31.000000) translate(-160.803230, -55.498292) translate(158.303230, 0.998292)" fill="#000000" fill-rule="nonzero">
                            <g id="path-33-link" transform="translate(0.000000, 0.000000)">
                                <path d="M4.80914645,0.0245432939 L0.0139291009,108.619478" id="path-33"></path>
                            </g>
                        </g>
                        <g id="Line-2" transform="translate(154.294044, 47.196099)" fill="#000000" fill-rule="nonzero">
                            <g id="path-35-link" transform="translate(0.555866, 0.369793)">
                                <path d="M91.1038907,0.0495360291 L0.0476008621,55.9723464" id="path-35"></path>
                            </g>
                        </g>
                        <g id="Line-3" transform="translate(171.186911, 105.566552)" fill="#000000" fill-rule="nonzero">
                            <g id="path-37-link" transform="translate(0.599708, 0.045851)">
                                <path d="M108.632864,0 L0.0443939527,6.40600218" id="path-37"></path>
                            </g>
                        </g>
                        <g id="Line-4" transform="translate(180.733503, 127.994111)" fill="#000000" fill-rule="nonzero">
                            <g id="path-39-link" transform="translate(0.731235, 0.191936)">
                                <path d="M97.4489921,43.939351 L0.0446918187,0" id="path-39"></path>
                            </g>
                        </g>
                        <g id="Line-5" transform="translate(183.886472, 147.167824)" fill="#000000" fill-rule="nonzero">
                            <g id="path-41-link" transform="translate(0.804305, 0.367060)">
                                <path d="M62.3824966,85.4276083 L0.0446710685,0.0446350619" id="path-41"></path>
                            </g>
                        </g>
                        <g id="Line-6" transform="translate(175.044091, 169.653816)" fill="#000000" fill-rule="nonzero">
                            <g id="path-43-link" transform="translate(0.775077, 0.454711)">
                                <path d="M17.1782976,100.538792 L0.0431291677,0.0405663569" id="path-43"></path>
                            </g>
                        </g>
                        <g id="Line-7" transform="translate(126.270793, 179.973743)" fill="#000000" fill-rule="nonzero">
                            <g id="path-45-link" transform="translate(0.351268, 0.615405)">
                                <path d="M0.0429754096,99.7801432 L34.4086998,0.0429793652" id="path-45"></path>
                            </g>
                        </g>
                        <g id="Line-8" transform="translate(60.779820, 183.140115)" fill="#000000" fill-rule="nonzero">
                            <g id="path-47-link" transform="translate(0.514936, 0.673839)">
                                <path d="M0,72.7418041 L79.0149974,0.0421506575" id="path-47"></path>
                            </g>
                        </g>
                        <g id="Line-9" transform="translate(17.579200, 180.735940)" fill="#000000" fill-rule="nonzero">
                            <g id="path-49-link" transform="translate(0.164019, 0.659409)">
                                <path d="M0.0432373287,23.9669187 L99.0231376,0" id="path-49"></path>
                            </g>
                        </g>
                        <g id="Line-10" transform="translate(0.040400, 140.718033)" fill="#000000" fill-rule="nonzero">
                            <g id="path-51-link" transform="translate(0.766110, 0.367238)">
                                <path d="M0,0 L99.7941737,17.5757404" id="path-51"></path>
                            </g>
                        </g>
                        <g id="Line-11" transform="translate(16.830968, 75.150200)" fill="#000000" fill-rule="nonzero">
                            <g id="path-53-link" transform="translate(0.105741, 0.632746)">
                                <path d="M0,0.040428784 L78.2087219,58.359931" id="path-53"></path>
                            </g>
                        </g>
                        <g id="Oval" transform="translate(95.152851, 95.979785)">
                            <g id="path-55-link">
                                <ellipse id="path-55" cx="45.5545648" cy="45.5371456" rx="45.5545648" ry="45.5371456"></ellipse>
                            </g>
                        </g>
                    </g>
                </g>
            </g>
            <path d="M159.010526,657.528517 C159.010526,659.661608 159.495902,661.358359 160.466667,662.618821 C161.437432,663.879284 163.281858,664.509506 166,664.509506 L166,668 L127.557895,668 L127.557895,664.509506 C130.276037,664.509506 132.120463,663.879284 133.091228,662.618821 C134.061993,661.358359 134.547368,659.661608 134.547368,657.528517 L134.547368,599.353612 L31.4526316,599.353612 L31.4526316,657.528517 C31.4526316,659.661608 31.9380068,661.358359 32.9087719,662.618821 C33.879537,663.879284 35.723963,664.509506 38.4421053,664.509506 L38.4421053,668 L0,668 L0,664.509506 C2.71814225,664.509506 4.56256825,663.879284 5.53333333,662.618821 C6.50409842,661.358359 6.98947368,659.661608 6.98947368,657.528517 L6.98947368,525.471483 C6.98947368,523.338392 6.50409842,521.641641 5.53333333,520.381179 C4.56256825,519.120716 2.71814225,518.490494 0,518.490494 L0,515 L38.4421053,515 L38.4421053,518.490494 C35.723963,518.490494 33.879537,519.120716 32.9087719,520.381179 C31.9380068,521.641641 31.4526316,523.338392 31.4526316,525.471483 L31.4526316,580.155894 L134.547368,580.155894 L134.547368,525.471483 C134.547368,523.338392 134.061993,521.641641 133.091228,520.381179 C132.120463,519.120716 130.276037,518.490494 127.557895,518.490494 L127.557895,515 L166,515 L166,518.490494 C163.281858,518.490494 161.437432,519.120716 160.466667,520.381179 C159.495902,521.641641 159.010526,523.338392 159.010526,525.471483 L159.010526,657.528517 Z M372.042105,629.604563 L372.042105,525.471483 C372.042105,523.338392 371.55673,521.641641 370.585965,520.381179 C369.6152,519.120716 367.770774,518.490494 365.052632,518.490494 L365.052632,515 L400,515 L400,518.490494 C397.281858,518.490494 395.437432,519.120716 394.466667,520.381179 C393.495902,521.641641 393.010526,523.338392 393.010526,525.471483 L393.010526,657.528517 C393.010526,659.661608 393.495902,661.358359 394.466667,662.618821 C395.437432,663.879284 397.281858,664.509506 400,664.509506 L400,668 L362.722807,668 L362.722807,664.509506 C366.605867,664.509506 368.547368,663.733848 368.547368,662.18251 C368.547368,660.825088 368.159068,659.71008 367.382456,658.837452 C366.605844,657.964825 366.023394,657.237645 365.635088,656.655894 L261.957895,538.851711 L261.957895,657.528517 C261.957895,659.661608 262.44327,661.358359 263.414035,662.618821 C264.3848,663.879284 266.229226,664.509506 268.947368,664.509506 L268.947368,668 L234,668 L234,664.509506 C236.718142,664.509506 238.562568,663.879284 239.533333,662.618821 C240.504098,661.358359 240.989474,659.661608 240.989474,657.528517 L240.989474,525.471483 C240.989474,523.338392 240.504098,521.641641 239.533333,520.381179 C238.562568,519.120716 236.718142,518.490494 234,518.490494 L234,515 L283.217544,515 L283.217544,518.490494 C281.081861,518.490494 279.625735,518.732887 278.849123,519.217681 C278.072511,519.702474 277.684211,520.52661 277.684211,521.690114 C277.684211,522.271866 277.926898,522.902088 278.412281,523.580798 C278.897663,524.259509 279.431576,524.889731 280.014035,525.471483 L371.459649,629.604563 L372.042105,629.604563 Z M477.451613,622.35514 C476.870965,623.707172 476.580645,624.962611 476.580645,626.121495 C476.580645,628.825559 478.274177,631.626154 481.66129,634.523364 C485.048404,637.420575 489.499972,640.076312 495.016129,642.490654 C500.532286,644.904996 506.774159,646.884727 513.741935,648.429907 C520.709712,649.975086 527.774158,650.747664 534.935484,650.747664 C553.322673,650.747664 566.628991,648.043641 574.854839,642.635514 C583.080686,637.227387 587.193548,630.274186 587.193548,621.775701 C587.193548,617.719606 586.17743,614.339577 584.145161,611.635514 C582.112893,608.931451 579.30647,606.855147 575.725806,605.406542 C572.145143,603.957937 567.983895,602.943928 563.241935,602.364486 C558.499976,601.785044 553.419382,601.495327 548,601.495327 C539.09673,601.495327 529.66134,601.447041 519.693548,601.350467 C509.725757,601.253894 500.580687,599.998454 492.258065,597.584112 C483.935442,595.16977 477.064543,591.162022 471.645161,585.560748 C466.225779,579.959474 463.516129,571.654261 463.516129,560.64486 C463.516129,553.691554 465.451594,547.366072 469.322581,541.668224 C473.193568,535.970376 478.467709,531.093478 485.145161,527.037383 C491.822614,522.981288 499.709632,519.794404 508.806452,517.476636 C517.903271,515.158867 527.77414,514 538.419355,514 C546.741977,514 553.951582,514.579433 560.048387,515.738318 C566.145192,516.897202 571.419333,518.152641 575.870968,519.504673 C580.322603,520.856705 583.999985,522.112144 586.903226,523.271028 C589.806466,524.429912 592.225797,525.009346 594.16129,525.009346 C596.290333,525.009346 597.838705,524.623057 598.806452,523.850467 C599.774198,523.077878 600.741931,522.208728 601.709677,521.242991 L605.193548,522.691589 L589.225806,556.009346 L586.032258,553.981308 C586.225807,553.401866 586.322581,552.146427 586.322581,550.214953 C586.322581,548.862922 585.161302,547.221193 582.83871,545.28972 C580.516117,543.358246 577.225828,541.475087 572.967742,539.640187 C568.709656,537.805287 563.629062,536.260131 557.725806,535.004673 C551.822551,533.749215 545.387132,533.121495 538.419355,533.121495 C522.741857,533.121495 510.306498,535.632374 501.112903,540.654206 C491.919309,545.676038 487.322581,552.24295 487.322581,560.35514 C487.322581,564.02494 488.3387,566.970394 490.370968,569.191589 C492.403236,571.412784 495.20966,573.151084 498.790323,574.406542 C502.370986,575.662 506.532234,576.482864 511.274194,576.869159 C516.016153,577.255454 521.096747,577.448598 526.516129,577.448598 C535.612949,577.448598 545.096725,577.593456 554.967742,577.883178 C564.838759,578.172899 573.935442,579.669768 582.258065,582.373832 C590.580687,585.077895 597.451586,589.423646 602.870968,595.411215 C608.29035,601.398784 611,610.186858 611,621.775701 C611,627.956417 609.403242,633.89561 606.209677,639.593458 C603.016113,645.291306 598.225838,650.361349 591.83871,654.803738 C585.451581,659.246128 577.564563,662.722729 568.177419,665.233645 C558.790276,667.744561 547.903288,669 535.516129,669 C525.064464,669 516.016167,668.179136 508.370968,666.537383 C500.725768,664.89563 494.193575,662.964186 488.774194,660.742991 C483.354812,658.521796 478.903243,656.493779 475.419355,654.658879 C471.935466,652.823978 469.129043,651.906542 467,651.906542 C465.064506,651.906542 463.032269,653.065409 460.903226,655.383178 L458,653.64486 L473.677419,620.327103 L477.451613,622.35514 Z M762.721068,582 C774.547042,582 782.88326,579.775742 787.72997,575.32716 C792.576681,570.878579 795,564.786047 795,557.049383 C795,549.506135 792.819013,543.945491 788.456973,540.367284 C784.094934,536.789077 775.516384,535 762.721068,535 L697,535 L697,582 L762.721068,582 Z M672.001919,525.471483 C672.001919,523.338392 671.51568,521.641641 670.543186,520.381179 C669.570693,519.120716 667.722982,518.490494 665,518.490494 L665,515 L763.026871,515 C782.282246,515 796.091449,518.587417 804.454894,525.762357 C812.81834,532.937298 817,543.020848 817,556.013308 C817,570.557107 812.866964,581.804143 804.600768,589.754753 C796.334572,597.705363 782.768488,601.680608 763.902111,601.680608 L696.508637,601.680608 L696.508637,657.528517 C696.508637,659.661608 696.994877,661.358359 697.96737,662.618821 C698.939864,663.879284 700.787574,664.509506 703.510557,664.509506 L703.510557,668 L665,668 L665,664.509506 C667.722982,664.509506 669.570693,663.879284 670.543186,662.618821 C671.51568,661.358359 672.001919,659.661608 672.001919,657.528517 L672.001919,525.471483 Z M929,555 C920.677378,555 913.177453,556.261752 906.5,558.785294 C899.822547,561.308836 894.161314,564.802919 889.516129,569.267647 C884.870945,573.732375 881.290335,578.973499 878.774194,584.991176 C876.258052,591.008854 875,597.414672 875,604.208824 C875,611.197094 876.258052,617.69997 878.774194,623.717647 C881.290335,629.735324 884.870945,634.976448 889.516129,639.441176 C894.161314,643.905905 899.822547,647.448516 906.5,650.069118 C913.177453,652.689719 920.677378,654 929,654 C937.322622,654 944.822547,652.689719 951.5,650.069118 C958.177453,647.448516 963.838686,643.905905 968.483871,639.441176 C973.129055,634.976448 976.709665,629.735324 979.225806,623.717647 C981.741948,617.69997 983,611.197094 983,604.208824 C983,597.414672 981.741948,591.008854 979.225806,584.991176 C976.709665,578.973499 973.129055,573.732375 968.483871,569.267647 C963.838686,564.802919 958.177453,561.308836 951.5,558.785294 C944.822547,556.261752 937.322622,555 929,555 Z M928.5,539 C939.777834,539 949.937455,540.737176 958.979167,544.211581 C968.020879,547.685986 975.749968,552.366711 982.166667,558.253898 C988.583365,564.141084 993.493039,571.041534 996.895833,578.955457 C1000.29863,586.869379 1002,595.362241 1002,604.434298 C1002,613.506356 1000.29863,621.999218 996.895833,629.91314 C993.493039,637.827063 988.583365,644.727513 982.166667,650.614699 C975.749968,656.501885 968.020879,661.037846 958.979167,664.222717 C949.937455,667.407588 939.777834,669 928.5,669 C917.222166,669 907.062545,667.407588 898.020833,664.222717 C888.979121,661.037846 881.250032,656.501885 874.833333,650.614699 C868.416635,644.727513 863.506961,637.827063 860.104167,629.91314 C856.701372,621.999218 855,613.506356 855,604.434298 C855,595.362241 856.701372,586.869379 860.104167,578.955457 C863.506961,571.041534 868.416635,564.141084 874.833333,558.253898 C881.250032,552.366711 888.979121,547.685986 898.020833,544.211581 C907.062545,540.737176 917.222166,539 928.5,539 Z M1114,555 C1105.67738,555 1098.17745,556.261752 1091.5,558.785294 C1084.82255,561.308836 1079.16131,564.802919 1074.51613,569.267647 C1069.87094,573.732375 1066.29034,578.973499 1063.77419,584.991176 C1061.25805,591.008854 1060,597.414672 1060,604.208824 C1060,611.197094 1061.25805,617.69997 1063.77419,623.717647 C1066.29034,629.735324 1069.87094,634.976448 1074.51613,639.441176 C1079.16131,643.905905 1084.82255,647.448516 1091.5,650.069118 C1098.17745,652.689719 1105.67738,654 1114,654 C1122.32262,654 1129.82255,652.689719 1136.5,650.069118 C1143.17745,647.448516 1148.83869,643.905905 1153.48387,639.441176 C1158.12906,634.976448 1161.70966,629.735324 1164.22581,623.717647 C1166.74195,617.69997 1168,611.197094 1168,604.208824 C1168,597.414672 1166.74195,591.008854 1164.22581,584.991176 C1161.70966,578.973499 1158.12906,573.732375 1153.48387,569.267647 C1148.83869,564.802919 1143.17745,561.308836 1136.5,558.785294 C1129.82255,556.261752 1122.32262,555 1114,555 Z M1113.5,539 C1124.77783,539 1134.93745,540.737176 1143.97917,544.211581 C1153.02088,547.685986 1160.74997,552.366711 1167.16667,558.253898 C1173.58337,564.141084 1178.49304,571.041534 1181.89583,578.955457 C1185.29863,586.869379 1187,595.362241 1187,604.434298 C1187,613.506356 1185.29863,621.999218 1181.89583,629.91314 C1178.49304,637.827063 1173.58337,644.727513 1167.16667,650.614699 C1160.74997,656.501885 1153.02088,661.037846 1143.97917,664.222717 C1134.93745,667.407588 1124.77783,669 1113.5,669 C1102.22217,669 1092.06255,667.407588 1083.02083,664.222717 C1073.97912,661.037846 1066.25003,656.501885 1059.83333,650.614699 C1053.41663,644.727513 1048.50696,637.827063 1045.10417,629.91314 C1041.70137,621.999218 1040,613.506356 1040,604.434298 C1040,595.362241 1041.70137,586.869379 1045.10417,578.955457 C1048.50696,571.041534 1053.41663,564.141084 1059.83333,558.253898 C1066.25003,552.366711 1073.97912,547.685986 1083.02083,544.211581 C1092.06255,540.737176 1102.22217,539 1113.5,539 Z M1360.52055,674 C1360.52055,671.87508 1360.0373,670.426293 1359.07078,669.653595 C1358.10426,668.880897 1356.17125,668.494553 1353.27169,668.494553 L1237,668.494553 L1237,665.017429 C1240.09286,665.017429 1242.0742,664.486207 1242.94406,663.423747 C1243.81393,662.361287 1244.24886,660.188106 1244.24886,656.904139 L1244.24886,552.590414 C1244.24886,549.306447 1243.81393,547.133266 1242.94406,546.070806 C1242.0742,545.008346 1240.09286,544.477124 1237,544.477124 L1237,541 L1269.47489,541 L1269.47489,544.477124 C1266.38202,544.477124 1264.40069,545.008346 1263.53082,546.070806 C1262.66095,547.133266 1262.22603,549.306447 1262.22603,552.590414 L1262.22603,652.267974 L1353.27169,652.267974 C1356.17125,652.267974 1358.10426,651.640166 1359.07078,650.384532 C1360.0373,649.128897 1360.52055,646.85913 1360.52055,643.575163 L1364,643.575163 L1364,674 L1360.52055,674 Z" id="HNSPool" fill="#000000" fill-rule="nonzero"></path>
        </g>
    </g>
</svg>