<?xml version="1.0" encoding="UTF-8"?>
<svg width="451px" height="79px" viewBox="0 0 451 79" version="1.1" xmlns="http://www.w3.org/2000/svg" xmlns:xlink="http://www.w3.org/1999/xlink">
    <!-- Generator: Sketch 53.2 (72643) - https://sketchapp.com -->
    <title>Group 2</title>
    <desc>Created with Sketch.</desc>
    <g id="Page-1" stroke="none" stroke-width="1" fill="none" fill-rule="evenodd">
        <g id="Honeycomb" transform="translate(-586.000000, -686.000000)">
            <g id="Group-2" transform="translate(586.000000, 686.000000)">
                <polygon id="Path-Copy" fill="#F7B733" points="54 74 394 74 394 79 54 79"></polygon>
                <g id="MYPROJECTS" transform="translate(0.812500, 0.900000)" fill-rule="nonzero">
                    <path d="M1.2,53.1 C0.399996,53.1 0,52.700004 0,51.9 L0,1.8 C0,0.999996 0.399996,0.6 1.2,0.6 L7.575,0.6 C8.2750035,0.6 8.7749985,0.87499725 9.075,1.425 L20.775,20.325 C20.8750005,20.4750008 20.9874994,20.55 21.1125,20.55 C21.2375006,20.55 21.3249997,20.4750008 21.375,20.325 L33.225,1.425 C33.5250015,0.87499725 34.0249965,0.6 34.725,0.6 L41.025,0.6 C41.825004,0.6 42.225,0.999996 42.225,1.8 L42.225,51.9 C42.225,52.700004 41.825004,53.1 41.025,53.1 L34.725,53.1 C33.924996,53.1 33.525,52.700004 33.525,51.9 L33.525,16.425 C33.525,16.224999 33.4625006,16.1000003 33.3375,16.05 C33.2124994,15.9999998 33.1000005,16.074999 33,16.275 L24.075,30.9 C23.7749985,31.4500028 23.2750035,31.725 22.575,31.725 L19.65,31.725 C18.9499965,31.725 18.4500015,31.4500028 18.15,30.9 L9.225,16.275 C9.1249995,16.074999 9.01250062,15.9999998 8.8875,16.05 C8.76249937,16.1000003 8.7,16.224999 8.7,16.425 L8.7,51.9 C8.7,52.700004 8.300004,53.1 7.5,53.1 L1.2,53.1 Z M67.275,53.025 C66.474996,53.025 66.075,52.625004 66.075,51.825 L66.075,32.1 C66.075,31.9499993 66.0250005,31.775001 65.925,31.575 L50.775,2.025 C50.6249993,1.77499875 50.55,1.550001 50.55,1.35 C50.55,0.8499975 50.8999965,0.6 51.6,0.6 L58.425,0.6 C59.0750033,0.6 59.5499985,0.899997 59.85,1.5 L70.125,22.125 C70.2250005,22.2750008 70.3374994,22.35 70.4625,22.35 C70.5875006,22.35 70.6749998,22.2750008 70.725,22.125 L81.075,1.5 C81.3750015,0.899997 81.8499968,0.6 82.5,0.6 L89.4,0.6 C90.1000035,0.6 90.45,0.8499975 90.45,1.35 C90.45,1.550001 90.3750008,1.77499875 90.225,2.025 L74.925,31.575 C74.8249995,31.8750015 74.775,32.0499998 74.775,32.1 L74.775,51.825 C74.775,52.625004 74.375004,53.025 73.575,53.025 L67.275,53.025 Z" id="MY" fill="#DDDDDD"></path>
                    <path d="M119.1,0.525 C122.250016,0.525 125.024988,1.1749935 127.425,2.475 C129.825012,3.7750065 131.687493,5.61248812 133.0125,7.9875 C134.337507,10.3625119 135,13.0999845 135,16.2 C135,19.2500152 134.325007,21.9499882 132.975,24.3 C131.624993,26.6500117 129.712512,28.4624936 127.2375,29.7375 C124.762488,31.0125064 121.900016,31.65 118.65,31.65 L106.725,31.65 C106.424999,31.65 106.275,31.7999985 106.275,32.1 L106.275,51.9 C106.275,52.700004 105.875004,53.1 105.075,53.1 L98.775,53.1 C97.974996,53.1 97.575,52.700004 97.575,51.9 L97.575,1.725 C97.575,0.924996 97.974996,0.525 98.775,0.525 L119.1,0.525 Z M117.825,24.6 C120.375013,24.6 122.424992,23.8500075 123.975,22.35 C125.525008,20.8499925 126.3,18.8750122 126.3,16.425 C126.3,13.9249875 125.525008,11.9000078 123.975,10.35 C122.424992,8.79999225 120.375013,8.025 117.825,8.025 L106.725,8.025 C106.424999,8.025 106.275,8.1749985 106.275,8.475 L106.275,24.15 C106.275,24.4500015 106.424999,24.6 106.725,24.6 L117.825,24.6 Z M172.65,53.1 C171.949997,53.1 171.475001,52.800003 171.225,52.2 L161.4,30.75 C161.35,30.549999 161.175002,30.45 160.875,30.45 L152.1,30.45 C151.799999,30.45 151.65,30.5999985 151.65,30.9 L151.65,51.9 C151.65,52.700004 151.250004,53.1 150.45,53.1 L144.15,53.1 C143.349996,53.1 142.95,52.700004 142.95,51.9 L142.95,1.725 C142.95,0.924996 143.349996,0.525 144.15,0.525 L164.475,0.525 C167.525015,0.525 170.224988,1.16249363 172.575,2.4375 C174.925012,3.71250638 176.749994,5.51248837 178.05,7.8375 C179.350007,10.1625116 180,12.824985 180,15.825 C180,19.2750172 179.112509,22.2124879 177.3375,24.6375 C175.562491,27.0625121 173.125016,28.7249955 170.025,29.625 C169.874999,29.6750002 169.775,29.7624994 169.725,29.8875 C169.675,30.0125006 169.7,30.1249995 169.8,30.225 L180.15,51.675 L180.3,52.275 C180.3,52.8250027 179.950004,53.1 179.25,53.1 L172.65,53.1 Z M152.1,8.025 C151.799999,8.025 151.65,8.1749985 151.65,8.475 L151.65,23.25 C151.65,23.5500015 151.799999,23.7 152.1,23.7 L163.275,23.7 C165.675012,23.7 167.612493,22.9875071 169.0875,21.5625 C170.562507,20.1374929 171.3,18.2750115 171.3,15.975 C171.3,13.6249883 170.562507,11.7125074 169.0875,10.2375 C167.612493,8.76249262 165.675012,8.025 163.275,8.025 L152.1,8.025 Z M207,53.85 C203.249981,53.85 199.925015,53.0875076 197.025,51.5625 C194.124986,50.0374924 191.887508,47.875014 190.3125,45.075 C188.737492,42.274986 187.95,39.0500182 187.95,35.4 L187.95,18.3 C187.95,14.699982 188.749992,11.5125139 190.35,8.7375 C191.950008,5.96248612 194.187486,3.81250762 197.0625,2.2875 C199.937514,0.762492375 203.249981,0 207,0 C210.800019,0 214.137486,0.762492375 217.0125,2.2875 C219.887514,3.81250762 222.124992,5.96248612 223.725,8.7375 C225.325008,11.5125139 226.125,14.699982 226.125,18.3 L226.125,35.4 C226.125,39.0500182 225.325008,42.274986 223.725,45.075 C222.124992,47.875014 219.887514,50.0374924 217.0125,51.5625 C214.137486,53.0875076 210.800019,53.85 207,53.85 Z M207,46.35 C210.150016,46.35 212.674991,45.3750098 214.575,43.425 C216.47501,41.4749902 217.425,38.900016 217.425,35.7 L217.425,18.225 C217.425,14.9749837 216.47501,12.3750097 214.575,10.425 C212.674991,8.47499025 210.150016,7.5 207,7.5 C203.899985,7.5 201.40001,8.47499025 199.5,10.425 C197.599991,12.3750097 196.65,14.9749837 196.65,18.225 L196.65,35.7 C196.65,38.900016 197.599991,41.4749902 199.5,43.425 C201.40001,45.3750098 203.899985,46.35 207,46.35 Z M250.725,53.7 C247.074982,53.7 243.862514,53.0125069 241.0875,51.6375 C238.312486,50.2624931 236.150008,48.3250125 234.6,45.825 C233.049992,43.3249875 232.275,40.4250165 232.275,37.125 L232.275,34.275 C232.275,33.474996 232.674996,33.075 233.475,33.075 L239.775,33.075 C240.575004,33.075 240.975,33.474996 240.975,34.275 L240.975,37.125 C240.975,39.8250135 241.874991,42.0124916 243.675,43.6875 C245.475009,45.3625084 247.824986,46.2 250.725,46.2 C253.625015,46.2 255.974991,45.3625084 257.775,43.6875 C259.575009,42.0124916 260.475,39.8250135 260.475,37.125 L260.475,1.8 C260.475,0.999996 260.874996,0.6 261.675,0.6 L267.975,0.6 C268.775004,0.6 269.175,0.999996 269.175,1.8 L269.175,37.125 C269.175,40.4250165 268.400008,43.3249875 266.85,45.825 C265.299992,48.3250125 263.137514,50.2624931 260.3625,51.6375 C257.587486,53.0125069 254.375018,53.7 250.725,53.7 Z M315.975,6.9 C315.975,7.700004 315.575004,8.1 314.775,8.1 L289.575,8.1 C289.274999,8.1 289.125,8.2499985 289.125,8.55 L289.125,22.425 C289.125,22.7250015 289.274999,22.875 289.575,22.875 L306.375,22.875 C307.175004,22.875 307.575,23.274996 307.575,24.075 L307.575,29.175 C307.575,29.975004 307.175004,30.375 306.375,30.375 L289.575,30.375 C289.274999,30.375 289.125,30.5249985 289.125,30.825 L289.125,45.15 C289.125,45.4500015 289.274999,45.6 289.575,45.6 L314.775,45.6 C315.575004,45.6 315.975,45.999996 315.975,46.8 L315.975,51.9 C315.975,52.700004 315.575004,53.1 314.775,53.1 L281.625,53.1 C280.824996,53.1 280.425,52.700004 280.425,51.9 L280.425,1.8 C280.425,0.999996 280.824996,0.6 281.625,0.6 L314.775,0.6 C315.575004,0.6 315.975,0.999996 315.975,1.8 L315.975,6.9 Z M342.675,53.7 C338.924981,53.7 335.625014,52.9625074 332.775,51.4875 C329.924986,50.0124926 327.725008,47.9500132 326.175,45.3 C324.624992,42.6499867 323.85,39.5750175 323.85,36.075 L323.85,17.55 C323.85,14.0499825 324.624992,10.9750133 326.175,8.325 C327.725008,5.67498675 329.924986,3.62500725 332.775,2.175 C335.625014,0.72499275 338.924981,0 342.675,0 C346.375019,0 349.649986,0.699993 352.5,2.1 C355.350014,3.500007 357.549992,5.47498725 359.1,8.025 C360.650008,10.5750127 361.425,13.5249832 361.425,16.875 C361.425,17.3750025 361.050004,17.6749995 360.3,17.775 L353.925,18.15 L353.625,18.15 C353.024997,18.15 352.725,18.0250013 352.725,17.775 L352.725,17.325 C352.725,14.3749852 351.812509,12.000009 349.9875,10.2 C348.162491,8.399991 345.725015,7.5 342.675,7.5 C339.624985,7.5 337.175009,8.399991 335.325,10.2 C333.474991,12.000009 332.55,14.3749852 332.55,17.325 L332.55,36.45 C332.55,39.3500145 333.474991,41.699991 335.325,43.5 C337.175009,45.300009 339.624985,46.2 342.675,46.2 C345.725015,46.2 348.162491,45.3125089 349.9875,43.5375 C351.812509,41.7624911 352.725,39.4000147 352.725,36.45 C352.725,36.1999987 352.837499,35.9875009 353.0625,35.8125 C353.287501,35.6374991 353.574998,35.5749997 353.925,35.625 L360.225,35.925 C361.025004,36.0250005 361.425,36.1499992 361.425,36.3 L361.425,36.675 C361.425,40.075017 360.650008,43.0624871 359.1,45.6375 C357.549992,48.2125129 355.350014,50.199993 352.5,51.6 C349.649986,53.000007 346.375019,53.7 342.675,53.7 Z M404.625,0.6 C405.425004,0.6 405.825,0.999996 405.825,1.8 L405.825,6.975 C405.825,7.775004 405.425004,8.175 404.625,8.175 L391.2,8.175 C390.899999,8.175 390.75,8.3249985 390.75,8.625 L390.75,51.9 C390.75,52.700004 390.350004,53.1 389.55,53.1 L383.25,53.1 C382.449996,53.1 382.05,52.700004 382.05,51.9 L382.05,8.625 C382.05,8.3249985 381.900002,8.175 381.6,8.175 L368.7,8.175 C367.899996,8.175 367.5,7.775004 367.5,6.975 L367.5,1.8 C367.5,0.999996 367.899996,0.6 368.7,0.6 L404.625,0.6 Z M430.65,53.7 C426.849981,53.7 423.512514,53.0750063 420.6375,51.825 C417.762486,50.5749937 415.550008,48.8125114 414,46.5375 C412.449992,44.2624886 411.675,41.625015 411.675,38.625 L411.675,37.05 C411.675,36.249996 412.074996,35.85 412.875,35.85 L419.025,35.85 C419.825004,35.85 420.225,36.2249962 420.225,36.975 L420.225,38.175 C420.225,40.4750115 421.23749,42.3874924 423.2625,43.9125 C425.28751,45.4375076 427.974983,46.2 431.325,46.2 C434.375015,46.2 436.674992,45.5500065 438.225,44.25 C439.775008,42.9499935 440.55,41.2750102 440.55,39.225 C440.55,37.824993 440.125004,36.6375049 439.275,35.6625 C438.424996,34.6874951 437.212508,33.800004 435.6375,33 C434.062492,32.199996 431.700016,31.200006 428.55,30 C424.999982,28.6999935 422.125011,27.4750057 419.925,26.325 C417.724989,25.1749942 415.887507,23.6125099 414.4125,21.6375 C412.937493,19.6624901 412.2,17.2000147 412.2,14.25 C412.2,9.849978 413.799984,6.37501275 417,3.825 C420.200016,1.27498725 424.474973,0 429.825,0 C433.575019,0 436.887486,0.6499935 439.7625,1.95 C442.637514,3.2500065 444.874992,5.06248838 446.475,7.3875 C448.075008,9.71251162 448.875,12.3999847 448.875,15.45 L448.875,16.425 C448.875,17.225004 448.475004,17.625 447.675,17.625 L441.525,17.625 C441.174998,17.625 440.887501,17.5375009 440.6625,17.3625 C440.437499,17.1874991 440.325,16.9750012 440.325,16.725 L440.325,15.9 C440.325,13.5499882 439.36251,11.5625081 437.4375,9.9375 C435.51249,8.31249187 432.850017,7.5 429.45,7.5 C426.699986,7.5 424.562508,8.07499425 423.0375,9.225 C421.512492,10.3750057 420.75,11.9999895 420.75,14.1 C420.75,15.6000075 421.149996,16.8249953 421.95,17.775 C422.750004,18.7250047 423.949992,19.5874961 425.55,20.3625 C427.150008,21.1375039 429.624983,22.124994 432.975,23.325 C436.525018,24.6750067 439.362489,25.8999945 441.4875,27 C443.612511,28.1000055 445.437492,29.6374901 446.9625,31.6125 C448.487508,33.5875099 449.25,36.0499852 449.25,39 C449.25,41.9000145 448.500008,44.4624889 447,46.6875 C445.499993,48.9125111 443.350014,50.6374939 440.55,51.8625 C437.749986,53.0875061 434.450019,53.7 430.65,53.7 Z" id="PROJECTS" fill="#979797"></path>
                </g>
            </g>
        </g>
    </g>
</svg>