<?xml version="1.0" encoding="UTF-8"?>
<svg width="1004px" height="803px" viewBox="0 0 1004 803" version="1.1" xmlns="http://www.w3.org/2000/svg" xmlns:xlink="http://www.w3.org/1999/xlink">
    <!-- Generator: Sketch 53.2 (72643) - https://sketchapp.com -->
    <title>Urkel BCH</title>
    <desc>Created with Sketch.</desc>
    <g id="Page-1" stroke="none" stroke-width="1" fill="none" fill-rule="evenodd">
        <g id="Urkel-BCH" fill="#000000">
            <path d="M443.643359,222.825057 C453.622898,209.365878 477.330148,206.243052 503.127734,222.825057 C543.155078,248.553572 554.008594,209.365878 566.346484,222.825057 C574.571745,231.797842 625.418322,320.702264 718.886216,489.538324 C734.657712,516.440369 727.681916,552.358699 703.305339,569.764158 C694.797986,575.838612 684.881204,579.070312 674.748518,579.070312 L330.535461,579.070312 C301.70042,579.070312 278.325,555.296653 278.325,525.970358 C278.325,516.80393 282.647015,503.744871 287.086273,495.767454 C291.525531,487.790036 414.90553,261.583118 443.643359,222.825057 Z" id="Triangle" fill-opacity="0.85"></path>
            <path d="M373.430469,0 L370.754688,3.0390625 L370.754688,6.29492188 L372.092578,10.5234375 L378.739063,12.5507812 L385.023242,13.9882813 L390.203906,15.765625 L394.883594,18.6640625 L400.832813,24.9121094 L407.086719,32.7539063 L409.780078,37.2714844 L412.719531,42.1757813 L412.719531,48.0664063 L412.719531,197.830078 L253.395312,470.238281 C246.00013,487.684245 241.818815,499.201172 240.851367,504.789063 C239.400195,513.170898 238.32793,518.469727 238.32793,524.358398 C238.32793,530.24707 239.14149,547.441068 242.302539,555.913086 C245.463588,564.385104 251.20014,578.145392 258.110156,585.237305 C262.716833,589.965246 267.628943,594.302161 272.846484,598.248047 C280.705208,603.005208 286.518685,606.257487 290.286914,608.004883 C295.939258,610.625977 300.679492,612.701172 309.616016,615.268555 C318.552539,617.835938 330.954883,617.781251 341.027148,618.155273 C347.741992,618.404622 382.655729,618.404622 445.768359,618.155273 L657.35918,618.155273 L682.554492,618.155273 L685.489063,618.155273 L690.139453,617.781251 L695.861133,616.78125 L705.178516,613.96875 L713.524219,610.625977 L723.871875,605.835938 L734.364063,599.793945 L743.236133,591.663086 L754.449023,577.71875 L761.00957,565.369141 L764.487109,555.913086 L766.468555,548.405273 L767.927539,540.959961 L767.927539,533.662109 L767.927539,524.358398 L767.927539,518.469727 L767.169651,512.636928 L766.468555,507.241211 L764.487109,500.120117 L761.00957,489.950195 L759.019336,483.414063 L756.19707,476.570313 L741.908984,449.480469 L667.860156,320.905273 L599.475391,202.734375 L594.607227,195.801758 L594.607227,44.4599609 L596.130664,40.3808594 L599.475391,32.7539063 L602.579883,28.3105469 L605.419727,24.9121094 L610.753711,19.9990234 L615.325977,17.0859375 L621.729297,13.9882813 L627.968555,12.5507812 L634.284961,10.5234375 L636.129688,8.98632812 L637.593555,6.29492188 L637.593555,3.0390625 L636.129688,1.5078125 L632.987109,0 L627.968555,0 L618.821094,0 L612.167773,0 L606.995898,0 L596.130664,0 L591.744922,8.98632812 L586.992969,18.6640625 L582.585742,24.9121094 L578.439258,34.234375 L576.946094,37.2714844 L576.946094,40.3808594 L576.946094,121.541992 L576.946094,202.734375 L594.607227,231.174805 L640.903125,312.148437 L702.475391,420.338867 L734.364063,476.570313 C736.06595,479.5029 738.073111,483.962861 740.385547,489.950195 C743.8542,498.931197 748.067188,515.054688 748.067188,524.358398 C748.067188,533.662109 746.820117,536.756836 745.028125,545.469727 C743.236133,554.182617 742.754687,555.039063 736.657031,565.369141 C730.559375,575.699219 722.348736,582.198711 715.519336,587.297852 C707.011646,593.65008 696.348436,597.737631 690.139453,598.248047 C677.368454,599.297901 637.008428,601.843799 584.229297,600.793946 C429.801014,600.846881 349.790272,600.846881 344.19707,600.793946 C335.807268,600.714542 320.880664,599.793945 315.35918,598.248047 C309.837695,596.702148 299.226367,592.504883 292.493945,588.871094 C285.761523,585.237305 278.196094,577.71875 275.00957,574.755859 C271.823047,571.792969 267.979365,568.119944 263.85918,560.09375 C259.738995,552.067556 259.386784,551.21426 258.110156,543.612305 C256.833529,536.010349 256.33701,532.120182 256.627734,524.358398 C256.821551,519.183876 257.747983,514.060504 259.407031,508.988281 L262.396289,498.727539 L265.164844,491.558594 L269.943164,480.665039 L277.283984,467.734375 L317.307422,396.908203 L393.518359,265.001953 L431.013477,202.734375 L431.013477,42.1757813 L429.555469,37.2714844 L427.413867,32.7539063 L424.088672,24.9121094 L420.455859,18.6640625 L586.992969,18.6640625 L596.130664,0 L445.768359,0 L412.719531,0 L393.518359,0 L388.938281,0 L383.100391,0 L378.739063,0 L373.430469,0 Z" id="Path"></path>
            <path d="M505.158233,125.903546 C515.651643,125.903546 524.158233,117.396956 524.158233,106.903546 C524.158233,96.4101355 515.651643,87.9035457 505.158233,87.9035457 C494.664823,87.9035457 486.158233,96.4101355 486.158233,106.903546 C486.158233,120.338575 491.723204,125.903546 505.158233,125.903546 Z" id="Oval-Copy" fill-opacity="0.85" transform="translate(505.158233, 106.903546) rotate(-48.000000) translate(-505.158233, -106.903546) "></path>
            <path d="M477.474355,175.719667 C484.377914,175.719667 489.974355,170.123227 489.974355,163.219667 C489.974355,156.316108 484.377914,150.719667 477.474355,150.719667 C470.570795,150.719667 464.974355,156.316108 464.974355,163.219667 C464.974355,172.058502 468.63552,175.719667 477.474355,175.719667 Z" id="Oval-Copy-2" fill-opacity="0.85" transform="translate(477.474355, 163.219667) rotate(111.000000) translate(-477.474355, -163.219667) "></path>
            <path d="M486.474355,56.7196672 C493.377914,56.7196672 498.974355,51.1232266 498.974355,44.2196672 C498.974355,37.3161078 493.377914,31.7196672 486.474355,31.7196672 C479.570795,31.7196672 473.974355,37.3161078 473.974355,44.2196672 C473.974355,53.058502 477.63552,56.7196672 486.474355,56.7196672 Z" id="Oval-Copy-5" fill-opacity="0.85" transform="translate(486.474355, 44.219667) rotate(111.000000) translate(-486.474355, -44.219667) "></path>
            <rect id="Rectangle-Copy" x="532.325" y="129.070312" width="52" height="13" rx="6.5"></rect>
            <rect id="Rectangle-Copy-3" x="532.325" y="74.0703125" width="52" height="13" rx="6.5"></rect>
            <rect id="Rectangle-Copy-2" x="532.325" y="184.070312" width="52" height="13" rx="6.5"></rect>
            <rect id="Rectangle-Copy-4" x="558.325" y="239.070312" width="52" height="13" rx="6.5"></rect>
            <path d="M28.7,710.170312 C26.1333205,710.170312 24.85,711.220302 24.85,713.320312 L24.85,765.820312 C24.85,773.170349 27.2124764,778.216132 31.9375,780.957812 C36.6625236,783.699493 43.5749545,785.070312 52.675,785.070312 C61.7750455,785.070312 68.6874764,783.699493 73.4125,780.957812 C78.1375236,778.216132 80.5,773.170349 80.5,765.820312 L80.5,713.320312 C80.5,711.220302 78.7500175,710.170312 75.25,710.170312 L75.25,707.020312 L103.25,707.020312 L103.25,710.170312 C100.449986,710.170312 99.05,711.220302 99.05,713.320312 L99.05,764.945312 C99.05,771.82868 98.0583433,777.516123 96.075,782.007812 C94.0916567,786.499502 91.1166865,790.086966 87.15,792.770312 C83.1833135,795.453659 78.2541961,797.261974 72.3625,798.195312 C66.4708039,799.12865 59.6750385,799.595312 51.975,799.595312 C44.2749615,799.595312 37.4791961,799.12865 31.5875,798.195312 C25.6958039,797.261974 20.7666865,795.453659 16.8,792.770312 C12.8333135,790.086966 9.85834325,786.499502 7.875,782.007812 C5.89165675,777.516123 4.9,771.82868 4.9,764.945312 L4.9,713.320312 C4.9,711.220302 3.266683,710.170312 0,710.170312 L0,707.020312 L28.7,707.020312 L28.7,710.170312 Z M180.775,755.320312 C192.208391,755.320312 197.925,751.703682 197.925,744.470312 C197.925,741.553631 196.55418,739.249488 193.8125,737.557812 C191.07082,735.866137 186.72503,735.020312 180.775,735.020312 L153.125,735.020312 L153.125,755.320312 L180.775,755.320312 Z M181.125,722.070312 C191.508385,722.070312 199.616637,723.791129 205.45,727.232812 C211.283362,730.674496 214.2,736.536938 214.2,744.820312 C214.2,747.970328 213.616672,750.7703 212.45,753.220312 C211.283327,755.670325 209.73751,757.79947 207.8125,759.607812 C205.88749,761.416155 203.758345,762.874474 201.425,763.982812 C199.091655,765.091151 196.700012,765.936976 194.25,766.520312 L211.4,791.545312 C212.333338,792.828652 213.354161,793.791143 214.4625,794.432812 C215.570839,795.074482 216.76666,795.570311 218.05,795.920312 L218.05,799.070312 L191.275,799.070312 L191.275,795.920312 C192.791674,795.920312 193.55,795.395318 193.55,794.345312 C193.55,793.17864 192.675009,791.370325 190.925,788.920312 L177.1,768.270312 L152.775,768.270312 L152.775,793.295312 C152.775,794.22865 153.154163,794.899477 153.9125,795.307812 C154.670837,795.716148 155.399996,795.920312 156.1,795.920312 L156.1,799.070312 L132.825,799.070312 L132.825,795.920312 C134.92501,795.920312 135.975,795.045321 135.975,793.295312 L135.975,727.845312 C135.975,726.095304 134.92501,725.220312 132.825,725.220312 L132.825,722.070312 L181.125,722.070312 Z M263.025,793.295312 C263.025,795.045321 264.133322,795.920312 266.35,795.920312 L266.35,799.070312 L243.425,799.070312 L243.425,795.920312 C245.291676,795.920312 246.225,795.045321 246.225,793.295312 L246.225,727.845312 C246.225,726.095304 245.291676,725.220312 243.425,725.220312 L243.425,722.070312 L266.35,722.070312 L266.35,725.220312 C264.133322,725.220312 263.025,726.095304 263.025,727.845312 L263.025,756.370312 C266.991687,753.103629 271.074979,749.807829 275.275,746.482812 C279.475021,743.157796 283.26665,740.095326 286.65,737.295312 C290.03335,734.495298 292.833322,732.132822 295.05,730.207812 C297.266678,728.282803 298.375,727.086981 298.375,726.620312 C298.375,726.036976 298.05417,725.570314 297.4125,725.220312 C296.77083,724.870311 296.158336,724.695312 295.575,724.695312 L295.575,722.070312 L324.45,722.070312 L324.45,725.220312 C323.049993,725.686981 320.950014,727.028635 318.15,729.245312 L288.925,752.870312 L316.575,787.170312 C317.975007,788.920321 319.491659,790.69947 321.125,792.507812 C322.758342,794.316155 324.391659,795.453643 326.025,795.920312 L326.025,799.070312 L300.125,799.070312 L300.125,795.920312 C301.40834,795.920312 302.05,795.570316 302.05,794.870312 C302.05,794.403643 301.787503,793.761983 301.2625,792.945312 C300.737497,792.128642 299.716674,790.845321 298.2,789.095312 L276.675,762.845312 L263.025,773.695312 L263.025,793.295312 Z M414.05,738.345312 C414.05,736.128635 412.241685,735.020312 408.625,735.020312 L365.925,735.020312 L365.925,752.520312 L392.875,752.520312 C394.858343,752.520312 396.316662,752.374481 397.25,752.082812 C398.183338,751.791144 398.65,751.003652 398.65,749.720312 L401.8,749.720312 L401.8,768.270312 L398.3,768.270312 C398.650002,766.986973 398.18334,766.199481 396.9,765.907812 C395.61666,765.616144 393.808345,765.470312 391.475,765.470312 L365.925,765.470312 L365.925,786.120312 L410.725,786.120312 C412.125007,786.120312 413.291662,785.799482 414.225,785.157812 C415.158338,784.516143 415.625,783.670318 415.625,782.620312 L418.775,782.620312 L418.775,800.995312 L415.625,800.995312 C415.625,799.945307 415.158338,799.36198 414.225,799.245312 C413.291662,799.128645 412.125007,799.070312 410.725,799.070312 L346.5,799.070312 L346.5,795.920312 C347.083336,795.920312 347.666664,795.716148 348.25,795.307812 C348.833336,794.899477 349.125,794.22865 349.125,793.295312 L349.125,727.845312 C349.125,726.911974 348.833336,726.241148 348.25,725.832812 C347.666664,725.424477 347.083336,725.220312 346.5,725.220312 L346.5,722.070312 L408.625,722.070312 C412.241685,722.070312 414.05,721.020323 414.05,718.920312 L417.2,718.920312 L417.2,738.345312 L414.05,738.345312 Z M472.5,722.070312 L472.5,725.220312 C469.816653,725.220312 468.475,726.095304 468.475,727.845312 L468.475,786.120312 L515.725,786.120312 C517.125007,786.120312 518.291662,785.799482 519.225,785.157812 C520.158338,784.516143 520.625,783.611985 520.625,782.445312 L523.775,782.445312 L523.775,800.820312 L520.625,800.820312 C520.625,799.886974 520.158338,799.36198 519.225,799.245312 C518.291662,799.128645 517.125007,799.070312 515.725,799.070312 L447.125,799.070312 L447.125,795.920312 C450.158348,795.920312 451.675,795.045321 451.675,793.295312 L451.675,727.845312 C451.675,726.095304 450.158348,725.220312 447.125,725.220312 L447.125,722.070312 L472.5,722.070312 Z M693.7,802.395312 C693.7,800.645304 693.145839,799.653647 692.0375,799.420312 C690.929161,799.186978 689.500009,799.070312 687.75,799.070312 L604.45,799.070312 L604.45,795.920312 C607.950018,795.920312 609.7,794.870323 609.7,792.770312 L609.7,713.320312 C609.7,711.220302 607.950018,710.170312 604.45,710.170312 L604.45,707.020312 L634.55,707.020312 L634.55,710.170312 C631.283317,710.170312 629.65,711.220302 629.65,713.320312 L629.65,782.970312 L687.75,782.970312 C689.500009,782.970312 690.929161,782.561983 692.0375,781.745312 C693.145839,780.928642 693.7,779.820319 693.7,778.420312 L696.85,778.420312 L696.85,802.395312 L693.7,802.395312 Z M765.625,766.870312 L751.45,737.470312 L739.025,766.870312 L765.625,766.870312 Z M707.175,795.920312 C708.575007,795.686978 709.712496,795.016151 710.5875,793.907812 C711.462504,792.799474 712.133331,791.77865 712.6,790.845312 L738.675,733.970312 C739.375004,732.336971 739.929165,731.024484 740.3375,730.032812 C740.745835,729.041141 740.95,728.07865 740.95,727.145312 C740.95,726.445309 740.804168,726.007813 740.5125,725.832812 C740.220832,725.657812 739.900002,725.453647 739.55,725.220312 L739.55,722.070312 L765.975,722.070312 L765.975,725.220312 C765.624998,725.453647 765.245835,725.628645 764.8375,725.745312 C764.429165,725.86198 764.225,726.328642 764.225,727.145312 C764.225,727.845316 764.487497,728.691141 765.0125,729.682812 C765.537503,730.674484 766.091664,731.811973 766.675,733.095312 L795.025,792.595312 C795.608336,793.645318 796.249997,794.403643 796.95,794.870312 C797.650004,795.336981 798.408329,795.686978 799.225,795.920312 L799.225,799.070312 L774.375,799.070312 L774.375,796.445312 C774.958336,796.445312 775.57083,796.270314 776.2125,795.920312 C776.85417,795.570311 777.175,794.92865 777.175,793.995312 C777.175,793.295309 777.058335,792.653649 776.825,792.070312 C776.591666,791.486976 776.300002,790.72865 775.95,789.795312 L771.225,779.820312 L733.775,779.820312 L728.875,789.270312 C728.408331,790.20365 728.029168,791.049475 727.7375,791.807812 C727.445832,792.56615 727.3,793.236976 727.3,793.820312 C727.3,794.75365 727.591664,795.336978 728.175,795.570312 C728.758336,795.803647 729.574995,795.920312 730.625,795.920312 L730.625,799.070312 L707.175,799.070312 L707.175,795.920312 Z M870.45,752.520312 C873.250014,752.520312 875.874988,751.936985 878.325,750.770312 C880.775012,749.60364 882,747.211997 882,743.595312 C882,741.728636 881.650004,740.241151 880.95,739.132812 C880.249997,738.024474 879.375005,737.149482 878.325,736.507812 C877.274995,735.866143 876.050007,735.457813 874.65,735.282812 C873.249993,735.107812 871.850007,735.020312 870.45,735.020312 L839.3,735.020312 L839.3,752.520312 L870.45,752.520312 Z M870.1,786.120312 C875.466694,786.120312 879.141657,785.245321 881.125,783.495312 C883.108343,781.745304 884.1,779.295328 884.1,776.145312 C884.1,772.528628 882.81668,769.845321 880.25,768.095312 C877.683321,766.345304 873.366697,765.470312 867.3,765.470312 L839.3,765.470312 L839.3,786.120312 L870.1,786.120312 Z M822.5,727.845312 C822.5,726.911974 822.062504,726.241148 821.1875,725.832812 C820.312496,725.424477 819.408338,725.220312 818.475,725.220312 L818.475,722.070312 L872.9,722.070312 C877.333356,722.070312 881.154151,722.595307 884.3625,723.645312 C887.570849,724.695318 890.254156,726.12447 892.4125,727.932812 C894.570844,729.741155 896.174995,731.811967 897.225,734.145312 C898.275005,736.478657 898.8,738.928633 898.8,741.495312 C898.8,743.595323 898.450004,745.54947 897.75,747.357812 C897.049997,749.166155 896.145839,750.799472 895.0375,752.257812 C893.929161,753.716153 892.704173,755.02864 891.3625,756.195312 C890.020827,757.361985 888.650007,758.295309 887.25,758.995312 L887.25,759.170312 C888.883342,759.870316 890.516659,760.80364 892.15,761.970312 C893.783342,763.136985 895.24166,764.536971 896.525,766.170312 C897.80834,767.803654 898.858329,769.670302 899.675,771.770312 C900.491671,773.870323 900.9,776.1453 900.9,778.595312 C900.9,781.395326 900.375005,784.0203 899.325,786.470312 C898.274995,788.920325 896.612511,791.078636 894.3375,792.945312 C892.062489,794.811988 889.087518,796.299474 885.4125,797.407812 C881.737482,798.516151 877.333359,799.070312 872.2,799.070312 L818.475,799.070312 L818.475,795.920312 C819.408338,795.920312 820.312496,795.716148 821.1875,795.307812 C822.062504,794.899477 822.5,794.22865 822.5,793.295312 L822.5,727.845312 Z M936.95,772.295312 C936.95,772.761981 936.920834,773.25781 936.8625,773.782812 C936.804166,774.307815 936.775,774.861976 936.775,775.445312 C936.775,777.195321 937.883322,778.799472 940.1,780.257812 C942.316678,781.716153 944.970818,782.941141 948.0625,783.932812 C951.154182,784.924484 954.245818,785.711976 957.3375,786.295312 C960.429182,786.878649 962.849991,787.170312 964.6,787.170312 C966.233342,787.170312 968.245821,787.053647 970.6375,786.820312 C973.029179,786.586978 975.391655,786.09115 977.725,785.332812 C980.058345,784.574475 982.041659,783.524486 983.675,782.182812 C985.308342,780.841139 986.125,779.06199 986.125,776.845312 C986.125,774.278633 984.695848,772.411985 981.8375,771.245312 C978.979152,770.07864 975.391688,769.174482 971.075,768.532812 C966.758312,767.891143 962.091692,767.249482 957.075,766.607812 C952.058308,765.966143 947.391688,764.916153 943.075,763.457812 C938.758312,761.999472 935.170848,759.899493 932.3125,757.157812 C929.454152,754.416132 928.025,750.537004 928.025,745.520312 C928.025,738.053608 931.116636,732.103668 937.3,727.670312 C943.483364,723.236957 952.174944,721.020312 963.375,721.020312 C968.858361,721.020312 973.554147,721.457808 977.4625,722.332812 C981.370853,723.207817 984.666653,724.170307 987.35,725.220312 C990.033347,726.270318 992.220825,727.232808 993.9125,728.107812 C995.604175,728.982817 996.858329,729.420312 997.675,729.420312 C998.608338,729.420312 999.308331,729.274481 999.775,728.982812 C1000.24167,728.691144 1000.825,728.370314 1001.525,728.020312 L1003.45,729.945312 L994.7,746.395312 L991.55,745.345312 L991.2,743.245312 C991.083333,742.545309 990.558338,741.845316 989.625,741.145312 C987.291655,739.161969 983.675025,737.470319 978.775,736.070312 C973.874976,734.670305 968.391697,733.970312 962.325,733.970312 C959.991655,733.970312 957.775011,734.116144 955.675,734.407812 C953.57499,734.699481 951.708342,735.195309 950.075,735.895312 C948.441659,736.595316 947.158338,737.499474 946.225,738.607812 C945.291662,739.716151 944.825,741.086971 944.825,742.720312 C944.825,745.286992 946.254152,747.124474 949.1125,748.232812 C951.970848,749.341151 955.558312,750.216143 959.875,750.857812 C964.191688,751.499482 968.858308,752.141143 973.875,752.782812 C978.891692,753.424482 983.558312,754.503638 987.875,756.020312 C992.191688,757.536987 995.779152,759.753631 998.6375,762.670312 C1001.49585,765.586994 1002.925,769.611953 1002.925,774.745312 C1002.925,779.878671 1001.67085,784.078629 999.1625,787.345312 C996.654154,790.611995 993.533352,793.178636 989.8,795.045312 C986.066648,796.911988 981.954189,798.136976 977.4625,798.720312 C972.970811,799.303649 968.741687,799.595312 964.775,799.595312 C960.808314,799.595312 956.870853,799.21615 952.9625,798.457812 C949.054147,797.699475 945.495849,796.824484 942.2875,795.832812 C939.079151,794.841141 936.366678,793.907817 934.15,793.032812 C931.933322,792.157808 930.591669,791.720312 930.125,791.720312 C929.308329,791.720312 928.608336,792.070309 928.025,792.770312 L925.575,791.020312 L933.625,771.420312 L936.95,772.295312 Z" id="UrkelLabs" fill-rule="nonzero"></path>
        </g>
    </g>
</svg>