<?xml version="1.0" encoding="UTF-8"?>
<svg width="326px" height="89px" viewBox="0 0 326 89" version="1.1" xmlns="http://www.w3.org/2000/svg" xmlns:xlink="http://www.w3.org/1999/xlink">
    <!-- Generator: Sketch 53.2 (72643) - https://sketchapp.com -->
    <title>Group</title>
    <desc>Created with Sketch.</desc>
    <g id="Page-1" stroke="none" stroke-width="1" fill="none" fill-rule="evenodd">
        <g id="Honeycomb" transform="translate(-627.000000, -476.000000)">
            <g id="Group" transform="translate(626.500000, 476.000000)">
                <g id="ABOUTME" transform="translate(0.482954, 0.900000)" fill-rule="nonzero">
                    <path d="M35.9045459,53.1 C35.2045424,53.1 34.7545469,52.7750033 34.5545459,52.125 L32.2295459,44.4 C32.1795456,44.1499988 32.0045474,44.025 31.7045459,44.025 L12.0545459,44.025 C11.7545444,44.025 11.5795461,44.1499988 11.5295459,44.4 L9.2045459,52.125 C9.0045449,52.7750033 8.5545494,53.1 7.8545459,53.1 L1.0295459,53.1 C0.629543896,53.1 0.342046771,52.9750013 0.167045896,52.725 C-0.00795497868,52.4749988 -0.0454546037,52.150002 0.0545458963,51.75 L16.1045459,1.575 C16.3045469,0.92499675 16.7545424,0.6 17.4545459,0.6 L26.2295459,0.6 C26.9295494,0.6 27.3795449,0.92499675 27.5795459,1.575 L43.7045459,51.75 C43.7545461,51.8500005 43.7795459,51.999999 43.7795459,52.2 C43.7795459,52.800003 43.4295494,53.1 42.7295459,53.1 L35.9045459,53.1 Z M13.8545459,36.675 C13.8045456,37.0250018 13.9295444,37.2 14.2295459,37.2 L29.5295459,37.2 C29.8295474,37.2 29.9545461,37.0250018 29.9045459,36.675 L22.1795459,11.175 C22.1295456,10.974999 22.0420465,10.875 21.9170459,10.875 C21.7920453,10.875 21.6795464,10.974999 21.5795459,11.175 L13.8545459,36.675 Z M81.4295459,25.65 C81.2295449,25.7000003 81.1295459,25.7874994 81.1295459,25.9125 C81.1295459,26.0375006 81.2295449,26.1499995 81.4295459,26.25 C86.4295709,28.650012 88.9295459,32.749971 88.9295459,38.55 C88.9295459,43.3000238 87.3420618,46.9124876 84.1670459,49.3875 C80.99203,51.8625124 76.8545714,53.1 71.7545459,53.1 L53.1545459,53.1 C52.3545419,53.1 51.9545459,52.700004 51.9545459,51.9 L51.9545459,1.8 C51.9545459,0.999996 52.3545419,0.6 53.1545459,0.6 L71.1545459,0.6 C76.6045732,0.6 80.8045312,1.77498825 83.7545459,4.125 C86.7045607,6.47501175 88.1795459,10.0249763 88.1795459,14.775 C88.1795459,19.9250258 85.9295684,23.5499895 81.4295459,25.65 Z M61.1045459,8.1 C60.8045444,8.1 60.6545459,8.2499985 60.6545459,8.55 L60.6545459,22.275 C60.6545459,22.5750015 60.8045444,22.725 61.1045459,22.725 L71.1545459,22.725 C73.8045592,22.725 75.8920383,22.0875064 77.4170459,20.8125 C78.9420535,19.5374936 79.7045459,17.7750113 79.7045459,15.525 C79.7045459,13.2249885 78.9420535,11.4125066 77.4170459,10.0875 C75.8920383,8.76249338 73.8045592,8.1 71.1545459,8.1 L61.1045459,8.1 Z M71.7545459,45.525 C74.3545589,45.525 76.4170383,44.825007 77.9420459,43.425 C79.4670535,42.024993 80.2295459,40.125012 80.2295459,37.725 C80.2295459,35.2749878 79.4545537,33.3625069 77.9045459,31.9875 C76.3545382,30.6124931 74.2545592,29.925 71.6045459,29.925 L61.1045459,29.925 C60.8045444,29.925 60.6545459,30.0749985 60.6545459,30.375 L60.6545459,45.075 C60.6545459,45.3750015 60.8045444,45.525 61.1045459,45.525 L71.7545459,45.525 Z M116.604546,53.85 C112.854527,53.85 109.52956,53.0875076 106.629546,51.5625 C103.729531,50.0374924 101.492054,47.875014 99.9170459,45.075 C98.342038,42.274986 97.5545459,39.0500183 97.5545459,35.4 L97.5545459,18.3 C97.5545459,14.699982 98.3545379,11.5125139 99.9545459,8.7375 C101.554554,5.96248613 103.792032,3.81250763 106.667046,2.2875 C109.54206,0.762492375 112.854527,1.42108547e-14 116.604546,1.42108547e-14 C120.404565,1.42108547e-14 123.742032,0.762492375 126.617046,2.2875 C129.49206,3.81250763 131.729538,5.96248613 133.329546,8.7375 C134.929554,11.5125139 135.729546,14.699982 135.729546,18.3 L135.729546,35.4 C135.729546,39.0500183 134.929554,42.274986 133.329546,45.075 C131.729538,47.875014 129.49206,50.0374924 126.617046,51.5625 C123.742032,53.0875076 120.404565,53.85 116.604546,53.85 Z M116.604546,46.35 C119.754562,46.35 122.279536,45.3750098 124.179546,43.425 C126.079555,41.4749903 127.029546,38.900016 127.029546,35.7 L127.029546,18.225 C127.029546,14.9749838 126.079555,12.3750098 124.179546,10.425 C122.279536,8.47499025 119.754562,7.5 116.604546,7.5 C113.50453,7.5 111.004555,8.47499025 109.104546,10.425 C107.204536,12.3750098 106.254546,14.9749838 106.254546,18.225 L106.254546,35.7 C106.254546,38.900016 107.204536,41.4749903 109.104546,43.425 C111.004555,45.3750098 113.50453,46.35 116.604546,46.35 Z M164.079546,53.7 C160.379527,53.7 157.10456,52.9750073 154.254546,51.525 C151.404532,50.0749928 149.192054,48.0125134 147.617046,45.3375 C146.042038,42.6624866 145.254546,39.5750175 145.254546,36.075 L145.254546,1.8 C145.254546,0.999996 145.654542,0.6 146.454546,0.6 L152.754546,0.6 C153.55455,0.6 153.954546,0.999996 153.954546,1.8 L153.954546,36.225 C153.954546,39.1750148 154.879537,41.5749908 156.729546,43.425 C158.579555,45.2750093 161.029531,46.2 164.079546,46.2 C167.129561,46.2 169.579537,45.2750093 171.429546,43.425 C173.279555,41.5749908 174.204546,39.1750148 174.204546,36.225 L174.204546,1.8 C174.204546,0.999996 174.604542,0.6 175.404546,0.6 L181.704546,0.6 C182.50455,0.6 182.904546,0.999996 182.904546,1.8 L182.904546,36.075 C182.904546,39.5750175 182.129554,42.6624866 180.579546,45.3375 C179.029538,48.0125134 176.82956,50.0749928 173.979546,51.525 C171.129532,52.9750073 167.829565,53.7 164.079546,53.7 Z M227.904546,0.6 C228.70455,0.6 229.104546,0.999996 229.104546,1.8 L229.104546,6.975 C229.104546,7.775004 228.70455,8.175 227.904546,8.175 L214.479546,8.175 C214.179544,8.175 214.029546,8.3249985 214.029546,8.625 L214.029546,51.9 C214.029546,52.700004 213.62955,53.1 212.829546,53.1 L206.529546,53.1 C205.729542,53.1 205.329546,52.700004 205.329546,51.9 L205.329546,8.625 C205.329546,8.3249985 205.179547,8.175 204.879546,8.175 L191.979546,8.175 C191.179542,8.175 190.779546,7.775004 190.779546,6.975 L190.779546,1.8 C190.779546,0.999996 191.179542,0.6 191.979546,0.6 L227.904546,0.6 Z" id="ABOUT" fill="#979797"></path>
                    <path d="M238.629546,53.1 C237.829542,53.1 237.429546,52.700004 237.429546,51.9 L237.429546,1.8 C237.429546,0.999996 237.829542,0.6 238.629546,0.6 L245.004546,0.6 C245.704549,0.6 246.204544,0.87499725 246.504546,1.425 L258.204546,20.325 C258.304546,20.4750008 258.417045,20.55 258.542046,20.55 C258.667047,20.55 258.754546,20.4750008 258.804546,20.325 L270.654546,1.425 C270.954547,0.87499725 271.454542,0.6 272.154546,0.6 L278.454546,0.6 C279.25455,0.6 279.654546,0.999996 279.654546,1.8 L279.654546,51.9 C279.654546,52.700004 279.25455,53.1 278.454546,53.1 L272.154546,53.1 C271.354542,53.1 270.954546,52.700004 270.954546,51.9 L270.954546,16.425 C270.954546,16.224999 270.892047,16.1000003 270.767046,16.05 C270.642045,15.9999998 270.529546,16.074999 270.429546,16.275 L261.504546,30.9 C261.204544,31.4500028 260.704549,31.725 260.004546,31.725 L257.079546,31.725 C256.379542,31.725 255.879547,31.4500028 255.579546,30.9 L246.654546,16.275 C246.554545,16.074999 246.442047,15.9999998 246.317046,16.05 C246.192045,16.1000003 246.129546,16.224999 246.129546,16.425 L246.129546,51.9 C246.129546,52.700004 245.72955,53.1 244.929546,53.1 L238.629546,53.1 Z M325.779546,6.9 C325.779546,7.700004 325.37955,8.1 324.579546,8.1 L299.379546,8.1 C299.079544,8.1 298.929546,8.2499985 298.929546,8.55 L298.929546,22.425 C298.929546,22.7250015 299.079544,22.875 299.379546,22.875 L316.179546,22.875 C316.97955,22.875 317.379546,23.274996 317.379546,24.075 L317.379546,29.175 C317.379546,29.975004 316.97955,30.375 316.179546,30.375 L299.379546,30.375 C299.079544,30.375 298.929546,30.5249985 298.929546,30.825 L298.929546,45.15 C298.929546,45.4500015 299.079544,45.6 299.379546,45.6 L324.579546,45.6 C325.37955,45.6 325.779546,45.999996 325.779546,46.8 L325.779546,51.9 C325.779546,52.700004 325.37955,53.1 324.579546,53.1 L291.429546,53.1 C290.629542,53.1 290.229546,52.700004 290.229546,51.9 L290.229546,1.8 C290.229546,0.999996 290.629542,0.6 291.429546,0.6 L324.579546,0.6 C325.37955,0.6 325.779546,0.999996 325.779546,1.8 L325.779546,6.9 Z" id="ME" fill="#DDDDDD"></path>
                </g>
                <polygon id="Path" fill="#F7B733" points="53.5 84 273.5 84 273.5 89 53.5 89"></polygon>
            </g>
        </g>
    </g>
</svg>