<?xml version="1.0" encoding="UTF-8"?>
<svg width="1118px" height="766px" viewBox="0 0 1118 766" version="1.1" xmlns="http://www.w3.org/2000/svg" xmlns:xlink="http://www.w3.org/1999/xlink">
    <!-- Generator: Sketch 53.2 (72643) - https://sketchapp.com -->
    <title>developer</title>
    <desc>Created with Sketch.</desc>
    <defs>
        <linearGradient x1="50.0024316%" y1="100.001132%" x2="50.0024316%" y2="0.00297279996%" id="linearGradient-1">
            <stop stop-color="#808080" stop-opacity="0.25" offset="0%"></stop>
            <stop stop-color="#808080" stop-opacity="0.12" offset="54%"></stop>
            <stop stop-color="#808080" stop-opacity="0.1" offset="100%"></stop>
        </linearGradient>
    </defs>
    <g id="Page-1" stroke="none" stroke-width="1" fill="none" fill-rule="evenodd">
        <g id="developer" fill-rule="nonzero">
            <path d="M649.58,113.22 C577.91,110.94 509.64,89.7 444.46,66.47 C379.28,43.24 314.7,17.47 244.74,5.19 C199.74,-2.73 148.29,-3.81 112.03,18.29 C77.15,39.59 65.87,76.37 59.81,110.5 C55.25,136.17 52.57,163.19 65.06,187.23 C73.74,203.91 89.14,217.94 99.79,233.92 C136.86,289.54 110.66,358.12 70.49,412.42 C51.65,437.86 29.8,462.2 15.26,489.31 C0.72,516.42 -5.99,547.5 6.72,575.16 C19.33,602.58 49.37,623.16 81.92,637.66 C148.02,667.08 225.92,675.5 301.92,680.27 C470.01,690.86 639.01,686.25 807.64,681.68 C870.03,679.98 932.64,678.27 994.07,669.41 C1028.15,664.49 1063.34,656.69 1088.07,637.85 C1119.49,613.94 1127.27,573.44 1106.22,543.46 C1070.92,493.16 973.3,480.66 948.62,426.69 C935.01,396.97 949.01,363.86 968.74,336.32 C1011.08,277.21 1082.06,225.32 1085.8,157.78 C1088.37,111.37 1054.25,64.89 1001.49,42.93 C946.19,19.93 869.49,22.81 828.7,60.93 C786.69,100.14 712.87,115.24 649.58,113.22 Z" id="Path" fill="#00235C" opacity="0.1"></path>
            <ellipse id="Oval" fill="#00235C" opacity="0.1" cx="802.9" cy="744.72" rx="129" ry="21"></ellipse>
            <polygon id="Path" fill="#5F5D7E" points="295.39 389.56 295.07 407.2 292.45 550.22 270.04 602.71 192.8 603.59 192.8 397.68 273.41 391.3"></polygon>
            <polygon id="Path" fill="#000000" opacity="0.1" points="295.39 389.56 295.07 407.2 292.45 550.22 270.04 602.71 192.8 603.59 192.8 397.68 273.41 391.3"></polygon>
            <polygon id="Path" fill="#5F5D7E" points="295.39 389.56 295.07 407.2 292.45 550.22 270.04 602.71 275.94 407.54 275.92 407.41 273.41 391.3"></polygon>
            <polygon id="Path" fill="#000000" opacity="0.1" points="273.41 391.3 295.39 389.56 295.07 407.2 275.92 407.41 192.8 408.34 192.8 397.68"></polygon>
            <polygon id="Path" fill="#5F5D7E" points="989.68 397.68 989.68 602.4 971.7 602.4 899.76 549.93 899.76 391.91 964.03 385.87 967.97 387.68 971.7 389.4"></polygon>
            <rect id="Rectangle" fill="#000000" opacity="0.1" x="971.7" y="387.68" width="17.98" height="214.72"></rect>
            <polygon id="Path" fill="#000000" opacity="0.1" points="989.68 387.68 989.68 399.45 971.7 399.66 899.76 400.45 899.76 391.91 964.03 385.87 967.97 387.68 971.7 389.4 971.7 387.68"></polygon>
            <polygon id="Path" fill="#5F5D7E" points="989.68 381 989.68 397.68 106.13 407.54 106.13 386.31 189.26 369.5 912.73 364.2"></polygon>
            <polygon id="Path" fill="#000000" opacity="0.1" points="989.68 381 989.68 397.68 106.13 407.54 106.13 386.31"></polygon>
            <ellipse id="Oval" fill="#000000" opacity="0.1" cx="256.69" cy="374.88" rx="39.83" ry="2.55"></ellipse>
            <path d="M290.12,276.29 C289.276636,277.455496 288.603233,278.734962 288.12,280.09 C288,280.42 287.88,280.8 287.76,281.16 C287.5338,281.051852 287.295425,280.971275 287.05,280.92 C286.022083,280.65675 284.958234,280.562185 283.9,280.64 C283.9,280.233333 283.92,279.803333 283.96,279.35 C284.09,274.69 283.54,268.19 279.09,270.94 C274.83,273.59 277.87,278 280.62,280.85 C280.86,281.1 281.1,281.33 281.33,281.55 C278.82,283.35 278.33,287.5 277.92,291.84 C277.51,296.18 273.82,300.94 271.38,303.64 L270.68,304.39 C268.682535,302.787734 266.092808,302.12118 263.57,302.56 C263.456667,302.18 263.346667,301.78 263.24,301.36 C261.24,294.21 257.15,281.82 251.9,279.1 L252.59,278.23 C254.82,275.31 257.33,270.98 253.59,269.87 C249.85,268.76 249.59,273.63 249.76,277.27 C249.76,277.73 249.82,278.16 249.86,278.57 C248.372594,278.648492 246.981818,279.331236 246.01,280.46 C245.83,280.24 245.65,280.02 245.44,279.78 C242.44,276.23 236.92,270.61 235.25,274.87 C233.7,278.87 238.55,283.97 241.97,286.95 L242.18,287.14 C239.89,296.44 249.89,304.02 255.28,307.33 L255.97,307.76 C248.54,316.51 243.97,332.92 243.97,332.92 L264.77,336.64 C264.77,336.64 278.56,324.74 276.77,313.56 L276.91,313.56 C290.69,310.8 293.83,296.1 291.68,287.38 L291.93,287.28 C294.436566,286.245313 296.633975,284.581757 298.31,282.45 C302.17,277.08 294.08,271.03 290.12,276.29 Z" id="Path" fill="#00235C"></path>
            <path d="M290.12,276.29 C289.276636,277.455496 288.603233,278.734962 288.12,280.09 C288,280.42 287.88,280.8 287.76,281.16 C287.5338,281.051852 287.295425,280.971275 287.05,280.92 C286.022083,280.65675 284.958234,280.562185 283.9,280.64 C283.9,280.233333 283.92,279.803333 283.96,279.35 C284.09,274.69 283.54,268.19 279.09,270.94 C274.83,273.59 277.87,278 280.62,280.85 C280.86,281.1 281.1,281.33 281.33,281.55 C278.82,283.35 278.33,287.5 277.92,291.84 C277.51,296.18 273.82,300.94 271.38,303.64 L270.68,304.39 C268.682535,302.787734 266.092808,302.12118 263.57,302.56 C263.456667,302.18 263.346667,301.78 263.24,301.36 C261.24,294.21 257.15,281.82 251.9,279.1 L252.59,278.23 C254.82,275.31 257.33,270.98 253.59,269.87 C249.85,268.76 249.59,273.63 249.76,277.27 C249.76,277.73 249.82,278.16 249.86,278.57 C248.372594,278.648492 246.981818,279.331236 246.01,280.46 C245.83,280.24 245.65,280.02 245.44,279.78 C242.44,276.23 236.92,270.61 235.25,274.87 C233.7,278.87 238.55,283.97 241.97,286.95 L242.18,287.14 C239.89,296.44 249.89,304.02 255.28,307.33 L255.97,307.76 C248.54,316.51 243.97,332.92 243.97,332.92 L264.77,336.64 C264.77,336.64 278.56,324.74 276.77,313.56 L276.91,313.56 C290.69,310.8 293.83,296.1 291.68,287.38 L291.93,287.28 C294.436566,286.245313 296.633975,284.581757 298.31,282.45 C302.17,277.08 294.08,271.03 290.12,276.29 Z" id="Path" fill="#000000" opacity="0.1"></path>
            <path d="M248.71,282.29 L246.28,289.41 C246.28,289.41 244.93,288.46 243.22,286.95 C239.81,283.95 234.95,278.83 236.51,274.87 C238.18,270.61 243.69,276.23 246.7,279.78 C247.91,281.2 248.71,282.29 248.71,282.29 Z" id="Path" fill="#00235C"></path>
            <path d="M253.84,278.23 C253.09921,279.200706 252.308128,280.131979 251.47,281.02 C251.262959,279.77813 251.119439,278.526502 251.04,277.27 C250.84,273.63 251.22,268.79 254.87,269.87 C258.52,270.95 256.07,275.31 253.84,278.23 Z" id="Path" fill="#00235C"></path>
            <path d="M285.21,279.35 C285.14,281.69 284.91,283.56 284.91,283.56 C283.847326,282.728564 282.844822,281.822969 281.91,280.85 C279.16,278 276.11,273.59 280.38,270.94 C284.79,268.19 285.34,274.69 285.21,279.35 Z" id="Path" fill="#00235C"></path>
            <path d="M299.58,282.42 C297.903975,284.551757 295.706566,286.215313 293.2,287.25 C292.503321,287.550788 291.788608,287.807951 291.06,288.02 L288.19,284.02 C288.49774,282.691242 288.89532,281.384906 289.38,280.11 C289.863233,278.754962 290.536636,277.475496 291.38,276.31 C295.35,271.03 303.44,277.08 299.58,282.42 Z" id="Path" fill="#00235C"></path>
            <path d="M246.7,279.78 C247.91,281.2 248.7,282.29 248.7,282.29 L246.27,289.41 C246.27,289.41 244.92,288.46 243.21,286.95 C243.588568,284.670986 244.530408,282.522629 245.95,280.7 C246.2,280.37 246.45,280.06 246.7,279.78 Z" id="Path" fill="#000000" opacity="0.1"></path>
            <path d="M253.84,278.23 C253.09921,279.200706 252.308128,280.131979 251.47,281.02 C251.262959,279.77813 251.119439,278.526502 251.04,277.27 C252.050214,277.292396 253.028566,277.627831 253.84,278.23 L253.84,278.23 Z" id="Path" fill="#000000" opacity="0.1"></path>
            <path d="M265.8,306.49 L259.75,309.15 C258.646065,308.599144 257.571302,307.991669 256.53,307.33 C250.17,303.42 237.39,293.58 245.96,281.97 C254.53,270.36 261.68,291.18 264.49,301.36 C265.34,304.4 265.8,306.49 265.8,306.49 Z" id="Path" fill="#00235C"></path>
            <path d="M281.88,280.86 C282.756431,279.951269 283.948658,279.41423 285.21,279.36 C285.14,281.7 284.91,283.57 284.91,283.57 C283.836999,282.73968 282.824442,281.834059 281.88,280.86 L281.88,280.86 Z" id="Path" fill="#000000" opacity="0.1"></path>
            <path d="M293.2,287.25 C292.503321,287.550788 291.788608,287.807951 291.06,288.02 L288.19,284.02 C288.49774,282.691242 288.89532,281.384906 289.38,280.11 C291.23,281.17 292.59,283.86 293.2,287.25 Z" id="Path" fill="#000000" opacity="0.1"></path>
            <path d="M278.18,313.53 C277.846667,313.596667 277.513333,313.656667 277.18,313.71 C256.91,316.8 270.5,305.85 270.5,305.85 C270.5,305.85 271.41,305.01 272.65,303.64 C275.09,300.94 278.78,296.21 279.2,291.84 C279.83,285.27 280.57,279.11 288.33,280.92 C296.09,282.73 297.38,309.69 278.18,313.53 Z" id="Path" fill="#00235C"></path>
            <rect id="Rectangle" fill="#474157" x="239.06" y="364.02" width="38.75" height="10.19"></rect>
            <rect id="Rectangle" fill="#474157" x="232.9" y="330.91" width="50.63" height="35.56"></rect>
            <rect id="Rectangle" fill="#000000" opacity="0.1" x="238.68" y="364.02" width="38.75" height="10.19"></rect>
            <rect id="Rectangle" fill="#000000" opacity="0.1" x="232.74" y="330.91" width="50.63" height="35.56"></rect>
            <rect id="Rectangle" fill="#474157" x="241.61" y="364.02" width="38.75" height="10.19"></rect>
            <path d="M264.49,301.36 C265.34,304.36 265.8,306.49 265.8,306.49 L259.75,309.15 C258.646065,308.599144 257.571302,307.991669 256.53,307.33 C258.9,304.33 261.57,302.06 264.49,301.36 Z" id="Path" fill="#000000" opacity="0.1"></path>
            <path d="M278.18,313.53 C277.846667,313.596667 277.513333,313.656667 277.18,313.71 C256.91,316.8 270.5,305.85 270.5,305.85 C270.5,305.85 271.41,305.01 272.65,303.64 C276.41,306.67 278.01,310.08 278.18,313.53 Z" id="Path" fill="#000000" opacity="0.1"></path>
            <path d="M245.21,332.92 C245.21,332.92 256.57,292.27 272.49,304.8 C288.41,317.33 266.01,336.64 266.01,336.64 L245.21,332.92 Z" id="Path" fill="#00235C"></path>
            <circle id="Oval" fill="#000000" opacity="0.1" cx="250.95" cy="288.34" r="1.27"></circle>
            <circle id="Oval" fill="#000000" opacity="0.1" cx="250.84" cy="294.29" r="1.27"></circle>
            <circle id="Oval" fill="#000000" opacity="0.1" cx="287.78" cy="289.51" r="1.27"></circle>
            <circle id="Oval" fill="#000000" opacity="0.1" cx="258.06" cy="319.97" r="1.27"></circle>
            <circle id="Oval" fill="#000000" opacity="0.1" cx="285.12" cy="299.38" r="1.27"></circle>
            <circle id="Oval" fill="#000000" opacity="0.1" cx="271.96" cy="312.54" r="1.27"></circle>
            <circle id="Oval" fill="#000000" opacity="0.1" cx="255.3" cy="290.89" r="1.27"></circle>
            <circle id="Oval" fill="#000000" opacity="0.1" cx="284.27" cy="293.33" r="1.27"></circle>
            <circle id="Oval" fill="#000000" opacity="0.1" cx="279.92" cy="303.2" r="1.27"></circle>
            <circle id="Oval" fill="#000000" opacity="0.1" cx="266.55" cy="319.02" r="1.27"></circle>
            <circle id="Oval" fill="#000000" opacity="0.1" cx="263.79" cy="312.76" r="1.27"></circle>
            <circle id="Oval" fill="#000000" opacity="0.1" cx="257.21" cy="298.64" r="1.27"></circle>
            <rect id="Rectangle" fill="#000000" opacity="0.1" x="241.61" y="364.02" width="38.75" height="3.72"></rect>
            <rect id="Rectangle" fill="#474157" x="235.45" y="330.91" width="50.63" height="35.56"></rect>
            <circle id="Oval" fill="#000000" opacity="0.1" cx="268.25" cy="324.75" r="1.27"></circle>
            <circle id="Oval" fill="#000000" opacity="0.1" cx="260.6" cy="326.34" r="1.27"></circle>
            <path d="M382.01,466.79 C382.01,466.79 388.32,475.04 379.1,487.5 C369.88,499.96 362.27,510.5 365.34,518.24 C365.34,518.24 379.26,495.1 390.58,494.78 C401.9,494.46 394.43,480.7 382.01,466.79 Z" id="Path" fill="#00235C"></path>
            <path d="M382.01,466.79 C382.556753,467.586494 382.990857,468.454701 383.3,469.37 C394.35,482.37 400.24,494.48 389.61,494.78 C379.72,495.06 367.85,512.78 365.01,517.22 C365.099637,517.559712 365.20984,517.893661 365.34,518.22 C365.34,518.22 379.26,495.08 390.58,494.76 C401.9,494.44 394.43,480.7 382.01,466.79 Z" id="Path" fill="#000000" opacity="0.1"></path>
            <path d="M393.7,477.3 C393.7,480.21 393.37,482.56 392.97,482.56 C392.57,482.56 392.24,480.21 392.24,477.3 C392.24,474.39 392.65,475.77 393.05,475.77 C393.45,475.77 393.7,474.4 393.7,477.3 Z" id="Path" fill="#FFD037"></path>
            <path d="M397.72,480.77 C395.17,482.16 392.95,483 392.72,482.65 C392.49,482.3 394.44,480.88 396.99,479.49 C399.54,478.1 398.53,479.11 398.72,479.49 C398.91,479.87 400.27,479.38 397.72,480.77 Z" id="Path" fill="#FFD037"></path>
            <path d="M348.64,466.79 C348.64,466.79 342.32,475.04 351.55,487.5 C360.78,499.96 368.38,510.5 365.3,518.24 C365.3,518.24 351.39,495.1 340.06,494.78 C328.73,494.46 336.18,480.7 348.64,466.79 Z" id="Path" fill="#00235C"></path>
            <path d="M348.64,466.79 C348.088537,467.583709 347.65409,468.452604 347.35,469.37 C336.29,482.37 330.41,494.48 341.03,494.78 C350.93,495.06 362.8,512.78 365.64,517.22 C365.54,517.57 365.43,517.91 365.3,518.22 C365.3,518.22 351.39,495.08 340.06,494.76 C328.73,494.44 336.18,480.7 348.64,466.79 Z" id="Path" fill="#000000" opacity="0.1"></path>
            <path d="M336.9,477.3 C336.9,480.21 337.23,482.56 337.63,482.56 C338.03,482.56 338.36,480.21 338.36,477.3 C338.36,474.39 337.95,475.77 337.55,475.77 C337.15,475.77 336.9,474.4 336.9,477.3 Z" id="Path" fill="#FFD037"></path>
            <path d="M332.88,480.77 C335.43,482.16 337.65,483 337.88,482.65 C338.11,482.3 336.17,480.88 333.62,479.49 C331.07,478.1 332.07,479.11 331.88,479.49 C331.69,479.87 330.33,479.38 332.88,480.77 Z" id="Path" fill="#FFD037"></path>
            <ellipse id="Oval" fill="#00235C" opacity="0.1" cx="365.31" cy="571.24" rx="65.98" ry="10.13"></ellipse>
            <path d="M399.26,507.12 L398.94,509.7 L398.5,513.34 L398.32,514.85 L397.88,518.5 L397.68,520.01 L397.24,523.65 L392.19,565.04 C391.74,568.74 385.71,571.62 378.42,571.62 L352.18,571.62 C344.9,571.62 338.87,568.74 338.42,565.04 L333.36,523.65 L332.92,520.01 L332.74,518.5 L332.28,514.85 L332.1,513.34 L331.66,509.7 L331.34,507.12 C331.09,505.03 334.34,503.27 338.48,503.27 L392.13,503.27 C396.25,503.27 399.52,505.03 399.26,507.12 Z" id="Path" fill="#65617D"></path>
            <polygon id="Path" fill="#9D9CB5" points="398.95 509.69 398.5 513.33 332.11 513.33 331.66 509.69"></polygon>
            <polygon id="Path" fill="#9D9CB5" points="398.32 514.85 397.88 518.49 332.74 518.49 332.29 514.85"></polygon>
            <polygon id="Path" fill="#9D9CB5" points="397.69 520.01 397.25 523.65 333.37 523.65 332.92 520.01"></polygon>
            <path d="M565.47,366.54 L565.47,368.6 L504.56,368.6 L504.56,366.93 C512.416891,364.023041 517.629505,356.527414 517.62,348.15 C517.62106,340.323637 513.057017,333.215767 505.94,329.96 L565.06,329.96 C557.855679,333.243078 553.266137,340.466867 553.354869,348.383492 C553.443601,356.300118 558.193903,363.419223 565.47,366.54 Z" id="Path" fill="#C8CAD7"></path>
            <path d="M565.06,329.96 C559.558455,332.48341 555.49561,337.3625 554.01,343.23 L517.01,343.23 C515.512108,337.362518 511.443805,332.485699 505.94,329.96 L565.06,329.96 Z" id="Path" fill="#000000" opacity="0.1"></path>
            <path d="M434.81,319.46 L434.81,331.03 C434.81,337.41 439.49,342.59 445.25,342.59 L624.46,342.59 C630.22,342.59 634.9,337.41 634.9,331.03 L634.9,319.46 L434.81,319.46 Z" id="Path" fill="#C8CAD7"></path>
            <path d="M565.47,366.54 L565.47,368.6 L504.56,368.6 L504.56,366.93 C506.230289,366.30809 507.810732,365.467429 509.26,364.43 L561.74,364.43 C562.904671,365.264117 564.155096,365.971461 565.47,366.54 Z" id="Path" fill="#000000" opacity="0.1"></path>
            <rect id="Rectangle" fill="#C8CAD7" x="484.44" y="365.07" width="101.17" height="6.1" rx="3.05"></rect>
            <path d="M634.9,192.77 C634.9,190.00114 633.800075,187.345685 631.842195,185.387805 C629.884315,183.429925 627.22886,182.33 624.46,182.33 L445.25,182.33 C439.484147,182.33 434.81,187.004147 434.81,192.77 L434.81,321.71 L634.9,321.71 L634.9,192.77 Z" id="Path" fill="#5F5D7E"></path>
            <path d="M629.44,197.42 L629.44,308.22 C629.44,311.058744 627.138744,313.36 624.3,313.36 L445.41,313.36 C442.571256,313.36 440.27,311.058744 440.27,308.22 L440.27,197.42 C440.28495,196.516093 440.54037,195.632476 441.01,194.86 C441.929433,193.271608 443.624697,192.292546 445.46,192.29 L624.3,192.29 C627.134843,192.289995 629.434485,194.585162 629.44,197.42 Z" id="Path" fill="#00235C"></path>
            <circle id="Oval" fill="#FFFFFF" cx="534.86" cy="187.3" r="2.41"></circle>
            <circle id="Oval" fill="#FFFFFF" cx="534.86" cy="331.51" r="5.94"></circle>
            <path d="M629.44,197.42 L440.27,197.42 C440.27,194.581256 442.571256,192.28 445.41,192.28 L624.3,192.28 C627.138744,192.28 629.44,194.581256 629.44,197.42 Z" id="Path" fill="#FFFFFF"></path>
            <circle id="Oval" fill="#EDEDF4" cx="445.42" cy="194.85" r="1.28"></circle>
            <circle id="Oval" fill="#EDEDF4" cx="449.27" cy="194.85" r="1.28"></circle>
            <circle id="Oval" fill="#EDEDF4" cx="453.12" cy="194.85" r="1.28"></circle>
            <path d="M657.01,421.86 C657.01,421.86 669.01,426.74 683.74,432.59 C684.244607,434.274567 684.632197,435.991991 684.9,437.73 C685.16,441.13 691.9,445.92 691.9,445.92 C691.9,445.92 704.4,448.18 713.81,450.83 C721.12,452.83 722.13,448.83 721.19,447.27 L723.38,448.11 C723.87,468.35 724.43,483.11 724.43,483.11 C724.43,483.11 727.63,483.11 732.68,483.35 C732.74,483.99 732.8,484.65 732.87,485.35 C734.8,505.35 738.35,538.35 741.1,541.09 C745.1,544.96 743.33,573.48 741.79,578.52 C740.25,583.56 741.79,619.83 741.79,619.83 C741.79,619.83 747.98,641.99 747.46,666.17 C746.94,690.35 754.16,702.95 754.16,702.95 L756.75,703.14 C756.75,703.81 756.67,704.47 756.64,705.14 C756.52,707.33 756.43,709.52 756.4,711.51 C756.239247,714.548517 755.196774,717.474389 753.4,719.93 C749.254686,725.855126 746.396634,732.582959 745.01,739.68 C744.707088,741.266775 744.493419,742.869292 744.37,744.48 C744.37,744.88 744.32,745.1 744.32,745.1 C744.32,745.1 746.72,752.16 769.24,754.51 C791.76,756.86 788.5,740.57 788.5,740.57 C788.5,740.57 788.61,740.11 788.75,739.27 C789.735133,733.762916 789.765577,728.127406 788.84,722.61 C788.05,718.31 788.73,710.87 789.71,704.05 C789.81,703.34 789.92,702.64 790.02,701.95 C791.904259,701.556094 793.672989,700.73502 795.19,699.55 C802.24,693.12 795.19,642 795.19,642 C795.19,642 782.47,600.19 785.57,594.14 C788.67,588.09 792.27,573.49 792.27,573.49 L792.27,522.61 C797.27,514.54 799.52,503.5 800.45,493.45 C800.51,492.78 800.57,492.12 800.62,491.45 C804.79,491.53 808.79,491.38 812.42,491.13 L813.42,493.13 C819.32,504.56 825.32,515.88 826.79,517.55 C829.88,521.08 827.3,537.2 826.79,545.26 C826.28,553.32 832.46,569.44 832.46,569.44 C824.73,573.97 823.18,627.37 823.18,627.37 C823.18,627.37 828.85,640.47 816.99,655.08 C805.13,669.69 809.77,697.4 811.32,696.39 C811.73,696.12 814.24,696.53 817.81,697.12 C817.161695,699.51371 816.00167,701.738228 814.41,703.64 C810.58,708.4 809.27,715.86 808.89,721.82 C808.666888,724.925998 808.666888,728.044002 808.89,731.15 L817.48,737.15 C817.48,737.15 822.81,737.15 822.81,741.86 C822.81,746.57 835.87,751.26 835.87,751.26 C835.87,751.26 855.29,756.63 870.25,751.26 C875.1,749.52 876.58,746.53 876.01,742.9 C874.83,735.31 864.68,724.9 857.36,717.34 C852.42,712.21 850.17,705.41 849.17,699.52 C849.06,698.89 848.97,698.27 848.89,697.66 C849.492725,697.319961 850.030929,696.876535 850.48,696.35 C856.67,688.79 863.37,668.14 863.37,668.14 C863.37,668.14 860.31,647.04 867.01,627.86 C872.01,613.67 878.08,580.41 880.9,564.12 C881.930666,558.20968 882.119205,552.183188 881.46,546.22 C880.16,534.33 878.16,512.3 878.87,494.86 C879.11,489.17 878.94,480.12 878.55,469.51 L878.55,469.36 C882.22,462.43 890.18,451.12 903.46,450.19 C922.71,448.84 912.74,438.27 912.74,438.27 C912.74,438.27 901.45,358.94 894.01,344.86 C893.896677,344.614548 893.76636,344.377305 893.62,344.15 C892.52,342.4 891.32,338.9 890.05,334.23 C882.72,307.18 873.34,240.54 873.34,240.54 L872.19,224.33 C883.67,229.96 904.97,240.23 913.56,243.23 C925.56,247.43 942.26,244.74 946.39,230.97 C950.52,217.2 933.33,189.33 933.33,189.33 C930.8,179.45 913.33,158.88 904.24,148.67 C903.36,147.34 902.49,146.02 901.64,144.76 C899.3,141.27 897.19,138.19 895.85,136.38 L895.72,136.63 C895.39,136.17 895.08,135.74 894.81,135.38 L894.59,135.82 C891.34,129.82 887.69,123.65 884.86,120.34 C878.28,112.66 849.58,104.4 846.74,106.67 C844.67,108.32 853.26,115.52 859.27,119.94 L853.53,116.06 L840.7,104.96 L835.05,101.14 C834.814743,100.980789 834.567311,100.840355 834.31,100.72 C837.287095,89.0255508 834.896906,76.6126984 827.79,66.86 C827.39,66.31 826.96,65.76 826.53,65.23 C832.44,60.31 834.31,52.18 834.31,45.03 L834.31,44.76 C833.872813,42.0802503 832.683302,39.5798502 830.88,37.55 C830.97,37.73 831.06,37.93 831.14,38.12 C829.047034,35.4420312 825.885703,33.8156818 822.49,33.67 C817.49,33.59 813.3,36.87 808.91,39.12 C799.770988,43.6975177 789.090301,44.0626694 779.66,40.12 C776.95,38.96 774.22,37.42 771.28,37.66 C768.34,37.9 766.01,39.79 764.01,41.76 C759.200926,46.3955975 755.41927,51.9897234 752.91,58.18 C752.17,59.99 751.51,61.92 750.08,63.28 C748.991051,64.1686423 747.811152,64.9395986 746.56,65.58 C742.203478,68.3555883 739.172039,72.7925461 738.17,77.86 C737.236638,82.8522893 737.760864,88.0077627 739.68,92.71 C740.839893,95.9649743 742.735821,98.9081118 745.22,101.31 C747.09,103.04 749.33,104.31 751.31,105.94 C752.208849,106.672329 753.048152,107.474849 753.82,108.34 C744.826568,110.330505 736.604047,114.888151 730.15,121.46 C725.300796,126.145713 721.247668,131.590414 718.15,137.58 C709.78,153.31 704.7,163.1 701.68,169.31 C700.17,169.77 699.24,169.99 699.24,169.99 C699.24,169.99 687.9,180.06 688.07,208.94 L688.07,208.94 L679.3,266.7 L679.3,296.25 C679.3,296.25 668.01,328.32 669.86,354.86 C669.86,355.22 669.86,355.57 669.93,355.92 L669.01,360.43 C667.593745,362.359799 666.88727,364.719427 667.01,367.11 C666.952718,367.927757 667.013339,368.749501 667.19,369.55 L662.59,392.27 L663.46,393.19 L661.09,399.86 C652.16,414.13 657.01,421.86 657.01,421.86 Z M723.33,259.86 C723.9,260.25 724.22,260.45 724.22,260.45 C724.22,260.45 729.22,305.22 726.22,331.84 L715.69,331.12 L710.69,329.58 L712.48,315.35 C712.48,315.35 718.89,277.86 723.29,259.86 L723.33,259.86 Z M764.71,129.91 L765.71,128.37 C765.5,128.92 765.29,129.46 765.07,129.96 L764.71,129.91 Z M717.18,331.62 L722.63,332.18 L726.08,332.9 C726.02,333.38 725.96,333.85 725.9,334.31 L717.18,331.62 Z M834.31,138.06 C834.307224,137.561754 834.273828,137.064149 834.21,136.57 L838.49,139.11 L838.75,139.27 C837.27,138.84 835.75,138.46 834.31,138.11 L834.31,138.06 Z M867.53,157.86 C866.942524,156.938241 866.308365,156.047081 865.63,155.19 C868.63,155.91 870.49,156.33 870.49,156.33 C872.884504,155.913961 875.347263,156.163004 877.61,157.05 C878.342231,158.54021 879.167183,159.983041 880.08,161.37 L887.98,176.67 C887.98,176.67 886.26,176.84 882.82,175.16 C879.38,173.48 867.53,157.86 867.53,157.86 Z M717.44,445.86 L719.91,446.86 L719.91,446.86 C719.36,447.03 718.48,446.63 717.44,445.86 Z" id="Shape" fill="url(#linearGradient-1)"></path>
            <path d="M803.01,117.15 C806.19,119.02 806.29,127.01 805.8,133.42 C805.45,138.11 804.8,141.95 804.8,141.95 L825.49,192.25 C825.49,192.25 833.16,156.41 833.28,140.41 C833.289203,139.147566 833.096781,137.891759 832.71,136.69 C829.1,125.16 808.82,118.76 803.01,117.15 Z" id="Path" fill="#67647E"></path>
            <path d="M801.52,116.75 C801.52,116.75 802.08,116.88 803.05,117.15 C802.584954,116.882226 802.056596,116.744093 801.52,116.75 Z" id="Path" fill="#67647E"></path>
            <path d="M808.69,729.08 L817.02,735.08 C817.02,735.08 822.19,735.08 822.19,739.75 C822.19,744.42 834.85,749.08 834.85,749.08 C834.85,749.08 853.69,754.41 868.19,749.08 C872.89,747.35 874.33,744.39 873.78,740.78 C872.63,733.25 862.78,722.96 855.69,715.41 C850.9,710.32 848.69,703.57 847.75,697.73 C847.056755,693.551044 846.868738,689.303867 847.19,685.08 L816.69,682.91 C818.436678,687.51321 818.436678,692.59679 816.69,697.2 C816.023497,698.846443 815.124347,700.388806 814.02,701.78 C810.3,706.5 809.02,713.91 808.66,719.78 C808.451073,722.876841 808.461098,725.984571 808.69,729.08 Z" id="Path" fill="#67647E"></path>
            <path d="M746.01,742.91 C746.01,742.91 748.34,749.91 770.18,752.25 C792.02,754.59 788.85,738.41 788.85,738.41 C788.85,738.41 788.96,737.95 789.1,737.12 C790.049211,731.649738 790.076251,726.059188 789.18,720.58 C788.42,716.32 789.08,708.93 790.03,702.16 C791.15,694.1 792.68,686.91 792.68,686.91 L758.84,689.41 C758.84,689.41 758.25,696.3 757.91,703.26 C757.8,705.43 757.71,707.6 757.68,709.58 C757.522659,712.584801 756.509513,715.481982 754.76,717.93 C750.753598,723.841467 748.003491,730.512517 746.68,737.53 C746.387979,739.104378 746.181012,740.693348 746.06,742.29 C746.01,742.69 746.01,742.91 746.01,742.91 Z" id="Path" fill="#67647E"></path>
            <path d="M808.69,729.08 L817.02,735.08 C817.02,735.08 822.19,735.08 822.19,739.75 C822.19,744.42 834.85,749.08 834.85,749.08 C834.85,749.08 853.69,754.41 868.19,749.08 C872.89,747.35 874.33,744.39 873.78,740.78 C873.33,740.78 872.9,740.84 872.54,740.85 C866.6,741.04 860.82,742.64 854.91,743.17 C851.542566,743.418239 848.163599,743.471662 844.79,743.33 C843.116195,743.318709 841.445312,743.18838 839.79,742.94 C835.79,742.23 832.08,740.16 828.51,738.13 C827.636979,737.720342 826.867822,737.11869 826.26,736.37 C825.779394,735.538755 825.441386,734.632894 825.26,733.69 C824,729.17 820.48,725.55 816.44,723.17 C813.981093,721.770958 811.375327,720.647494 808.67,719.82 C808.459626,722.90332 808.466309,725.997617 808.69,729.08 L808.69,729.08 Z" id="Path" fill="#67647E"></path>
            <path d="M746.01,742.91 C746.01,742.91 748.34,749.91 770.18,752.25 C792.02,754.59 788.85,738.41 788.85,738.41 C788.85,738.41 788.96,737.95 789.1,737.12 C788.1,737.64 787.25,738.12 786.86,738.34 C784.86,739.51 783.07,741.12 780.99,742.21 C775.99,744.84 769.99,744.06 764.35,743.21 C761.7,742.81 759.05,742.41 756.41,741.92 C754.397481,741.643849 752.438517,741.063915 750.6,740.2 C749.23413,739.403878 747.924398,738.515132 746.68,737.54 C746.387979,739.114378 746.181012,740.703348 746.06,742.3 C746.01,742.69 746.01,742.91 746.01,742.91 Z" id="Path" fill="#67647E"></path>
            <path d="M808.69,729.08 L817.02,735.08 C817.02,735.08 822.19,735.08 822.19,739.75 C822.19,744.42 834.85,749.08 834.85,749.08 C834.85,749.08 853.69,754.41 868.19,749.08 C872.89,747.35 874.33,744.39 873.78,740.78 C873.33,740.78 872.9,740.84 872.54,740.85 C866.6,741.04 860.82,742.64 854.91,743.17 C851.542566,743.418239 848.163599,743.471662 844.79,743.33 C843.116195,743.318709 841.445312,743.18838 839.79,742.94 C835.79,742.23 832.08,740.16 828.51,738.13 C827.636979,737.720342 826.867822,737.11869 826.26,736.37 C825.779394,735.538755 825.441386,734.632894 825.26,733.69 C824,729.17 820.48,725.55 816.44,723.17 C813.981093,721.770958 811.375327,720.647494 808.67,719.82 C808.459626,722.90332 808.466309,725.997617 808.69,729.08 L808.69,729.08 Z" id="Path" fill="#000000" opacity="0.1"></path>
            <path d="M746.01,742.91 C746.01,742.91 748.34,749.91 770.18,752.25 C792.02,754.59 788.85,738.41 788.85,738.41 C788.85,738.41 788.96,737.95 789.1,737.12 C788.1,737.64 787.25,738.12 786.86,738.34 C784.86,739.51 783.07,741.12 780.99,742.21 C775.99,744.84 769.99,744.06 764.35,743.21 C761.7,742.81 759.05,742.41 756.41,741.92 C754.397481,741.643849 752.438517,741.063915 750.6,740.2 C749.23413,739.403878 747.924398,738.515132 746.68,737.54 C746.387979,739.114378 746.181012,740.703348 746.06,742.3 C746.01,742.69 746.01,742.91 746.01,742.91 Z" id="Path" fill="#000000" opacity="0.1"></path>
            <path d="M816.69,682.91 C818.436678,687.51321 818.436678,692.59679 816.69,697.2 C825.44,698.69 841.75,701.7 847.75,697.73 C847.056755,693.551044 846.868738,689.303867 847.19,685.08 L816.69,682.91 Z" id="Path" fill="#000000" opacity="0.1"></path>
            <path d="M757.92,703.26 C764.1,703.7 780.73,704.57 790.04,702.16 C791.16,694.1 792.69,686.91 792.69,686.91 L758.85,689.41 C758.85,689.41 758.26,696.3 757.92,703.26 Z" id="Path" fill="#000000" opacity="0.1"></path>
            <path d="M733.52,470.08 C733.52,470.08 734.04,476.33 734.87,485.08 C736.74,504.94 740.19,537.73 742.87,540.4 C746.71,544.25 745.04,572.55 743.54,577.55 C742.04,582.55 743.54,618.55 743.54,618.55 C747.314634,633.588421 749.162773,649.045584 749.04,664.55 C748.54,688.55 755.54,701.05 755.54,701.05 C755.54,701.05 788.54,704.05 795.37,697.67 C802.2,691.29 795.37,640.55 795.37,640.55 C795.37,640.55 783.01,599.08 786.01,593.08 C789.01,587.08 792.51,572.58 792.51,572.58 L792.51,522.08 C797.36,514.08 799.51,503.08 800.44,493.14 C801.180113,484.63704 801.203529,476.086886 800.51,467.58 C800.51,467.58 806.72,480.28 813.05,492.84 C818.77,504.19 824.59,515.42 826.05,517.08 C829.05,520.58 826.55,536.58 826.05,544.58 C825.55,552.58 831.55,568.58 831.55,568.58 C824.05,573.08 822.55,626.08 822.55,626.08 C822.55,626.08 828.05,639.08 816.55,653.58 C805.05,668.08 809.55,695.58 811.05,694.58 C812.55,693.58 843.05,702.08 849.05,694.58 C855.05,687.08 861.55,666.58 861.55,666.58 C861.55,666.58 858.55,645.58 865.05,626.58 C869.87,612.5 875.78,579.49 878.52,563.32 C879.502438,557.451008 879.667338,551.474233 879.01,545.56 C877.75,533.75 875.81,511.89 876.5,494.56 C876.73,488.91 876.57,479.93 876.19,469.4 C874.9,433.3 871,379.06 871,379.06 L843.9,360.7 L826.01,348.58 L821.63,349.25 L740.01,361.86 L736.84,402.12 L733.52,470.08 Z" id="Path" fill="#444053"></path>
            <path d="M843.92,360.72 L845.35,368.58 C845.35,368.58 857.35,426.08 859.85,455.58 C862.35,485.08 872.85,476.58 872.85,476.58 C873.765782,474.102726 874.889802,471.707493 876.21,469.42 C874.92,433.32 871.02,379.08 871.02,379.08 L843.92,360.72 Z" id="Path" fill="#000000" opacity="0.1"></path>
            <path d="M758.19,142.58 C758.19,142.58 814.19,187.41 803.85,178.41 C798.19,173.47 802.04,152.41 806.68,134.41 C810.5,119.56 814.85,106.78 814.85,106.78 C814.85,106.78 765.97,61.05 769.52,98.44 C770.77,111.62 769.73,120.99 767.86,127.61 C764.43,139.74 758.19,142.58 758.19,142.58 Z" id="Path" fill="#EFB7B9"></path>
            <path d="M762.85,130.66 L798.35,158.41 L808.68,146.91 C808.68,146.91 817.52,143.08 818.18,147.41 C818.84,151.74 821.35,178.41 816.18,180.91 C811.01,183.41 804.35,185.08 798.52,184.25 C792.69,183.42 786.18,176.91 781.85,174.41 C777.52,171.91 761.52,158.91 761.52,158.91 L753.52,147.75 L762.85,130.66 Z" id="Path" fill="#000000" opacity="0.1"></path>
            <path d="M762.85,131.66 L798.35,159.41 L808.68,147.91 C808.68,147.91 817.52,144.08 818.18,148.41 C818.84,152.74 821.35,179.41 816.18,181.91 C811.01,184.41 804.35,186.08 798.52,185.25 C792.69,184.42 786.18,177.91 781.85,175.41 C777.52,172.91 761.52,159.91 761.52,159.91 L753.52,148.75 L762.85,131.66 Z" id="Path" fill="#A36468"></path>
            <path d="M733.52,470.08 C733.52,470.08 734.04,476.33 734.87,485.08 C745.87,485.5 767.21,486.8 782.19,490.72 C788.167772,492.198952 794.292963,493.000661 800.45,493.11 C801.190113,484.60704 801.213529,476.056886 800.52,467.55 C800.52,467.55 806.73,480.25 813.06,492.81 C818.474455,492.444932 823.861306,491.746946 829.19,490.72 L822.52,404.05 C822.52,404.05 822.74,374.96 821.64,349.22 L740.01,361.86 L736.84,402.12 L733.52,470.08 Z" id="Path" fill="#000000" opacity="0.1"></path>
            <path d="M794.85,156.08 C794.85,156.08 770.6,129.57 764.85,133.78 C759.1,137.99 755.38,148.25 755.38,148.25 L775.13,169.91 L794.85,156.08 Z" id="Path" fill="#000000" opacity="0.1"></path>
            <path d="M793.85,155.08 C793.85,155.08 769.6,128.57 763.85,132.78 C758.1,136.99 754.38,147.25 754.38,147.25 L774.13,168.91 L793.85,155.08 Z" id="Path" fill="#A36468"></path>
            <path d="M814.01,172.07 L800.01,154.52 C800.01,154.52 802.21,137.93 807.33,140.05 C812.45,142.17 814.01,150.66 814.01,150.66 L814.01,172.07 Z" id="Path" fill="#000000" opacity="0.1"></path>
            <path d="M815.01,170.91 L801.08,153.36 C801.08,153.36 803.28,136.77 808.4,138.89 C813.52,141.01 815.01,149.5 815.01,149.5 L815.01,170.91 Z" id="Path" fill="#A36468"></path>
            <path d="M750.85,139.41 C750.85,139.41 779.56,170.41 796.7,172.49 C798.25,172.68 799.8,172.94 801.33,173.25 C805.81,174.13 815.57,173.25 814.02,147.62 L816.18,143.08 L829.52,151.25 L834.02,187.91 L842.02,281.91 L853.85,386.58 C853.85,386.58 817.52,383.08 807.35,392.25 C797.18,401.42 794.35,342.25 794.35,342.25 L766.52,222.25 L736.85,145.08 L750.85,139.41 Z" id="Path" fill="#000000" opacity="0.1"></path>
            <path d="M736.85,149.08 L766.52,226.25 L794.35,346.25 C794.35,346.25 797.19,405.41 807.35,396.25 C810.67,393.25 816.79,391.61 823.52,390.76 C831.795714,389.866348 840.132496,389.679005 848.44,390.2 C851.76,390.38 853.85,390.58 853.85,390.58 L842.01,285.91 L834.01,191.91 L829.51,155.25 L816.18,147.08 L814.01,151.62 C814.01,152.29 814.08,152.95 814.11,153.62 C815.05,177.3 805.68,178.14 801.33,177.28 C799.79,176.97 798.25,176.71 796.69,176.52 C784.55,175.03 766.61,159.06 757.18,149.88 C753.29,146.08 750.84,143.44 750.84,143.44 L736.85,149.08 Z" id="Path" fill="#000000" opacity="0.1"></path>
            <path d="M736.85,146.08 L766.52,223.25 L794.35,343.25 C794.35,343.25 797.19,402.41 807.35,393.25 C810.67,390.25 816.79,388.61 823.52,387.76 C831.795714,386.866348 840.132496,386.679005 848.44,387.2 C851.76,387.38 853.85,387.58 853.85,387.58 L842.01,282.91 L834.01,188.91 L829.51,152.25 L816.18,144.08 L814.01,148.62 C814.01,149.29 814.08,149.95 814.11,150.62 C815.05,174.3 805.68,175.14 801.33,174.28 C799.79,173.97 798.25,173.71 796.69,173.52 C784.55,172.03 766.61,156.06 757.18,146.88 C753.29,143.08 750.84,140.44 750.84,140.44 L736.85,146.08 Z" id="Path" fill="#00235C"></path>
            <path d="M814.01,148.62 C814.01,149.29 814.08,149.95 814.11,150.62 L814.34,150.78 C817.86,153.1 823.51,192.28 823.51,192.28 L830.84,292.11 L844.34,366.61 C844.34,366.61 846.11,375.1 848.43,387.23 C851.75,387.41 853.84,387.61 853.84,387.61 L842.01,282.91 L834.01,188.91 L829.51,152.25 L816.18,144.08 L814.01,148.62 Z" id="Path" fill="#000000" opacity="0.1"></path>
            <path d="M804.83,141.95 C804.83,141.95 812.83,148.43 816.35,150.75 C819.87,153.07 825.52,192.25 825.52,192.25 L832.85,292.08 L846.35,366.58 C846.35,366.58 858.35,424.08 860.85,453.58 C863.35,483.08 873.85,474.58 873.85,474.58 C873.85,474.58 881.69,451.58 900.35,450.25 C919.01,448.92 909.35,438.41 909.35,438.41 C909.35,438.41 898.42,359.64 891.23,345.61 C891.117807,345.369095 890.990901,345.135321 890.85,344.91 C889.79,343.17 888.62,339.7 887.39,335.06 C880.28,308.22 871.19,242.06 871.19,242.06 L865.52,160.06 C851.01,136.41 806.01,137.23 806.01,137.23 L804.83,141.95 Z" id="Path" fill="#C19A6B"></path>
            <path d="M736.85,146.08 L766.52,223.25 L794.35,343.25 C794.35,343.25 797.19,402.41 807.35,393.25 C810.67,390.25 816.79,388.61 823.52,387.76 C823.4,367.42 822.78,330.92 819.85,315.58 C817.314417,301.562681 816.255295,287.318168 816.69,273.08 L780.35,193.91 C780.35,193.91 753.02,160.22 752.85,155.4 C752.79,153.62 754.73,150.32 757.19,146.85 C753.3,143.05 750.85,140.41 750.85,140.41 L736.85,146.08 Z" id="Path" fill="#000000" opacity="0.1"></path>
            <path d="M828.18,488.75 L821.52,402.08 C821.52,402.08 822.02,337.41 817.85,315.58 C815.308288,301.563389 814.245793,287.31858 814.68,273.08 L778.35,193.91 C778.35,193.91 751.02,160.22 750.85,155.4 C750.68,150.58 765.16,134.55 765.16,134.55 C765.16,134.55 733.52,138.25 729.35,152.41 C725.18,166.57 702.35,172.08 702.35,172.08 C702.35,172.08 691.35,182.08 691.52,210.75 C691.69,239.42 726.52,261.91 726.52,261.91 C726.52,261.91 732.35,315.91 727.35,340.25 C722.35,364.59 726.68,482.91 726.68,482.91 C726.68,482.91 760.18,483.25 781.18,488.75 C802.18,494.25 828.18,488.75 828.18,488.75 Z" id="Path" fill="#C19A6B"></path>
            <path d="M778.85,351.25 L753.18,448.41 C753.18,448.41 749.68,457.08 731.68,450.41 C713.68,443.74 661.35,422.08 661.35,422.08 C661.35,422.08 656.68,414.41 665.35,400.25 L691.52,323.58 L778.85,351.25 Z" id="Path" fill="#B07473"></path>
            <polygon id="Path" fill="#E1E7EF" points="745.65 394.21 704.15 348.58 677.65 337.83 666.77 392.7 717.15 447.45"></polygon>
            <path d="M701.3,409.45 C701.3,409.45 713.64,416.7 716.89,416.95 C720.14,417.2 731.62,438.87 726.77,438.7 C721.92,438.53 710.64,432.7 711.77,435.7 C712.9,438.7 720.25,447.7 722.39,446.85 C724.53,446 725.52,453.45 716.39,450.85 C707.26,448.25 695.14,445.97 695.14,445.97 C695.14,445.97 688.64,441.22 688.39,437.85 C688.14,434.48 682.52,416.72 682.52,416.72 L701.3,409.45 Z" id="Path" fill="#EFB7B9"></path>
            <path d="M899.41,153.45 C899.41,153.45 888.73,130.4 882.35,122.77 C875.97,115.14 848.14,106.95 845.35,109.2 C842.56,111.45 859.35,124.09 862.35,125.71 C865.35,127.33 842.96,142.38 842.51,142.71 C842.06,143.04 825.01,141.19 833.76,146.94 C842.51,152.69 868.38,158.55 868.38,158.55 C871.900134,157.938655 875.516716,158.803018 878.38,160.94 C883.39,164.58 899.41,153.45 899.41,153.45 Z" id="Path" fill="#EFB7B9"></path>
            <path d="M677.24,410.61 C678.653805,415.245984 680.55089,419.720557 682.9,423.96 C685.4,421.7 709.27,413.83 709.27,413.83 L706.62,409.74 L702.3,403.08 C702.3,403.08 681.02,398.46 677.4,403.08 C676.18,404.63 676.4,407.49 677.24,410.61 Z" id="Path" fill="#000000" opacity="0.1"></path>
            <path d="M676.24,409.61 C677.653805,414.245984 679.55089,418.720557 681.9,422.96 C684.4,420.7 708.27,412.83 708.27,412.83 L705.62,408.74 L701.3,402.08 C701.3,402.08 680.02,397.46 676.4,402.08 C675.18,403.63 675.4,406.49 676.24,409.61 Z" id="Path" fill="#A36468"></path>
            <path d="M875.01,158.66 C875.776512,160.376188 876.679405,162.028149 877.71,163.6 C881.56,169.67 887.39,176.83 887.39,176.83 C887.39,176.83 910.13,166.37 910.13,165.91 C910.13,165.45 903.23,154.58 897.62,146.01 C895.35,142.55 893.3,139.49 892,137.7 C892,137.7 883.51,155.46 875.13,155.58 C872.94,155.61 874.11,156.49 875.01,158.66 Z" id="Path" fill="#000000" opacity="0.1"></path>
            <path d="M876.01,159.66 C876.776512,161.376188 877.679405,163.028149 878.71,164.6 C882.56,170.67 888.39,177.83 888.39,177.83 C888.39,177.83 911.13,167.37 911.13,166.91 C911.13,166.45 904.23,155.58 898.62,147.01 C896.35,143.55 894.3,140.49 893,138.7 C893,138.7 884.51,156.46 876.13,156.58 C873.94,156.61 875.11,157.49 876.01,159.66 Z" id="Path" fill="#A36468"></path>
            <polygon id="Path" fill="#B07473" points="747.77 343.08 750.69 334.33 709.71 331.45 725.02 333.08 744.52 337.26 743.02 343.08"></polygon>
            <path d="M676.24,409.61 C680.76,407.48 692.82,403.05 705.62,408.74 L701.3,402.08 C701.3,402.08 680.02,397.46 676.4,402.08 C675.18,403.63 675.4,406.49 676.24,409.61 Z" id="Path" fill="#000000" opacity="0.1"></path>
            <path d="M673.85,355.58 C673.95,357.03 674.04,358.48 674.13,359.92 C674.38,364.33 674.55,368.7 674.66,372.92 C675.16,392.46 674.35,408.58 674.35,408.58 C674.35,408.58 689.85,399.25 706.35,407.08 L708.01,375.46 L708.01,374.91 L709.7,361.08 L715.18,316.41 C715.18,316.41 725.51,254.41 728.68,252.08 C731.85,249.75 705.18,199.58 705.18,199.58 L691.51,210.75 L683.01,268.08 L683.01,297.41 C683.01,297.41 672.01,329.25 673.85,355.58 Z" id="Path" fill="#C19A6B"></path>
            <path d="M875.52,158.25 L878.72,164.6 C882.57,170.67 888.4,177.83 888.4,177.83 C888.4,177.83 911.14,167.37 911.14,166.91 C911.14,166.45 904.24,155.58 898.63,147.01 C896.9,145.01 895.85,143.91 895.85,143.91 C902.52,160.41 875.52,158.25 875.52,158.25 Z" id="Path" fill="#000000" opacity="0.1"></path>
            <path d="M856.18,155.4 L865.52,160.08 C865.52,160.08 877.02,175.58 880.35,177.25 C883.68,178.92 885.35,178.75 885.35,178.75 L875.52,159.25 C875.52,159.25 902.52,161.41 895.85,144.91 C895.85,144.91 926.02,177.91 929.35,191.25 C929.35,191.25 946.02,218.91 942.02,232.58 C938.02,246.25 921.85,248.91 910.18,244.75 C898.51,240.59 862.68,222.25 862.68,222.25 L856.18,155.4 Z" id="Path" fill="#C19A6B"></path>
            <path d="M889.68,187.91 C889.68,187.91 914.85,216.08 912.85,219.91 C910.85,223.74 891.01,193.58 889.68,187.91 Z" id="Path" fill="#000000" opacity="0.1"></path>
            <path d="M776.1,112.08 C776.1,112.08 740.68,101.41 720.68,139.91 C700.68,178.41 700.01,181.08 701.01,182.91 C702.01,184.74 740.84,174.58 743.01,179.08 C745.18,183.58 721.01,202.08 721.01,202.08 L814.67,273.08 L775.32,189.44 C772.673696,183.58101 769.146183,178.16159 764.86,173.37 C758.39,166.13 749.54,155.04 752.67,151.62 C755.43,148.62 759.85,140.79 765.81,131.78 C770.18,125.17 777.12,117.72 776.1,112.08 Z" id="Path" fill="#000000" opacity="0.2"></path>
            <path d="M777.1,111.08 C777.1,111.08 741.68,100.41 721.68,138.91 C701.68,177.41 701.01,180.08 702.01,181.91 C703.01,183.74 741.84,173.58 744.01,178.08 C746.18,182.58 722.01,201.08 722.01,201.08 L814.67,273.08 L776.32,188.44 C773.673696,182.58101 770.146183,177.16159 765.86,172.37 C759.39,165.13 750.54,154.04 753.67,150.62 C756.43,147.62 760.85,139.79 766.81,130.78 C771.18,124.17 778.12,116.72 777.1,111.08 Z" id="Path" fill="#B69267"></path>
            <path d="M777.1,111.08 C777.1,111.08 741.68,100.41 721.68,138.91 C701.68,177.41 701.01,180.08 702.01,181.91 C703.01,183.74 741.84,173.58 744.01,178.08 C746.18,182.58 722.01,201.08 722.01,201.08 L814.67,273.08 L774.48,184.37 C772.924373,180.921547 770.816704,177.74991 768.24,174.98 C761.91,168.16 750.13,154.49 753.67,150.62 C756.43,147.62 760.85,139.79 766.81,130.78 C771.18,124.17 778.12,116.72 777.1,111.08 Z" id="Path" fill-opacity="0" fill="#000000" opacity="0.1"></path>
            <circle id="Oval" fill="#444053" cx="783.85" cy="280.24" r="7.33"></circle>
            <circle id="Oval" fill="#444053" cx="784.85" cy="325.74" r="7.33"></circle>
            <path d="M674.66,372.92 C678.88,373.92 698.89,373.47 707.99,375.46 L707.99,374.91 L709.68,361.08 C699.42,359.8 677.12,357.37 674.1,359.92 C670.19,363.25 669.63,371.77 674.66,372.92 Z" id="Path" fill="#B69267"></path>
            <path d="M674.66,373.92 C678.88,374.92 698.89,374.47 707.99,376.46 L707.99,375.91 L709.68,362.08 C699.42,360.8 677.12,358.37 674.1,360.92 C670.19,364.25 669.63,372.77 674.66,373.92 Z" id="Path" fill="#000000" opacity="0.1"></path>
            <path d="M674.66,372.92 C678.88,373.92 698.89,373.47 707.99,375.46 L707.99,374.91 L709.68,361.08 C699.42,359.8 677.12,357.37 674.1,359.92 C670.19,363.25 669.63,371.77 674.66,372.92 Z" id="Path" fill="#B69267" opacity="0.1"></path>
            <circle id="Oval" fill="#444053" cx="680.02" cy="366.24" r="4.42"></circle>
            <path d="M762.52,383.91 L743.85,447.58 C743.85,447.58 738.85,449.91 738.85,445.75 C738.85,441.59 762.52,383.91 762.52,383.91 Z" id="Path" fill="#FFFFFF" opacity="0.1"></path>
            <path d="M769.68,124.48 C770.859069,125.426014 772.091064,126.304103 773.37,127.11 C779.72,131.11 785.37,136.55 793.47,136.55 C797.962585,136.556552 802.4256,135.823414 806.68,134.38 C810.5,119.53 814.85,106.75 814.85,106.75 C814.85,106.75 765.97,61.02 769.52,98.41 C770.77,111.59 771.55,117.86 769.68,124.48 Z" id="Path" fill="#000000" opacity="0.1"></path>
            <path d="M752.41,93.49 C752.41,116.166812 770.793188,134.55 793.47,134.55 C816.146812,134.55 834.53,116.166812 834.53,93.49 C834.53,70.8131882 816.146812,52.43 793.47,52.43 C782.564712,52.3791836 772.091389,56.6888153 764.380102,64.4001021 C756.668815,72.111389 752.359184,82.5847119 752.41,93.49 L752.41,93.49 Z" id="Path" fill="#EFB7B9"></path>
            <path d="M816.74,127.86 C817.117412,128.79937 817.791685,129.589534 818.66,130.11 L825.18,134.11 L837.37,141.52 L856.66,153.24 C857.113333,153.513333 857.573333,153.763333 858.04,153.99 C862.622685,156.318149 868.025385,156.392007 872.67,154.19 C876.181804,152.61035 878.722209,149.441352 879.5,145.67 C880.547032,140.391728 878.52711,134.974313 874.28,131.67 C874.175692,131.580581 874.052682,131.515658 873.92,131.48 C869.814461,130.327929 865.951939,128.440714 862.52,125.91 L850.38,117.51 L839.54,107.6 L834.06,103.81 C832.419939,102.673182 830.268164,102.595078 828.55,103.61 C822.93,106.86 811.74,115.22 816.74,127.86 Z" id="Path" fill="#E1E7EF"></path>
            <path d="M825.18,134.05 L837.37,141.46 C839.91,131.22 846.37,123.99 851.98,118.53 L839.54,107.53 C830.08,112.22 826.32,127.86 825.18,134.05 Z" id="Path" fill="#A36468"></path>
            <path d="M858.01,153.93 C862.592685,156.258149 867.995385,156.332007 872.64,154.13 C876.151804,152.55035 878.692209,149.381352 879.47,145.61 C880.517032,140.331728 878.49711,134.914313 874.25,131.61 C871.222454,132.891505 868.420163,134.650533 865.95,136.82 C862.503638,139.803922 860.007415,143.732517 858.77,148.12 C858.280316,150.018356 858.025081,151.969561 858.01,153.93 L858.01,153.93 Z" id="Path" fill="#000000" opacity="0.1"></path>
            <path d="M752.41,93.49 C752.401623,99.4699812 753.705625,105.378951 756.23,110.8 C758.706964,113.266443 760.594037,116.261145 761.75,119.56 C764.53,122.94 765.62,124.85 769.33,127.19 C770.82,125.62 774.18,124.67 774.79,122.64 C776.34,117.41 775.46,111.82 775.38,106.37 C775.38,103.95 775.72,101.09 777.85,99.93 C779.62,98.93 781.85,99.65 783.59,100.63 C785.33,101.61 787.06,102.88 789.06,103.11 C792.06,103.45 794.8,101.34 796.48,98.86 C798.16,96.38 799.13,93.48 800.72,90.94 C802.82,87.59 805.92,85.02 808.97,82.52 C812.46,79.64 815.85,76.45 819.57,73.87 C821.79,72.32 824.45,71.6 826.64,70.04 L826.99,69.78 C816.661899,55.1808475 798.072565,48.9453341 781.029987,54.3634023 C763.987409,59.7814705 752.411553,75.6069094 752.41,93.49 L752.41,93.49 Z" id="Path" fill="#000000" opacity="0.1"></path>
            <path d="M833.31,48.1 C832.44,42.34 827.67,36.93 821.85,36.83 C817.04,36.75 812.94,40.01 808.68,42.24 C799.846884,46.7921218 789.441706,47.1588888 780.31,43.24 C777.7,42.09 775.04,40.56 772.19,40.8 C769.34,41.04 767.07,42.9 765.09,44.8 C760.415657,49.4315444 756.751943,54.9815949 754.33,61.1 C753.62,62.9 752.97,64.81 751.59,66.17 C750.529626,67.0402768 749.38377,67.8008306 748.17,68.44 C743.946589,71.2438012 741.030508,75.6305386 740.08,80.61 C739.178406,85.5672868 739.687761,90.6781595 741.55,95.36 C742.676586,98.5705847 744.512029,101.486102 746.92,103.89 C748.74,105.6 750.92,106.89 752.83,108.48 C759.1564,113.865028 762.193274,122.174676 760.83,130.37 C766.15,131.59 771.25,126.83 772.83,121.6 C774.41,116.37 773.5,110.79 773.42,105.33 C773.42,102.91 773.76,100.06 775.89,98.9 C777.66,97.9 779.89,98.62 781.63,99.6 C783.37,100.58 785.09,101.84 787.1,102.08 C790.1,102.42 792.84,100.31 794.52,97.83 C796.2,95.35 797.16,92.45 798.76,89.91 C800.85,86.56 803.96,83.99 807.01,81.49 C810.5,78.61 813.89,75.42 817.6,72.84 C819.83,71.29 822.49,70.57 824.68,69.01 C831.26,64.3 833.31,55.66 833.31,48.1 Z" id="Path" fill="#585268"></path>
            <path d="M801.52,116.75 C801.52,116.75 802.08,116.88 803.05,117.15 C802.584954,116.882226 802.056596,116.744093 801.52,116.75 Z" id="Path" fill="#000000" opacity="0.1"></path>
            <g id="Group" opacity="0.1" transform="translate(743.000000, 40.000000)" fill="#000000">
                <path d="M27.79,78.37 C29.34,73.14 28.46,67.55 28.38,62.1 C28.38,59.68 28.72,56.82 30.85,55.66 C32.62,54.66 34.85,55.38 36.59,56.36 C38.33,57.34 40.05,58.61 42.06,58.84 C45.06,59.18 47.8,57.08 49.48,54.59 C51.16,52.1 52.12,49.21 53.72,46.67 C55.81,43.32 58.92,40.75 61.97,38.25 C65.46,35.38 68.85,32.18 72.56,29.6 C74.79,28.05 77.45,27.33 79.64,25.77 C86.26,21.03 88.31,12.39 88.31,4.84 C88.0870204,3.39229495 87.6382274,1.9885513 86.98,0.68 C88.7429445,2.71267167 89.8970933,5.20119661 90.31,7.86 C90.31,15.41 88.31,24.05 81.64,28.79 C79.45,30.35 76.79,31.07 74.56,32.62 C70.85,35.2 67.46,38.4 63.97,41.27 C60.92,43.77 57.81,46.34 55.72,49.69 C54.12,52.23 53.17,55.13 51.48,57.61 C49.79,60.09 47.04,62.2 44.06,61.86 C42.06,61.63 40.36,60.35 38.59,59.38 C36.82,58.41 34.59,57.72 32.85,58.68 C30.72,59.84 30.34,62.68 30.38,65.12 C30.46,70.57 31.38,76.12 29.79,81.39 C28.2,86.66 23.13,91.39 17.79,90.15 C17.9579891,89.2115121 18.0615644,88.2626293 18.1,87.31 C22.55,86.93 26.46,82.86 27.79,78.37 Z" id="Path"></path>
                <path d="M1.92,60.65 C3.74,62.36 5.92,63.65 7.83,65.24 C9.93298754,67.011927 11.698076,69.1496829 13.04,71.55 C12.0870844,70.3388556 11.0113511,69.2296103 9.83,68.24 C7.91,66.65 5.74,65.36 3.92,63.65 C2.46725781,62.2540624 1.23938319,60.6416336 0.28,58.87 C0.787008471,59.4986835 1.33486005,60.0933029 1.92,60.65 L1.92,60.65 Z" id="Path"></path>
            </g>
            <path d="M800.16,457.61 C800.89,459.78 801.93,461.9 802.07,464.19 C802.31,468.08 799.93,471.71 799.76,475.61 C799.56,480.15 802.32,484.22 804.96,487.91 C801.83,487.91 798.41,486.83 796.82,484.14 C796.275401,483.104609 795.881425,481.996763 795.65,480.85 C792.82,469.56 790.07,457.21 794.99,446.67 C795.744314,444.846736 796.84843,443.188863 798.24,441.79 C799.07,447.11 798.37,452.34 800.16,457.61 Z" id="Path" fill="#000000" opacity="0.1"></path>
            <path d="M878.38,377.93 L886.69,366.72 C888.69,364.01 890.76,361.19 891.48,357.9 C892.26,354.29 891.35,350.55 891.23,346.9 C891.23,346.49 891.23,346.07 891.23,345.65 C891.117807,345.409095 890.990901,345.175321 890.85,344.95 C889.79,343.21 888.62,339.74 887.39,335.1 C886.177952,336.304044 885.236974,337.753014 884.63,339.35 C880.76,348.79 884.34,359.87 881.14,369.55 C880.22,372.33 878.72,374.99 878.38,377.93 Z" id="Path" fill="#000000" opacity="0.1"></path>
            <path d="M857.22,717.27 C848.912677,723.222631 838.439079,725.296935 828.49,722.96" id="Path" fill="#000000" opacity="0.1"></path>
            <path d="M788.37,718.92 C784.12042,722.900947 778.412242,724.944749 772.601623,724.565837 C766.791004,724.186925 761.396592,721.419119 757.7,716.92" id="Path" fill="#000000" opacity="0.1"></path>
            <path d="M832.25,568.17 C840.440644,570.058418 848.895567,566.31968 853.01,558.99" id="Path" fill="#000000" opacity="0.1"></path>
            <path d="M784.85,593.44 C778.513913,593.904294 772.211039,592.174094 767,588.54" id="Path" fill="#000000" opacity="0.1"></path>
            <path d="M817.2,653.86 C822.53,656.03 827.28,659.4 832.47,661.86 C837.66,664.32 843.67,665.94 849.17,664.22" id="Path" fill="#000000" opacity="0.1"></path>
            <path d="M710.2,243 C715.863437,244.974058 720.910591,248.039761 726.42527,250.277633 C731.939949,252.515505 738.325927,253.989226 744.17,252.424535" id="Path-Copy" fill="#000000" opacity="0.1" transform="translate(727.185000, 248.037352) rotate(-108.000000) translate(-727.185000, -248.037352) "></path>
            <ellipse id="Oval" fill="#5F5D7E" cx="529.34" cy="644.14" rx="85.12" ry="24.55"></ellipse>
            <ellipse id="Oval" fill="#000000" opacity="0.1" cx="529.34" cy="636.23" rx="17.03" ry="4.91"></ellipse>
            <rect id="Rectangle" fill="#5F5D7E" x="519.87" y="506.73" width="17.5" height="129.5"></rect>
            <path d="M537.37,513.14 L537.37,528.14 C533.87,527.06 525.88,522.51 519.87,518.93 L519.87,506.73 L523.52,506.73 L537.37,513.14 Z" id="Path" fill="#000000" opacity="0.1"></path>
            <path d="M496.14,450.35 C496.14,450.35 553.92,435.48 568.3,424.35 C582.68,413.22 639.15,465.6 631.69,485.35 C624.23,505.1 597.07,519.43 597.07,519.43 C597.07,519.43 521.95,531.65 509.17,506.16 C496.39,480.67 496.14,450.35 496.14,450.35 Z" id="Path" fill="#474157"></path>
            <path d="M496.14,450.35 C496.14,450.35 553.92,435.48 568.3,424.35 C582.68,413.22 639.15,465.6 631.69,485.35 C624.23,505.1 597.07,519.43 597.07,519.43 C597.07,519.43 521.95,531.65 509.17,506.16 C496.39,480.67 496.14,450.35 496.14,450.35 Z" id="Path" fill="#000000" opacity="0.1"></path>
            <path d="M491.14,444.35 C491.14,444.35 548.92,429.48 563.3,418.35 C577.68,407.22 634.15,459.6 626.69,479.35 C619.23,499.1 592.07,513.43 592.07,513.43 C592.07,513.43 516.95,525.65 504.17,500.16 C491.39,474.67 491.14,444.35 491.14,444.35 Z" id="Path" fill="#474157"></path>
            <path d="M609.9,342.44 C609.68,342.44 609.47,342.39 609.26,342.35 C609.477488,342.326922 609.697312,342.357835 609.9,342.44 L609.9,342.44 Z" id="Path" fill="#000000" opacity="0.1"></path>
            <path d="M438.72,400.07 C432.95,398.66 417.04,397.36 409.47,422.75 C407.707577,428.647522 405.463354,434.390192 402.76,439.92 C395.49,454.83 386.12,485.48 427.37,492.23 L526.37,514.73 C526.37,514.73 579.37,521.23 582.87,518.73 C586.37,516.23 585.87,510.73 585.87,510.73 C585.87,510.73 527.37,510.73 515.87,492.73 C504.37,474.73 503.87,450.23 503.87,450.23 C503.87,450.23 505.31,412.4 444.87,401.41 C442.83,401.04 440.77,400.57 438.72,400.07 Z" id="Path" fill="#474157"></path>
            <path d="M438.72,400.24 C432.95,398.83 417.04,397.53 409.47,422.92 C407.705881,428.820172 405.46172,434.566027 402.76,440.1 C395.49,455 386.12,485.66 427.37,492.41 L526.37,514.91 C526.37,514.91 579.37,521.41 582.87,518.91 C586.37,516.41 585.87,510.91 585.87,510.91 C585.87,510.91 527.37,510.91 515.87,492.91 C504.37,474.91 503.87,450.41 503.87,450.41 C503.87,450.41 505.31,412.58 444.87,401.59 C442.83,401.21 440.77,400.74 438.72,400.24 Z" id="Path" fill="#000000" opacity="0.1"></path>
            <path d="M646.25,374.2 C645.064786,366.629029 638.461353,361.102661 630.8,361.27 C618.09,361.51 581.8,363.05 559.68,372.83 C554.82,374.98 549.95,377.07 544.95,378.83 C540.43,380.44 535.04,383.01 532.37,386.7 C529.7,390.39 466.87,438.7 557.37,485.2 C557.37,485.2 605.87,499.01 624.87,466.61 C624.87,466.61 638.37,431.8 637.37,419.75 C636.37,407.7 646.37,375.2 646.37,375.2 C646.37,375.2 646.35,374.86 646.25,374.2 Z" id="Path" fill="#474157"></path>
            <path d="M646.25,382.96 C645.11,375.96 638.45,370.9 630.8,371.03 C616.56,371.27 572.73,373.03 552.37,385.3 C552.37,385.3 536.87,394.53 532.37,394.53 C527.87,394.53 466.87,442.53 557.37,485.46 C557.37,485.46 605.87,498.2 624.87,468.29 C624.87,468.29 638.37,436.16 637.37,425.04 C636.37,413.92 646.37,383.91 646.37,383.91 C646.37,383.91 646.35,383.56 646.25,382.96 Z" id="Path" fill="#000000" opacity="0.1"></path>
            <rect id="Rectangle" fill="#5F5D7E" x="581.87" y="485.23" width="16" height="34.07"></rect>
        </g>
    </g>
</svg>