<?xml version="1.0" encoding="UTF-8"?>
<svg width="179px" height="97px" viewBox="0 0 179 97" version="1.1" xmlns="http://www.w3.org/2000/svg" xmlns:xlink="http://www.w3.org/1999/xlink">
    <!-- Generator: Sketch 53.2 (72643) - https://sketchapp.com -->
    <title>Group</title>
    <desc>Created with Sketch.</desc>
    <g id="Page-1" stroke="none" stroke-width="1" fill="none" fill-rule="evenodd">
        <g id="Group" transform="translate(-1.000000, 0.000000)" fill="#000000" fill-rule="nonzero">
            <g id="ha" transform="translate(49.000000, 0.000000)">
                <path d="M66.5614621,50.6520184 L47.5561001,50.6520184 L51.0203144,44.3694049 L63.758829,44.0924283 L63.767937,44.0924283 C63.7629711,44.0807676 63.7580052,44.0691069 63.7530393,44.0574463 C62.5198727,41.1617975 60.6983284,36.8206657 58.2884064,31.0340508 L62.0252334,24.3175783 L82,67.3379271 L73.6635822,67.3287958 C71.3054917,61.7916677 68.9381186,56.2327419 66.5614621,50.6520184 Z M38.2823423,62.9503274 C38.0975941,63.2808907 37.8576463,63.2808907 37.7799168,63.2808907 L34.6617249,63.2808907 C33.011381,63.2797623 31.1075715,63.2786343 29.9742978,63.2786343 L42.1012266,41.5460651 C42.3028725,41.1850405 42.2983664,40.7450411 42.0888347,40.3885291 C41.879303,40.0320171 41.4985412,39.8131459 41.0862368,39.8131459 L41.0851104,39.8131459 L20.4169487,39.8402227 L16.3074239,32.7370583 L46.411271,32.7370583 C46.4135239,32.7370583 46.4157771,32.7359303 46.4191565,32.7359303 C46.4225361,32.7359303 46.424789,32.7370583 46.4270423,32.7370583 C46.44394,32.7370583 46.4597109,32.7314174 46.4766087,32.730289 C46.5441996,32.7257764 46.6117904,32.7190071 46.676002,32.7032122 C46.7255684,32.6919303 46.7740086,32.6761355 46.8224489,32.6580842 C46.8483586,32.6479303 46.8731418,32.6377765 46.8979253,32.6264945 C47.1232282,32.5260843 47.3226212,32.3613667 47.4499172,32.1278291 L52.4122138,22.9702074 L60.6042272,22.9702074 L38.2823423,62.9503274 Z M27.9544573,62.1244828 C27.6908529,61.6912531 27.3483926,61.1282799 26.9755162,60.5156658 C25.7217056,58.4499265 24.115296,55.8054192 23.9339271,55.5154713 C23.8730952,55.4173175 23.8449324,55.1781387 23.9722286,54.9502417 C24.2628693,54.4290121 29.751248,44.5606228 31.0884206,42.1552947 L39.1024449,42.1451408 L27.9544573,62.1244828 Z M14.2875834,48.5239989 L10.3042282,41.4591936 L14.3191258,33.9464917 L18.3464152,40.9063742 C17.0948576,43.2586769 15.1414814,46.9275922 14.2875834,48.5239989 Z M8.94114559,49.6239965 C6.91341948,49.6239965 4.89695855,49.6228685 4.60068521,49.6228685 L4.5995587,49.6228685 C4.40129215,49.6228685 4.16134456,49.4840995 4.05207268,49.3058435 L2.75545447,47.1724123 C1.83171258,45.651595 0.653378411,43.7122143 0,42.6392937 L8.29790582,42.6392937 L12.2362005,49.6251249 C11.3766699,49.6251249 10.1600343,49.6239965 8.94114559,49.6239965 Z M22.4142591,0.3316916 C22.5990074,0 22.8378285,0 22.9155579,0 L30.7549723,0.00112820249 L18.5953748,21.7336972 C18.5852362,21.7517484 18.5796037,21.7709279 18.5705916,21.7901074 C18.5525673,21.8262098 18.5367961,21.8634405 18.5221514,21.9017994 C18.5097597,21.9390301 18.4984947,21.9751327 18.4883559,22.0123632 C18.4793438,22.0473376 18.4714583,22.0823119 18.4658258,22.1172862 C18.4590666,22.1612861 18.4545606,22.2041578 18.4534341,22.2470295 C18.4523076,22.2662089 18.4478014,22.2842602 18.4478014,22.3045679 C18.4478014,22.3192345 18.451181,22.3327728 18.4523076,22.3474394 C18.4534341,22.3903112 18.45794,22.4320547 18.4646992,22.4737982 C18.4692052,22.5087725 18.4748379,22.5437467 18.4838499,22.578721 C18.4928621,22.6159517 18.5052537,22.650926 18.5176454,22.6870285 C18.5300371,22.7220028 18.5424287,22.7581052 18.5581999,22.7919513 C18.573971,22.8257975 18.5919954,22.8573871 18.6111461,22.890105 C18.6302968,22.9216947 18.648321,22.9532844 18.6708513,22.9837458 C18.6922551,23.0142073 18.7170385,23.0424124 18.7429482,23.0717456 C18.7677316,23.0988225 18.792515,23.1270276 18.8195513,23.1529762 C18.8465875,23.1777967 18.8747505,23.1992325 18.9040398,23.2217966 C18.9367088,23.2477453 18.9693777,23.2714375 19.0042997,23.2928733 C19.0178178,23.3007708 19.0279564,23.3109246 19.0414746,23.318822 C19.0549928,23.3267194 19.0696374,23.3289759 19.0842822,23.3357451 C19.1439874,23.3662066 19.2070722,23.3921552 19.2735366,23.4124629 C19.2971935,23.4192321 19.3197238,23.4282577 19.344507,23.4338987 C19.4289956,23.4542063 19.5157372,23.4666167 19.6069848,23.4666167 C19.6081114,23.4666167 19.6081114,23.4677448 19.6092379,23.4677448 L19.6103645,23.4677448 L19.611491,23.4677448 L20.1263081,23.4666167 C20.1285611,23.4666167 20.1308142,23.4677448 20.1330671,23.4677448 L20.1341937,23.4677448 L40.2830319,23.440668 C40.8158736,24.3657942 41.8117121,26.106611 42.6599776,27.5890694 C43.311103,28.7285541 43.8495769,29.668347 44.2731464,30.4073196 L14.2898365,30.4073196 C14.2763182,30.4073196 14.2639266,30.4118325 14.251535,30.4129605 C13.8437367,30.4197299 13.4505832,30.6352165 13.2433045,31.0221901 L8.27988158,40.309555 L0.093500705,40.309555 C3.66680471,33.9081327 22.175438,0.758152228 22.4142591,0.3316916 Z M52.3986954,20.6415969 L48.4592741,13.6557658 L56.0914102,13.6580222 C56.2953093,13.6580222 56.5330038,13.7934064 56.6445289,13.9761754 C56.7661923,14.1758672 57.3857751,15.1957624 58.1304014,16.4209906 C59.0214742,17.8876542 60.0871572,19.6408811 60.6966013,20.6415969 L52.3986954,20.6415969 Z M32.7590416,1.18348465 L33.4867701,2.37937955 C34.7653641,4.48460581 36.5711669,7.45629178 36.7626741,7.76541932 C36.8235062,7.86357296 36.8516688,8.10162374 36.7232464,8.33064888 L29.6070541,21.125596 L21.5964096,21.1357497 L32.7590416,1.18348465 Z M46.4056384,14.7489942 L50.3912467,21.8171842 L46.3279088,29.3140913 C45.8435078,28.4701956 45.2419488,27.4187108 44.6775653,26.4315333 C43.5623159,24.4808708 42.7489723,23.0604636 42.2904809,22.2662089 C43.1567706,20.6833405 45.4469744,16.495452 46.4056384,14.7489942 Z M73.9732448,68.5247099 L81.7464966,68.5374487 L79.2228374,73 L71.5595926,72.9874418 L73.9732448,68.5247099 Z M46.8126373,52.0586638 L63.5124229,52.0586638 L61.1689666,56.1111345 L44.4274093,56.1111345 L46.8126373,52.0586638 Z M57.7103783,32.7373401 L62.2903713,42.9955478 L59.0049349,43.0125433 L55.6614757,36.2058591 L57.7103783,32.7373401 Z M62.7300147,56.802018 L65.0781618,52.7300042 L71.9246335,67.9787931 L69.4100172,72.399205 L62.7300147,56.802018 Z" id="Shape"></path>
            </g>
            <path d="M1.86464831,96 L1.86464831,81.6835938 L3.75917956,81.6835938 L3.75917956,87.5625 L11.2005858,87.5625 L11.2005858,81.6835938 L13.0951171,81.6835938 L13.0951171,96 L11.2005858,96 L11.2005858,89.2519531 L3.75917956,89.2519531 L3.75917956,96 L1.86464831,96 Z M23.0590494,94.7207031 C22.4080044,95.2740913 21.7813831,95.6647124 21.1791666,95.8925781 C20.57695,96.1204438 19.9307976,96.234375 19.24069,96.234375 C18.1013614,96.234375 17.2257191,95.9560575 16.6137369,95.3994141 C16.0017546,94.8427707 15.6957681,94.1315147 15.6957681,93.265625 C15.6957681,92.75781 15.8113269,92.2939474 16.0424478,91.8740234 C16.2735688,91.4540995 16.5763001,91.1171888 16.9506509,90.8632812 C17.3250018,90.6093737 17.746547,90.4173184 18.2152994,90.2871094 C18.5603532,90.1959631 19.0811813,90.1080733 19.7777994,90.0234375 C21.1970773,89.8541658 22.2419887,89.6523449 22.912565,89.4179688 C22.9190754,89.1770821 22.9223306,89.0240889 22.9223306,88.9589844 C22.9223306,88.242835 22.7563167,87.7382827 22.4242837,87.4453125 C21.9750627,87.0481751 21.3077517,86.8496094 20.4223306,86.8496094 C19.5955036,86.8496094 18.9851581,86.9944647 18.5912759,87.2841797 C18.1973938,87.5738947 17.9060555,88.0865849 17.7172525,88.8222656 L15.9985025,88.5878906 C16.1547533,87.8522099 16.4119122,87.2581403 16.7699869,86.8056641 C17.1280616,86.3531878 17.6456345,86.004884 18.3227212,85.7607422 C18.999808,85.5166003 19.7843053,85.3945312 20.6762369,85.3945312 C21.561658,85.3945312 22.2810518,85.4986969 22.83444,85.7070312 C23.3878282,85.9153656 23.7947251,86.1774073 24.0551431,86.4931641 C24.3155611,86.8089208 24.4978509,87.2076799 24.6020181,87.6894531 C24.6606122,87.9889338 24.6899087,88.529293 24.6899087,89.3105469 L24.6899087,91.6542969 C24.6899087,93.2884196 24.7273433,94.3219379 24.8022134,94.7548828 C24.8770836,95.1878277 25.0251941,95.6028626 25.2465494,96 L23.4106119,96 C23.2283193,95.6354148 23.111133,95.2089868 23.0590494,94.7207031 Z M22.912565,90.7949219 C22.274541,91.0553398 21.3175193,91.2766918 20.0414712,91.4589844 C19.3188114,91.5631516 18.8077488,91.6803379 18.5082681,91.8105469 C18.2087875,91.9407559 17.97767,92.1311836 17.8149087,92.3818359 C17.6521475,92.6324882 17.5707681,92.9108058 17.5707681,93.2167969 C17.5707681,93.6855492 17.7481752,94.0761703 18.1029947,94.3886719 C18.4578142,94.7011734 18.9770147,94.8574219 19.6606119,94.8574219 C20.3376986,94.8574219 20.9399061,94.7093114 21.4672525,94.4130859 C21.9945989,94.1168605 22.3819648,93.7115911 22.6293619,93.1972656 C22.8181649,92.8001282 22.912565,92.2141966 22.912565,91.4394531 L22.912565,90.7949219 Z M27.6811848,96 L27.6811848,85.6289062 L29.263216,85.6289062 L29.263216,87.1035156 C30.0249386,85.964187 31.125188,85.3945312 32.5639973,85.3945312 C33.1890004,85.3945312 33.7635389,85.5068348 34.2876301,85.7314453 C34.8117213,85.9560558 35.20397,86.2506492 35.4643879,86.6152344 C35.7248059,86.9798195 35.9070957,87.4127579 36.0112629,87.9140625 C36.0763674,88.239585 36.1089192,88.8092407 36.1089192,89.6230469 L36.1089192,96 L34.3511067,96 L34.3511067,89.6914062 C34.3511067,88.9752568 34.282748,88.4397804 34.1460285,88.0849609 C34.0093091,87.7301415 33.7667985,87.4469412 33.4184895,87.2353516 C33.0701805,87.023762 32.6616559,86.9179688 32.1929035,86.9179688 C31.4442019,86.9179688 30.7980495,87.1555966 30.254427,87.6308594 C29.7108045,88.1061222 29.4389973,89.0078059 29.4389973,90.3359375 L29.4389973,96 L27.6811848,96 Z M45.799414,96 L45.799414,94.6914062 C45.1418586,95.7200572 44.1750714,96.234375 42.8990234,96.234375 C42.0721963,96.234375 41.3121128,96.0065127 40.6187499,95.5507812 C39.9253871,95.0950498 39.3882831,94.4586629 39.0074218,93.6416016 C38.6265605,92.8245402 38.4361327,91.885422 38.4361327,90.8242188 C38.4361327,89.7890573 38.608657,88.8499391 38.9537109,88.0068359 C39.2987647,87.1637328 39.8163376,86.5175804 40.5064452,86.0683594 C41.1965528,85.6191384 41.9680295,85.3945312 42.8208984,85.3945312 C43.4459015,85.3945312 44.0025365,85.5263659 44.4908202,85.7900391 C44.9791039,86.0537123 45.3762354,86.3971333 45.6822265,86.8203125 L45.6822265,81.6835938 L47.4302734,81.6835938 L47.4302734,96 L45.799414,96 Z M40.2427734,90.8242188 C40.2427734,92.1523504 40.5227185,93.145179 41.0826171,93.8027344 C41.6425157,94.4602897 42.3033164,94.7890625 43.065039,94.7890625 C43.833272,94.7890625 44.4859347,94.474938 45.0230468,93.8466797 C45.5601589,93.2184213 45.8287109,92.2597721 45.8287109,90.9707031 C45.8287109,89.5514252 45.5552761,88.5097689 45.0083984,87.8457031 C44.4615206,87.1816373 43.7876992,86.8496094 42.986914,86.8496094 C42.2056601,86.8496094 41.5529973,87.1686166 41.0289062,87.8066406 C40.504815,88.4446646 40.2427734,89.450514 40.2427734,90.8242188 Z M49.7574869,92.9042969 L51.4957682,92.6308594 C51.5934249,93.3274774 51.8652321,93.8613263 52.3111978,94.2324219 C52.7571636,94.6035175 53.3805298,94.7890625 54.181315,94.7890625 C54.9886107,94.7890625 55.5875631,94.6246761 55.97819,94.2958984 C56.368817,93.9671208 56.5641275,93.5813824 56.5641275,93.1386719 C56.5641275,92.7415345 56.3916032,92.4290376 56.0465494,92.2011719 C55.8056628,92.0449211 55.2067104,91.8463554 54.2496744,91.6054688 C52.9606055,91.2799463 52.0670597,90.9983736 51.5690103,90.7607422 C51.070961,90.5231108 50.6933606,90.194338 50.4361978,89.7744141 C50.1790351,89.3544901 50.0504557,88.8906275 50.0504557,88.3828125 C50.0504557,87.9205706 50.1562489,87.492515 50.3678385,87.0986328 C50.5794281,86.7047506 50.8675111,86.3776055 51.2320963,86.1171875 C51.5055352,85.9153636 51.8782528,85.7444668 52.3502603,85.6044922 C52.8222679,85.4645175 53.3284477,85.3945312 53.868815,85.3945312 C54.6826212,85.3945312 55.3971323,85.5117176 56.0123697,85.7460938 C56.6276072,85.9804699 57.0817042,86.2978496 57.3746744,86.6982422 C57.6676446,87.0986348 57.8694655,87.6341112 57.9801432,88.3046875 L56.2613932,88.5390625 C56.1832678,88.0052057 55.9570331,87.5885432 55.5826822,87.2890625 C55.2083314,86.9895818 54.6793653,86.8398438 53.9957682,86.8398438 C53.1884725,86.8398438 52.6123063,86.973306 52.2672525,87.2402344 C51.9221987,87.5071628 51.7496744,87.8196597 51.7496744,88.1777344 C51.7496744,88.4056001 51.8212883,88.6106762 51.9645182,88.7929688 C52.107748,88.9817718 52.3323552,89.1380202 52.6383463,89.2617188 C52.8141284,89.3268232 53.3317014,89.4765613 54.1910807,89.7109375 C55.4345765,90.0429704 56.3020808,90.3147776 56.7936197,90.5263672 C57.2851586,90.7379568 57.670897,91.0455709 57.9508463,91.4492188 C58.2307956,91.8528666 58.3707682,92.3541637 58.3707682,92.953125 C58.3707682,93.5390654 58.1998714,94.0908177 57.8580728,94.6083984 C57.5162743,95.1259792 57.0231151,95.5263658 56.3785807,95.8095703 C55.7340462,96.0927749 55.0048868,96.234375 54.1910807,96.234375 C52.8434177,96.234375 51.8164097,95.9544299 51.110026,95.3945312 C50.4036422,94.8346326 49.9528004,94.0045628 49.7574869,92.9042969 Z M60.7272786,96 L60.7272786,81.6835938 L62.4850911,81.6835938 L62.4850911,86.8203125 C63.3054077,85.8697869 64.3405536,85.3945312 65.5905598,85.3945312 C66.3587928,85.3945312 67.0261039,85.5458969 67.592513,85.8486328 C68.158922,86.1513687 68.5641914,86.5696588 68.8083333,87.1035156 C69.0524751,87.6373725 69.1745442,88.4121043 69.1745442,89.4277344 L69.1745442,96 L67.4167317,96 L67.4167317,89.4277344 C67.4167317,88.5488237 67.2263039,87.9091817 66.8454427,87.5087891 C66.4645814,87.1083964 65.9258498,86.9082031 65.2292317,86.9082031 C64.7083958,86.9082031 64.2184918,87.0432929 63.7595052,87.3134766 C63.3005185,87.5836602 62.9733733,87.9498675 62.7780598,88.4121094 C62.5827464,88.8743513 62.4850911,89.5123657 62.4850911,90.3261719 L62.4850911,96 L60.7272786,96 Z M78.8845703,94.7207031 C78.2335253,95.2740913 77.606904,95.6647124 77.0046875,95.8925781 C76.4024709,96.1204438 75.7563185,96.234375 75.0662109,96.234375 C73.9268823,96.234375 73.05124,95.9560575 72.4392578,95.3994141 C71.8272755,94.8427707 71.521289,94.1315147 71.521289,93.265625 C71.521289,92.75781 71.6368478,92.2939474 71.8679687,91.8740234 C72.0990897,91.4540995 72.401821,91.1171888 72.7761718,90.8632812 C73.1505227,90.6093737 73.5720679,90.4173184 74.0408203,90.2871094 C74.3858741,90.1959631 74.9067022,90.1080733 75.6033203,90.0234375 C77.0225982,89.8541658 78.0675096,89.6523449 78.7380859,89.4179688 C78.7445963,89.1770821 78.7478515,89.0240889 78.7478515,88.9589844 C78.7478515,88.242835 78.5818376,87.7382827 78.2498046,87.4453125 C77.8005836,87.0481751 77.1332726,86.8496094 76.2478515,86.8496094 C75.4210245,86.8496094 74.810679,86.9944647 74.4167968,87.2841797 C74.0229147,87.5738947 73.7315764,88.0865849 73.5427734,88.8222656 L71.8240234,88.5878906 C71.9802742,87.8522099 72.2374331,87.2581403 72.5955078,86.8056641 C72.9535825,86.3531878 73.4711554,86.004884 74.1482421,85.7607422 C74.8253289,85.5166003 75.6098262,85.3945312 76.5017578,85.3945312 C77.3871789,85.3945312 78.1065727,85.4986969 78.6599609,85.7070312 C79.2133491,85.9153656 79.6202461,86.1774073 79.880664,86.4931641 C80.141082,86.8089208 80.3233718,87.2076799 80.427539,87.6894531 C80.4861331,87.9889338 80.5154296,88.529293 80.5154296,89.3105469 L80.5154296,91.6542969 C80.5154296,93.2884196 80.5528642,94.3219379 80.6277343,94.7548828 C80.7026045,95.1878277 80.850715,95.6028626 81.0720703,96 L79.2361328,96 C79.0538402,95.6354148 78.9366539,95.2089868 78.8845703,94.7207031 Z M78.7380859,90.7949219 C78.1000619,91.0553398 77.1430402,91.2766918 75.8669921,91.4589844 C75.1443323,91.5631516 74.6332697,91.6803379 74.333789,91.8105469 C74.0343084,91.9407559 73.8031909,92.1311836 73.6404296,92.3818359 C73.4776684,92.6324882 73.396289,92.9108058 73.396289,93.2167969 C73.396289,93.6855492 73.5736961,94.0761703 73.9285156,94.3886719 C74.2833351,94.7011734 74.8025356,94.8574219 75.4861328,94.8574219 C76.1632195,94.8574219 76.765427,94.7093114 77.2927734,94.4130859 C77.8201198,94.1168605 78.2074857,93.7115911 78.4548828,93.1972656 C78.6436858,92.8001282 78.7380859,92.2141966 78.7380859,91.4394531 L78.7380859,90.7949219 Z M83.5164713,96 L83.5164713,81.6835938 L85.2742838,81.6835938 L85.2742838,89.8476562 L89.4344401,85.6289062 L91.7098307,85.6289062 L87.744987,89.4765625 L92.1102213,96 L89.9422526,96 L86.5145182,90.6972656 L85.2742838,91.8886719 L85.2742838,96 L83.5164713,96 Z M100.872982,92.6601562 L102.689388,92.8847656 C102.402928,93.9459688 101.872335,94.7695283 101.097591,95.3554688 C100.322848,95.9414092 99.3332742,96.234375 98.1288411,96.234375 C96.6119065,96.234375 95.409119,95.7672573 94.5204427,94.8330078 C93.6317664,93.8987583 93.1874349,92.5885501 93.1874349,90.9023438 C93.1874349,89.1575434 93.6366491,87.8033902 94.5350911,86.8398438 C95.4335331,85.8762973 96.5988861,85.3945312 98.0311849,85.3945312 C99.4179106,85.3945312 100.550712,85.8665317 101.429622,86.8105469 C102.308533,87.754562 102.747982,89.0826737 102.747982,90.7949219 C102.747982,90.8990891 102.744727,91.0553375 102.738216,91.2636719 L95.0038411,91.2636719 C95.0689456,92.4030005 95.391208,93.2753876 95.970638,93.8808594 C96.550068,94.4863312 97.272717,94.7890625 98.1386068,94.7890625 C98.7831412,94.7890625 99.3332659,94.6197934 99.7889974,94.28125 C100.244729,93.9427066 100.606053,93.4023475 100.872982,92.6601562 Z M95.1014974,89.8183594 L100.892513,89.8183594 C100.814388,88.9459592 100.593036,88.2916688 100.228451,87.8554688 C99.6685519,87.178382 98.9426477,86.8398438 98.0507161,86.8398438 C97.2434204,86.8398438 96.5647163,87.1100233 96.0145833,87.6503906 C95.4644504,88.1907579 95.1600914,88.9134069 95.1014974,89.8183594 Z M108.535221,96 L114.033268,81.6835938 L116.074284,81.6835938 L121.933659,96 L119.775456,96 L118.105534,91.6640625 L112.119206,91.6640625 L110.54694,96 L108.535221,96 Z M112.666081,90.1210938 L117.519596,90.1210938 L116.025456,86.15625 C115.569724,84.9518169 115.231186,83.9622435 115.009831,83.1875 C114.827538,84.1054733 114.570379,85.0169226 114.238346,85.921875 L112.666081,90.1210938 Z M123.450326,96 L123.450326,81.6835938 L125.208138,81.6835938 L125.208138,96 L123.450326,96 Z M128.160352,96 L128.160352,81.6835938 L129.918164,81.6835938 L129.918164,96 L128.160352,96 Z M132.919206,83.7050781 L132.919206,81.6835938 L134.677018,81.6835938 L134.677018,83.7050781 L132.919206,83.7050781 Z M132.919206,96 L132.919206,85.6289062 L134.677018,85.6289062 L134.677018,96 L132.919206,96 Z M144.387044,94.7207031 C143.735999,95.2740913 143.109378,95.6647124 142.507162,95.8925781 C141.904945,96.1204438 141.258793,96.234375 140.568685,96.234375 C139.429356,96.234375 138.553714,95.9560575 137.941732,95.3994141 C137.32975,94.8427707 137.023763,94.1315147 137.023763,93.265625 C137.023763,92.75781 137.139322,92.2939474 137.370443,91.8740234 C137.601564,91.4540995 137.904295,91.1171888 138.278646,90.8632812 C138.652997,90.6093737 139.074542,90.4173184 139.543294,90.2871094 C139.888348,90.1959631 140.409176,90.1080733 141.105794,90.0234375 C142.525072,89.8541658 143.569984,89.6523449 144.24056,89.4179688 C144.24707,89.1770821 144.250326,89.0240889 144.250326,88.9589844 C144.250326,88.242835 144.084312,87.7382827 143.752279,87.4453125 C143.303058,87.0481751 142.635747,86.8496094 141.750326,86.8496094 C140.923499,86.8496094 140.313153,86.9944647 139.919271,87.2841797 C139.525389,87.5738947 139.23405,88.0865849 139.045247,88.8222656 L137.326497,88.5878906 C137.482748,87.8522099 137.739907,87.2581403 138.097982,86.8056641 C138.456057,86.3531878 138.973629,86.004884 139.650716,85.7607422 C140.327803,85.5166003 141.1123,85.3945312 142.004232,85.3945312 C142.889653,85.3945312 143.609047,85.4986969 144.162435,85.7070312 C144.715823,85.9153656 145.12272,86.1774073 145.383138,86.4931641 C145.643556,86.8089208 145.825846,87.2076799 145.930013,87.6894531 C145.988607,87.9889338 146.017904,88.529293 146.017904,89.3105469 L146.017904,91.6542969 C146.017904,93.2884196 146.055338,94.3219379 146.130208,94.7548828 C146.205079,95.1878277 146.353189,95.6028626 146.574544,96 L144.738607,96 C144.556314,95.6354148 144.439128,95.2089868 144.387044,94.7207031 Z M144.24056,90.7949219 C143.602536,91.0553398 142.645514,91.2766918 141.369466,91.4589844 C140.646806,91.5631516 140.135744,91.6803379 139.836263,91.8105469 C139.536782,91.9407559 139.305665,92.1311836 139.142904,92.3818359 C138.980142,92.6324882 138.898763,92.9108058 138.898763,93.2167969 C138.898763,93.6855492 139.07617,94.0761703 139.43099,94.3886719 C139.785809,94.7011734 140.30501,94.8574219 140.988607,94.8574219 C141.665694,94.8574219 142.267901,94.7093114 142.795247,94.4130859 C143.322594,94.1168605 143.70996,93.7115911 143.957357,93.1972656 C144.14616,92.8001282 144.24056,92.2141966 144.24056,91.4394531 L144.24056,90.7949219 Z M149.00918,96 L149.00918,85.6289062 L150.591211,85.6289062 L150.591211,87.1035156 C151.352934,85.964187 152.453183,85.3945312 153.891992,85.3945312 C154.516995,85.3945312 155.091534,85.5068348 155.615625,85.7314453 C156.139716,85.9560558 156.531965,86.2506492 156.792383,86.6152344 C157.052801,86.9798195 157.235091,87.4127579 157.339258,87.9140625 C157.404362,88.239585 157.436914,88.8092407 157.436914,89.6230469 L157.436914,96 L155.679102,96 L155.679102,89.6914062 C155.679102,88.9752568 155.610743,88.4397804 155.474024,88.0849609 C155.337304,87.7301415 155.094793,87.4469412 154.746484,87.2353516 C154.398175,87.023762 153.989651,86.9179688 153.520899,86.9179688 C152.772197,86.9179688 152.126044,87.1555966 151.582422,87.6308594 C151.038799,88.1061222 150.766992,89.0078059 150.766992,90.3359375 L150.766992,96 L149.00918,96 Z M167.166471,92.2011719 L168.894987,92.4257812 C168.706184,93.6171935 168.22279,94.5498013 167.444792,95.2236328 C166.666793,95.8974643 165.711399,96.234375 164.578581,96.234375 C163.159303,96.234375 162.018364,95.7705125 161.155729,94.8427734 C160.293095,93.9150344 159.861784,92.5852951 159.861784,90.8535156 C159.861784,89.7337184 160.047329,88.7539104 160.418425,87.9140625 C160.78952,87.0742146 161.354293,86.444338 162.112761,86.0244141 C162.871228,85.6044901 163.696415,85.3945312 164.588346,85.3945312 C165.714654,85.3945312 166.635869,85.6793591 167.352018,86.2490234 C168.068168,86.8186877 168.527148,87.6275989 168.728971,88.6757812 L167.019987,88.9394531 C166.857226,88.2428351 166.569143,87.7187518 166.155729,87.3671875 C165.742316,87.0156232 165.242646,86.8398438 164.656706,86.8398438 C163.771285,86.8398438 163.051891,87.1572234 162.498503,87.7919922 C161.945115,88.426761 161.668425,89.4309827 161.668425,90.8046875 C161.668425,92.1979236 161.935349,93.2102833 162.469206,93.8417969 C163.003063,94.4733104 163.69967,94.7890625 164.55905,94.7890625 C165.249157,94.7890625 165.825323,94.5774761 166.287565,94.1542969 C166.749807,93.7311177 167.042773,93.0800825 167.166471,92.2011719 Z M177.765169,92.6601562 L179.581576,92.8847656 C179.295116,93.9459688 178.764522,94.7695283 177.989779,95.3554688 C177.215035,95.9414092 176.225462,96.234375 175.021029,96.234375 C173.504094,96.234375 172.301307,95.7672573 171.41263,94.8330078 C170.523954,93.8987583 170.079623,92.5885501 170.079623,90.9023438 C170.079623,89.1575434 170.528837,87.8033902 171.427279,86.8398438 C172.325721,85.8762973 173.491074,85.3945312 174.923373,85.3945312 C176.310098,85.3945312 177.442899,85.8665317 178.32181,86.8105469 C179.200721,87.754562 179.640169,89.0826737 179.640169,90.7949219 C179.640169,90.8990891 179.636914,91.0553375 179.630404,91.2636719 L171.896029,91.2636719 C171.961133,92.4030005 172.283396,93.2753876 172.862826,93.8808594 C173.442256,94.4863312 174.164905,94.7890625 175.030794,94.7890625 C175.675329,94.7890625 176.225454,94.6197934 176.681185,94.28125 C177.136916,93.9427066 177.498241,93.4023475 177.765169,92.6601562 Z M171.993685,89.8183594 L177.784701,89.8183594 C177.706575,88.9459592 177.485223,88.2916688 177.120638,87.8554688 C176.560739,87.178382 175.834835,86.8398438 174.942904,86.8398438 C174.135608,86.8398438 173.456904,87.1100233 172.906771,87.6503906 C172.356638,88.1907579 172.052279,88.9134069 171.993685,89.8183594 Z" id="HandshakeAlliance"></path>
        </g>
    </g>
</svg>