<?xml version="1.0" encoding="UTF-8"?>
<svg width="125px" height="75px" viewBox="0 0 125 75" version="1.1" xmlns="http://www.w3.org/2000/svg" xmlns:xlink="http://www.w3.org/1999/xlink">
    <!-- Generator: Sketch 53.2 (72643) - https://sketchapp.com -->
    <title>jag</title>
    <desc>Created with Sketch.</desc>
    <g id="Page-1" stroke="none" stroke-width="1" fill="none" fill-rule="evenodd">
        <g id="jag" transform="translate(0.000000, 3.000000)" fill="#4A4A4A" fill-rule="nonzero" stroke="#4A4A4A">
            <g id="J" transform="translate(0.000000, 3.000000)">
                <g id="Group">
                    <path d="M24.116465,40.167 C24.116465,41.9576756 23.5634706,43.5113268 22.457465,44.828 L16.295465,52.333 L5.39346502,65.052 L5.47246502,65.052 C4.78779493,65.7366701 4.07680204,66.079 3.33946502,66.079 C2.70746186,66.079 2.12813432,65.8420024 1.60146502,65.368 C1.23279651,65.1046654 0.96946581,64.775502 0.81146502,64.3805 C0.65346423,63.985498 0.57446502,63.6036685 0.57446502,63.235 C0.57446502,62.6029968 0.81146265,61.9973362 1.28546502,61.418 L1.28546502,61.497 L12.187465,48.857 L12.108465,48.936 L18.428465,41.115 C18.5864658,40.9043323 18.665465,40.5883354 18.665465,40.167 L18.665465,6.039 L15.031465,6.039 C13.2407894,6.039 12.345465,5.1173426 12.345465,3.274 C12.345465,1.4833244 13.2407894,0.588 15.031465,0.588 L21.430465,0.588 C23.2211406,0.588 24.116465,1.4833244 24.116465,3.274 L24.116465,40.167 Z" id="path-1"></path>
                </g>
            </g>
            <g id="G" transform="translate(96.000000, 2.000000)">
                <g id="Group">
                    <path d="M28.348114,65.035 C28.348114,66.6443414 27.519789,67.449 25.863114,67.449 C24.2537726,67.449 23.449114,66.6443414 23.449114,65.035 L23.449114,29.606 C23.449114,28.3753272 22.8337868,27.76 21.603114,27.76 L14.503114,27.76 C12.8937726,27.76 12.089114,26.931675 12.089114,25.275 C12.089114,23.6656586 12.8937726,22.861 14.503114,22.861 L21.603114,22.861 C23.4964568,22.861 25.0939408,23.5118268 26.395614,24.8135 C27.6972872,26.1151732 28.348114,27.7126572 28.348114,29.606 L28.348114,65.035 Z M28.3481141,6.673 L28.3481141,11.359 C28.3481141,12.9683414 27.5197891,13.773 25.8631141,13.773 C24.2537727,13.773 23.4491141,12.9683414 23.4491141,11.359 L23.4491141,7.667 C23.354447,6.010325 22.7391198,5.182 21.6031141,5.182 L7.4741141,5.182 C6.24344128,5.182 5.6281141,5.7973272 5.6281141,7.028 L5.6281141,35.783 C5.6281141,36.1616686 5.69911339,36.4456657 5.8411141,36.635 L11.5211141,43.664 L11.4501141,43.593 L21.2481141,55.024 C21.7214498,55.6393364 21.9581141,56.1363314 21.9581141,56.515 C21.9581141,56.846335 21.8752816,57.1894982 21.7096141,57.5445 C21.5439466,57.8995018 21.2717827,58.1953321 20.8931141,58.432 C20.467112,58.8580021 19.9464505,59.071 19.3311141,59.071 C18.6211106,59.071 17.9821169,58.7633364 17.4141141,58.148 L17.4851141,58.148 L7.6871141,46.717 L2.2911141,39.972 C1.72311126,39.3566636 1.33261517,38.7058368 1.1196141,38.0195 C0.90661304,37.3331632 0.8001141,36.5876707 0.8001141,35.783 L0.8001141,7.028 C0.8001141,6.1286622 0.97761233,5.2766707 1.3326141,4.472 C1.68761588,3.6673293 2.17277769,2.9573364 2.7881141,2.342 C3.40345051,1.7266636 4.11344341,1.2415018 4.9181141,0.8865 C5.72278479,0.5314982 6.57477627,0.354 7.4741141,0.354 L21.6031141,0.354 C23.2597891,0.354 24.6916081,0.9338275 25.8986141,2.0935 C27.1056201,3.2531725 27.8747791,4.7323243 28.2061141,6.531 L28.3481141,6.673 Z" id="path-2"></path>
                </g>
            </g>
            <g id="Group" transform="translate(14.000000, 0.000000)" stroke-width="2">
                <polygon id="Path-2" transform="translate(26.281332, 35.909551) rotate(-10.000000) translate(-26.281332, -35.909551) " points="5.68472988 64.7022228 10.7879641 53.3453035 15.8714576 49.8480766 20.5299127 41.7652838 24.2516564 41.7634451 28.927453 33.6124955 33.4848705 29.6761015 46.8779345 7.11687964 44.168388 22.4834816 38.6260656 30.5826329 41.9548677 30.5809883 46.2354264 58.3841748 40.1604029 40.7579039 36.9322577 40.1886948 35.5736625 36.4114056 33.1999783 41.7590242 29.1428662 41.7610286 24.2487219 47.7192382 21.1537934 47.7207672 15.8684084 56.0367441"></polygon>
                <polygon id="Path-3" transform="translate(63.599703, 32.943077) rotate(8.000000) translate(-63.599703, -32.943077) " points="39.1156738 3.15248331 39.3731523 18.7199536 45.4774395 23.6034991 52.6060085 26.2294047 59.3825645 36.8753479 66.5765145 40.9753227 70.60392 48.6799338 77.8450474 53.5592833 88.0837323 62.7336707 80.1147667 50.1640069 78.0470757 50.1631836 72.8592863 45.1719925 68.8216714 37.9359892 68.8208362 35.8325577 64.0715081 32.9255571 56.1027253 19.4702612 51.8523588 17.6300632"></polygon>
            </g>
        </g>
    </g>
</svg>