<?xml version="1.0" encoding="UTF-8"?>
<svg width="355px" height="58px" viewBox="0 0 355 58" version="1.1" xmlns="http://www.w3.org/2000/svg" xmlns:xlink="http://www.w3.org/1999/xlink">
    <!-- Generator: Sketch 53.2 (72643) - https://sketchapp.com -->
    <title>Nameian</title>
    <desc>Created with Sketch.</desc>
    <g id="Page-1" stroke="none" stroke-width="1" fill="none" fill-rule="evenodd">
        <path d="M48.9125,51.1 L48.9125,4 L54.9875,4 L54.9875,58 L46.6625,58 L7.0625,10.9 L7.0625,58 L0.9875,58 L0.9875,4 L9.3125,4 L48.9125,51.1 Z M99.2625,14.5 C101.812513,14.5 103.974991,15.3874911 105.75,17.1625 C107.525009,18.9375089 108.4125,21.0749875 108.4125,23.575 L108.4125,58 L73.1625,58 C70.6624875,58 68.5250089,57.1125089 66.75,55.3375 C64.9749911,53.5624911 64.0875,51.4250125 64.0875,48.925 L64.0875,33.175 L102.1875,33.175 L102.1875,23.575 C102.1875,22.774996 101.900003,22.0875029 101.325,21.5125 C100.749997,20.9374971 100.062504,20.65 99.2625,20.65 L64.0875,20.65 L64.0875,14.5 L99.2625,14.5 Z M102.1875,51.85 L102.1875,39.325 L70.2375,39.325 L70.2375,48.925 C70.2375,49.725004 70.5249971,50.4124971 71.1,50.9875 C71.6750029,51.5625029 72.362496,51.85 73.1625,51.85 L102.1875,51.85 Z M173.2375,14.5 C175.787513,14.5 177.937491,15.3874911 179.6875,17.1625 C181.437509,18.9375089 182.3125,21.0749875 182.3125,23.575 L182.3125,58 L176.2375,58 L176.2375,23.575 C176.2375,22.774996 175.937503,22.0875029 175.3375,21.5125 C174.737497,20.9374971 174.037504,20.65 173.2375,20.65 L155.1625,20.65 C154.362496,20.65 153.675003,20.9374971 153.1,21.5125 C152.524997,22.0875029 152.2375,22.774996 152.2375,23.575 L152.2375,58 L146.0125,58 L146.0125,23.575 C146.0125,22.774996 145.725003,22.0875029 145.15,21.5125 C144.574997,20.9374971 143.887504,20.65 143.0875,20.65 L124.9375,20.65 C124.137496,20.65 123.450003,20.9374971 122.875,21.5125 C122.299997,22.0875029 122.0125,22.774996 122.0125,23.575 L122.0125,58 L115.7875,58 L115.7875,14.5 L173.2375,14.5 Z M225.0875,14.5 C227.637513,14.5 229.799991,15.3874911 231.575,17.1625 C233.350009,18.9375089 234.2375,21.0749875 234.2375,23.575 L234.2375,39.325 L196.0625,39.325 L196.0625,48.925 C196.0625,49.725004 196.349997,50.4124971 196.925,50.9875 C197.500003,51.5625029 198.187496,51.85 198.9875,51.85 L234.2375,51.85 L234.2375,58 L198.9875,58 C196.487487,58 194.350009,57.1125089 192.575,55.3375 C190.799991,53.5624911 189.9125,51.4250125 189.9125,48.925 L189.9125,23.575 C189.9125,21.0749875 190.799991,18.9375089 192.575,17.1625 C194.350009,15.3874911 196.487487,14.5 198.9875,14.5 L225.0875,14.5 Z M196.0625,33.175 L228.0125,33.175 L228.0125,23.575 C228.0125,22.774996 227.725003,22.0875029 227.15,21.5125 C226.574997,20.9374971 225.887504,20.65 225.0875,20.65 L198.9875,20.65 C198.187496,20.65 197.500003,20.9374971 196.925,21.5125 C196.349997,22.0875029 196.0625,22.774996 196.0625,23.575 L196.0625,33.175 Z M242.8875,58 L242.8875,14.5 L249.0375,14.5 L249.0375,58 L242.8875,58 Z M242.8875,0.25 L249.0375,0.25 L249.0375,6.4 L242.8875,6.4 L242.8875,0.25 Z M292.0375,14.5 C294.587513,14.5 296.749991,15.3874911 298.525,17.1625 C300.300009,18.9375089 301.1875,21.0749875 301.1875,23.575 L301.1875,58 L265.9375,58 C263.437488,58 261.300009,57.1125089 259.525,55.3375 C257.749991,53.5624911 256.8625,51.4250125 256.8625,48.925 L256.8625,33.175 L294.9625,33.175 L294.9625,23.575 C294.9625,22.774996 294.675003,22.0875029 294.1,21.5125 C293.524997,20.9374971 292.837504,20.65 292.0375,20.65 L256.8625,20.65 L256.8625,14.5 L292.0375,14.5 Z M294.9625,51.85 L294.9625,39.325 L263.0125,39.325 L263.0125,48.925 C263.0125,49.725004 263.299997,50.4124971 263.875,50.9875 C264.450003,51.5625029 265.137496,51.85 265.9375,51.85 L294.9625,51.85 Z M345.3125,14.5 C347.812513,14.5 349.949991,15.3874911 351.725,17.1625 C353.500009,18.9375089 354.3875,21.0749875 354.3875,23.575 L354.3875,58 L348.2375,58 L348.2375,23.575 C348.2375,22.774996 347.950003,22.0875029 347.375,21.5125 C346.799997,20.9374971 346.112504,20.65 345.3125,20.65 L319.2125,20.65 C318.412496,20.65 317.712503,20.9374971 317.1125,21.5125 C316.512497,22.0875029 316.2125,22.774996 316.2125,23.575 L316.2125,58 L310.0625,58 L310.0625,14.5 L345.3125,14.5 Z" id="Nameian" fill="#000000" fill-rule="nonzero"></path>
    </g>
</svg>