<svg width="149px" height="94px" viewBox="0 0 149 94" version="1.1">
    <g id="Page-1" stroke="none" stroke-width="1" fill="none" fill-rule="evenodd">
        <g id="UrkelGlasses" transform="translate(0.000000, 1.000000)">
            <g id="glasses-(1)" transform="translate(17.000000, 0.000000)">
                <g id="glasses" transform="translate(56.086826, 22.017647) rotate(90.000000) translate(-56.086826, -22.017647) translate(34.086826, -33.482353)">
                    <g id="Group" transform="translate(22.125471, 55.450798) scale(-1, 1) rotate(-90.000000) translate(-22.125471, -55.450798) translate(-32.874529, 33.950798)">
                        <rect id="Rectangle" fill="#000000" fill-rule="nonzero" x="0.124820521" y="21.1792025" width="6.06386142" height="2.0170669" rx="0.5"></rect>
                        <rect id="Rectangle" fill="#000000" fill-rule="nonzero" x="103.210465" y="21.1792025" width="6.06386142" height="2.0170669" rx="0.5"></rect>
                        <path d="M50.1029706,23.1962692 C52.086194,21.8515578 53.61738,21.1792023 54.6965281,21.1792023 C55.775676,21.1792023 57.306862,21.8515578 59.2900857,23.1962692" id="Line-3" stroke="#000000" stroke-width="3" stroke-linecap="square" transform="translate(54.696528, 22.187736) scale(-1, 1) rotate(-180.000000) translate(-54.696528, -22.187736) "></path>
                        <path d="M27.412197,42.3268592 C32.7872064,42.3268592 40.1797124,42.4295731 44.0239244,39.4077653 C48.9620845,35.5260413 49.6463554,27.7355031 49.6463554,21.1634296 C49.6463554,15.4523683 48.9093802,9.74292671 45.0461846,5.93574183 C41.0029765,1.95115449 33.6917807,0 27.412197,0 C20.6742853,0 13.8556406,1.42989165 9.77820909,5.93574183 C6.42467721,9.64163174 5.17803836,15.8886245 5.17803836,21.1634296 C5.17803836,27.3273142 5.36031385,35.5398834 9.77820909,39.4077653 C13.7377288,42.874338 21.6083462,42.3268592 27.412197,42.3268592 Z" id="Oval" stroke="#000000" stroke-width="3"></path>
                        <path d="M81.9869494,42.3268592 C87.3619591,42.3268592 94.7544651,42.4295731 98.598677,39.4077653 C103.536837,35.5260413 104.221108,27.7355031 104.221108,21.1634296 C104.221108,15.4523683 103.484133,9.74292671 99.6209373,5.93574183 C95.5777294,1.95115449 88.2665334,0 81.9869494,0 C75.2490381,0 68.4303933,1.42989165 64.352962,5.93574183 C60.99943,9.64163174 59.752791,15.8886245 59.752791,21.1634296 C59.752791,27.3273142 59.9350667,35.5398834 64.352962,39.4077653 C68.3124813,42.874338 76.1830988,42.3268592 81.9869494,42.3268592 Z" id="Oval" stroke="#000000" stroke-width="3"></path>
                    </g>
                </g>
            </g>
            <path d="M12.9729046,93 C8.59475172,93 5.33810075,92.0527159 3.20285405,90.1581197 C1.06760734,88.2635234 0,85.2412362 0,81.0911681 L0,55 L4.14486994,55 L4.14486994,81.1994302 C4.14486994,86.6125627 7.05163279,89.3190883 12.8652457,89.3190883 C15.9155981,89.3190883 18.1943566,88.6695222 19.7015896,87.3703704 C21.2088226,86.0712186 21.9624277,84.0142591 21.9624277,81.1994302 L21.9624277,55 L26.0534682,55 L26.0534682,81.0911681 C26.0534682,85.2051488 24.9679179,88.218414 22.7967847,90.1310541 C20.6256515,92.0436943 17.3510575,93 12.9729046,93 Z M34.9353324,55 L48.7156792,55 C52.6990806,55 55.6776153,55.9292405 57.6513728,57.7877493 C59.6251303,59.6462581 60.6119942,62.5061534 60.6119942,66.3675214 C60.6119942,72.1776169 58.3332358,75.8043614 53.7756503,77.2478632 L60.9349711,92.4586895 L56.3594653,92.4586895 L49.6307803,78.1139601 L39.0802023,78.1139601 L39.0802023,92.4586895 L34.9353324,92.4586895 L34.9353324,55 Z M48.7695087,74.4330484 C53.8295051,74.4330484 56.3594653,71.7986969 56.3594653,66.5299145 C56.3594653,61.2972199 53.8115621,58.6809117 48.7156792,58.6809117 L39.0802023,58.6809117 L39.0802023,74.4330484 L48.7695087,74.4330484 Z M78.429552,75.8945869 L72.2391618,76.1111111 L72.2391618,92.4586895 L68.0942919,92.4586895 L68.0942919,55 L72.2391618,55 L72.2391618,72.4301994 L78.3757225,72.2136752 L87.9035405,55 L92.6405347,55 L81.9822977,73.8376068 L93.232659,92.4586895 L88.3341763,92.4586895 L78.429552,75.8945869 Z M102.868136,58.6809117 L102.868136,71.6182336 L118.155708,71.6182336 L118.155708,75.2450142 L102.868136,75.2450142 L102.868136,88.7777778 L121.385477,88.7777778 L121.385477,92.4586895 L98.7232659,92.4586895 L98.7232659,55 L121.385477,55 L121.385477,58.6809117 L102.868136,58.6809117 Z M149,88.7236467 L149,92.4586895 L128.490968,92.4586895 L128.490968,55 L132.635838,55 L132.635838,88.7236467 L149,88.7236467 Z" id="URKEL" fill="#000000" fill-rule="nonzero"></path>
        </g>
    </g>
</svg>
