<?xml version="1.0" standalone="no"?>
<!DOCTYPE svg PUBLIC "-//W3C//DTD SVG 20010904//EN"
 "http://www.w3.org/TR/2001/REC-SVG-20010904/DTD/svg10.dtd">
<svg version="1.0" xmlns="http://www.w3.org/2000/svg"
 width="1088.000000pt" height="1088.000000pt" viewBox="0 0 1088.000000 1088.000000"
 preserveAspectRatio="xMidYMid meet">
<metadata>
Created by potrace 1.11, written by Peter Selinger 2001-2013
</metadata>
<g transform="translate(0.000000,1088.000000) scale(0.100000,-0.100000)"
fill="#000000" stroke="none">
<path d="M8725 8078 c-27 -5 -93 -30 -145 -55 -170 -82 -298 -240 -330 -408
-8 -43 -10 -432 -8 -1385 l3 -1325 22 -57 c12 -31 32 -72 45 -91 81 -120 930
-1069 1467 -1641 58 -62 109 -85 184 -86 65 0 99 14 166 68 76 62 94 155 44
230 -16 22 -233 262 -483 534 -421 455 -959 1061 -987 1112 -9 16 -12 317 -13
1306 0 1436 -5 1331 70 1375 34 19 52 20 700 23 366 2 688 0 717 -3 65 -8 112
-39 138 -90 18 -36 21 -66 25 -275 5 -226 7 -237 30 -279 37 -66 96 -94 199
-93 122 0 187 36 217 119 15 44 20 472 5 501 -5 9 -17 45 -27 79 -57 206 -245
390 -445 438 -54 12 -177 15 -804 14 -411 -1 -762 -5 -790 -11z"/>
<path d="M4883 7974 c-5 -11 -196 -491 -423 -1067 l-414 -1048 -172 -202 -172
-202 -143 -378 c-78 -208 -147 -381 -153 -385 -6 -3 -80 -18 -164 -33 -85 -15
-157 -31 -162 -35 -4 -5 -70 -175 -146 -378 l-139 -369 -201 -189 -201 -190
-136 -516 c-76 -283 -136 -516 -135 -518 2 -1 174 195 383 437 l380 439 168
387 c93 214 174 393 180 399 7 6 70 21 141 33 71 12 131 22 132 24 1 1 78 130
170 287 92 157 168 286 169 288 2 1 84 17 184 34 l181 32 8 30 c5 17 33 124
62 239 29 114 56 207 60 207 4 0 46 -65 94 -145 l87 -145 148 0 149 0 397
-685 c219 -377 399 -684 401 -682 2 2 -34 109 -80 238 -46 128 -227 637 -401
1129 -175 492 -318 896 -319 896 0 1 -64 -9 -141 -22 -77 -13 -143 -23 -147
-21 -5 1 294 647 309 667 2 2 88 -80 191 -182 l187 -186 296 -152 296 -152
237 -497 237 -497 297 -220 297 -219 112 -300 c61 -165 121 -325 132 -355 20
-53 32 -65 312 -305 l292 -250 394 -448 c217 -246 396 -447 398 -447 5 0 -10
33 -293 630 l-249 525 -93 12 c-84 11 -97 16 -116 40 -12 16 -102 126 -200
246 l-179 217 -134 332 -135 331 12 91 c6 52 7 94 2 100 -5 6 -92 76 -193 156
l-185 145 -273 625 -272 625 -179 105 -180 105 -470 685 c-259 377 -475 689
-479 694 -4 4 -11 0 -16 -10z"/>
<path d="M1395 7937 c-82 -32 -117 -88 -123 -196 -7 -128 28 -204 113 -242 33
-16 67 -19 203 -19 l162 0 0 -1494 0 -1495 -43 -63 c-152 -221 -551 -758 -901
-1213 -225 -291 -416 -546 -424 -565 -19 -46 -18 -137 3 -185 32 -78 120 -144
191 -145 47 0 100 26 140 68 91 96 1252 1640 1358 1806 20 30 48 90 63 133
l28 78 0 1705 0 1705 -25 44 c-16 28 -39 52 -65 65 -38 20 -57 21 -345 23
-217 1 -314 -2 -335 -10z"/>
<path d="M9504 6211 c-65 -11 -103 -33 -134 -79 -22 -32 -25 -46 -25 -131 0
-113 17 -151 87 -191 l43 -25 395 -5 c434 -5 426 -4 467 -67 17 -26 18 -122
23 -1668 5 -1501 6 -1643 22 -1670 39 -71 89 -96 196 -97 118 0 191 47 212
138 6 22 10 718 10 1649 0 1784 3 1682 -66 1825 -48 98 -160 211 -254 257
-129 63 -148 65 -555 69 -203 1 -393 -1 -421 -5z"/>
</g>
</svg>
